<svg version="1.1" id="Layer_1" xmlns="http://www.w3.org/2000/svg" xmlns:xlink="http://www.w3.org/1999/xlink" x="0px" y="0px"
	 width="100%" viewBox="0 0 1024 512" enable-background="new 0 0 1024 512" xml:space="preserve">
<path fill="#000000" opacity="1.000000" stroke="none" 
	d="
M84.112862,494.901245 
	C67.649590,493.974060 51.653996,494.521027 35.666706,494.367432 
	C33.905045,494.350525 31.876822,493.744354 30.479113,495.370544 
	C29.291044,496.752869 28.012300,499.088745 26.264217,497.138947 
	C24.618153,495.302979 21.612125,493.191620 23.699726,489.890991 
	C24.973305,487.877380 24.798594,485.749512 24.796234,483.611877 
	C24.753210,444.612854 24.694962,405.613861 24.613676,366.614868 
	C24.607990,363.887665 25.315821,360.790619 21.367001,359.792114 
	C20.420214,359.552704 19.965605,358.366516 20.286051,357.280975 
	C20.612055,356.176636 21.604853,355.966064 22.607430,355.695862 
	C27.353806,354.416443 32.206436,355.046661 36.999496,354.958862 
	C40.704460,354.890991 41.850582,353.452362 41.835373,349.844482 
	C41.655552,307.180145 42.000061,264.509521 41.389950,221.852219 
	C40.727337,175.524582 41.162403,129.198074 40.668900,82.873962 
	C40.639141,80.080795 41.768585,77.413086 40.939648,74.490181 
	C40.386715,72.540466 42.040638,71.653908 44.036430,71.599335 
	C47.864960,71.494659 51.689949,71.128227 55.516926,71.120285 
	C79.167831,71.071190 102.819466,70.987381 126.469704,71.120422 
	C147.295837,71.237572 168.119919,71.678047 188.945892,71.872307 
	C205.267914,72.024559 221.591400,72.023705 237.914291,72.075180 
	C239.513962,72.080223 241.190536,72.367264 242.876160,71.273918 
	C241.663177,68.517685 239.680161,70.042953 238.176254,70.143456 
	C234.219208,70.407898 230.655991,70.129318 229.838547,65.232933 
	C229.086243,60.726658 232.744019,54.098866 236.361267,53.427666 
	C239.216873,52.897793 241.466278,53.919071 241.979370,56.921486 
	C242.404175,59.407413 241.444931,61.190266 238.374222,60.798672 
	C235.863297,60.478470 235.792603,62.110600 235.933670,63.922173 
	C243.421585,63.831738 244.861740,62.422421 244.895645,55.409149 
	C244.914246,51.563179 244.464722,47.781033 243.832230,43.991100 
	C243.457138,41.743546 243.823578,39.285023 246.674942,39.072792 
	C249.262177,38.880222 249.903000,41.315819 250.062164,43.246925 
	C250.333511,46.539349 250.136917,49.870346 250.136917,53.189049 
	C256.212036,53.039223 256.464386,53.259281 257.782349,59.347569 
	C263.670563,54.065453 270.077209,52.203495 274.512787,58.049408 
	C277.724701,56.064869 281.050781,54.083126 285.038788,54.248871 
	C287.794159,54.363392 290.918274,54.859097 290.866791,58.304211 
	C290.819611,61.460896 288.390472,63.177052 285.142609,63.446445 
	C283.250336,63.603401 281.245209,62.741932 279.132812,64.120163 
	C281.197266,66.505310 283.632935,66.216751 286.033173,65.602882 
	C288.147675,65.062096 290.383820,63.963139 291.787415,66.536987 
	C293.474182,69.629997 289.485626,69.530602 288.701752,71.623535 
	C294.290741,73.682312 294.555420,64.104179 300.258545,66.685349 
	C297.251373,63.851067 290.268585,65.117355 292.208344,58.265793 
	C293.012939,55.423687 299.337769,52.965034 302.121246,53.997002 
	C305.288971,55.171421 305.201477,57.493549 304.072083,60.031193 
	C311.021088,65.944405 310.964752,68.117523 303.844421,72.631409 
	C313.794769,72.631409 323.745117,72.627899 333.695465,72.632210 
	C349.694641,72.639153 365.693787,72.659592 381.692963,72.652435 
	C384.165253,72.651329 386.632446,72.918053 388.959625,71.472939 
	C391.357452,69.983994 393.091980,72.031517 394.692627,73.280586 
	C396.441101,74.644989 395.546844,76.232407 394.267761,77.552940 
	C393.380035,78.469536 393.274261,79.629921 393.273834,80.808365 
	C393.268311,95.627846 393.270172,110.447334 393.270172,125.580505 
	C395.987274,125.426903 396.788025,123.341255 398.139008,122.115860 
	C399.675140,120.722580 401.301239,119.973228 402.966797,121.517708 
	C404.545837,122.981964 403.777283,124.651466 402.506958,125.905891 
	C399.312683,129.060104 396.030548,132.125977 392.757019,135.198914 
	C391.775330,136.120453 390.697266,136.065338 389.564087,135.353470 
	C386.477570,133.414551 383.665558,131.057617 380.230682,129.639404 
	C378.636810,128.981277 378.398346,127.307236 378.904541,125.752502 
	C379.522064,123.856049 381.101532,123.151024 382.874298,123.645287 
	C384.382050,124.065651 385.737671,125.031746 387.240875,125.797279 
	C388.542206,123.620644 388.069824,121.418495 388.065796,119.330994 
	C388.041901,106.998184 387.881439,94.665543 387.881195,82.332848 
	C387.881134,79.165924 387.156219,77.399223 383.420166,77.422607 
	C364.936127,77.538322 346.450806,77.451942 327.965942,77.428551 
	C245.134460,77.323715 162.302963,77.214409 79.471481,77.111389 
	C68.149719,77.097313 56.827919,77.109451 46.304863,77.109451 
	C46.304863,111.462624 46.199863,146.022980 46.328712,180.582458 
	C46.538094,236.742142 46.942795,292.901123 47.115421,349.060852 
	C47.128727,353.390045 48.314560,354.879272 52.777004,354.754181 
	C82.420189,353.923218 112.069992,353.329987 141.716766,352.622406 
	C143.516159,352.579498 145.307968,352.219238 147.132553,352.003204 
	C147.122269,348.756500 144.770691,347.094421 143.331100,344.945190 
	C142.779755,344.122070 142.042480,343.422974 141.385513,342.671204 
	C139.712585,340.756775 138.715698,338.366821 140.424545,336.355652 
	C142.507324,333.904419 144.129211,336.966034 145.958282,337.646118 
	C147.163666,336.741364 146.666214,335.465240 146.675690,334.392822 
	C147.042038,292.901184 147.378952,251.409302 147.689133,209.917206 
	C147.703812,207.951401 147.974899,205.980133 147.045929,204.033356 
	C145.658768,201.126389 147.449738,200.073563 149.992355,199.805038 
	C151.311569,199.665680 152.656036,199.759766 153.989105,199.758331 
	C201.321198,199.707230 248.653305,199.668854 295.985352,199.587921 
	C300.313324,199.580521 304.662201,198.970413 308.962280,199.247238 
	C312.849213,199.497452 313.837921,198.086349 313.749542,194.433029 
	C313.346710,177.780136 313.151428,161.122192 312.896210,144.465836 
	C312.873260,142.968536 312.729340,141.421356 313.036530,139.981613 
	C313.653015,137.092316 315.188782,135.569458 317.740723,138.280548 
	C319.206543,139.837799 320.856903,140.026062 322.700439,140.024673 
	C368.366119,139.990509 414.031830,139.927200 459.697479,139.953003 
	C463.299988,139.955032 464.737244,138.713318 464.716095,134.995239 
	C464.614685,117.162743 464.710876,99.329147 464.715820,81.495941 
	C464.716248,80.020218 464.948944,78.442673 463.783173,77.225182 
	C462.635895,76.026970 460.889618,74.743736 462.307678,73.047249 
	C463.772491,71.294899 466.074371,69.443169 468.356842,70.475685 
	C472.031921,72.138161 475.592529,71.096405 479.184540,71.039551 
	C504.342194,70.641289 529.497986,70.126984 554.655334,69.707710 
	C602.792175,68.905472 650.903259,67.054695 699.048157,66.407516 
	C716.010132,66.179504 733.034058,66.331146 749.983948,64.932808 
	C751.130676,64.838203 752.277466,64.745384 753.399902,64.653732 
	C753.922485,62.789860 752.384033,62.702393 751.542664,62.089783 
	C750.014709,60.977306 748.400452,59.763306 749.269043,57.623871 
	C750.230713,55.255508 752.764587,55.084774 754.414551,55.899483 
	C761.528503,59.412273 769.464417,58.270588 776.814087,60.268093 
	C778.234619,60.654190 779.686035,61.144028 781.669983,60.449459 
	C782.151428,51.589577 784.197571,42.606613 781.334045,33.579445 
	C780.518127,31.007406 782.387634,30.250883 784.292419,30.068733 
	C786.938171,29.815735 789.618408,29.883486 792.283875,29.884001 
	C820.950012,29.889542 849.616089,29.904745 878.282227,29.927382 
	C885.359497,29.932970 885.219788,29.995375 885.305359,37.184967 
	C885.406372,45.674294 885.947571,54.157661 886.120056,62.647228 
	C886.186157,65.900490 887.531860,67.051346 890.713013,66.882057 
	C907.671570,65.979637 924.636108,65.189636 941.597473,64.338005 
	C952.074646,63.811947 962.555664,63.336544 973.023010,62.653835 
	C977.459839,62.364452 979.266174,63.911900 979.402344,68.545723 
	C980.263184,97.844162 981.083496,127.148232 982.434692,156.426559 
	C983.724609,184.378311 984.576843,212.339096 985.382080,240.304810 
	C985.472961,243.462112 985.961670,246.606598 986.101807,249.764313 
	C986.189270,251.734512 986.367859,254.396362 983.752441,254.536118 
	C980.716675,254.698318 980.925171,251.807968 980.810852,249.726364 
	C980.454895,243.244019 980.154114,236.757202 979.945801,230.268448 
	C979.160156,205.794907 978.465210,181.318405 977.650452,156.845886 
	C976.686096,127.882851 975.633972,98.922737 974.606079,69.961845 
	C974.589050,69.482231 974.395081,69.008896 974.304565,68.622055 
	C973.292053,67.431801 972.097107,67.952522 970.970337,68.010658 
	C949.852600,69.100182 928.734192,70.175911 907.617126,71.278046 
	C902.299622,71.555588 896.984802,72.183784 891.671814,72.150757 
	C887.476746,72.124680 886.093445,73.746887 886.350525,77.803986 
	C887.087219,89.431030 887.616028,101.071350 888.205078,112.707535 
	C888.280823,114.203857 888.250122,115.706871 888.230957,117.206314 
	C888.213379,118.582977 888.007141,119.961899 886.599548,120.604210 
	C884.986694,121.340141 884.187744,120.292770 883.519409,118.990288 
	C882.333130,116.678299 880.102356,117.246445 878.193176,117.291672 
	C856.877991,117.796486 835.564758,118.382339 814.249756,118.894928 
	C805.419983,119.107285 796.587769,119.244041 787.755798,119.324455 
	C781.824768,119.378464 780.826660,118.483376 780.897400,112.330246 
	C781.018127,101.839149 781.414490,91.351387 781.667175,80.861549 
	C781.726868,78.383438 781.676086,75.902664 781.676086,72.063004 
	C774.451477,76.554039 767.337524,79.022957 760.338196,81.782372 
	C758.492676,82.509949 756.597290,84.318916 755.241882,81.719368 
	C753.809204,78.971718 755.766968,77.415154 758.154480,76.446716 
	C763.024292,74.471451 768.260620,73.331436 773.019470,69.865807 
	C746.998718,70.239075 721.434021,70.728775 695.873352,71.786224 
	C680.063049,72.440292 664.220337,72.274338 648.394592,72.597351 
	C604.421143,73.494858 560.461853,74.969650 516.479004,75.578354 
	C503.664673,75.755699 490.834320,76.141914 478.010406,76.408882 
	C470.363342,76.568069 470.118927,76.927773 470.029938,84.319237 
	C469.831360,100.812729 469.744019,117.310402 469.254517,133.795776 
	C469.108368,138.717957 470.797760,140.062759 475.515747,139.983826 
	C490.511658,139.732941 505.514130,139.857422 520.514038,139.873611 
	C527.308899,139.880936 529.852356,142.093384 530.441284,148.850937 
	C531.438477,160.293030 532.269958,171.749649 533.152283,183.201614 
	C533.321533,185.398376 533.185974,187.645584 536.456055,187.633286 
	C549.758240,187.583313 563.060730,187.612503 576.939514,187.612503 
	C573.429260,179.955994 575.556702,172.666946 576.460876,165.302460 
	C576.919434,161.566940 578.530457,159.530731 582.043396,158.705231 
	C585.364685,157.924774 588.371033,158.236160 590.594116,161.151291 
	C592.774292,164.010147 593.466919,167.186310 591.919861,170.527466 
	C590.623840,173.326447 588.650391,175.847870 585.578491,176.528458 
	C581.775574,177.370987 580.702087,179.486389 581.417847,182.945938 
	C581.744446,184.524612 580.773987,185.773254 580.413391,187.707993 
	C605.490417,188.088287 630.415588,187.588760 655.699097,188.636017 
	C654.789246,187.115402 653.917969,185.995331 653.415894,184.728867 
	C652.878540,183.373383 653.348938,182.062500 654.599182,181.236420 
	C655.672729,180.527145 656.854431,180.657745 657.886475,181.366791 
	C658.964966,182.107727 659.849487,183.245300 661.017700,183.719315 
	C664.171936,184.999146 667.668640,185.262939 670.871277,184.683533 
	C676.255981,183.709366 673.029907,179.130630 673.276611,176.408417 
	C673.921082,169.295563 673.775085,162.091095 673.595093,154.931946 
	C673.504944,151.349838 675.052185,149.677612 678.303162,149.164597 
	C679.776489,148.932114 681.277161,148.777222 682.767273,148.760849 
	C714.427246,148.413040 746.087341,148.073547 777.747864,147.775543 
	C784.359680,147.713303 783.758240,147.698029 782.757446,154.101624 
	C781.867676,159.795288 782.484680,165.728775 782.485107,171.556412 
	C782.486328,186.370392 782.376648,201.186310 782.586182,215.997574 
	C782.704041,224.326141 783.186401,232.651093 782.405823,240.962967 
	C782.227295,242.864548 783.557373,246.055206 780.225830,246.082809 
	C777.072510,246.108963 777.819336,243.035767 777.815613,241.020325 
	C777.765442,214.020844 777.773193,187.021255 777.760132,160.021698 
	C777.756775,153.069534 777.746399,153.047211 770.941223,153.124603 
	C741.783508,153.456223 712.626465,153.864914 683.467957,154.069305 
	C679.493103,154.097168 678.342468,155.475418 678.354248,159.328918 
	C678.427734,183.325485 678.394714,207.323685 678.148376,231.318802 
	C678.102600,235.778549 679.602356,236.946487 683.912109,236.969040 
	C712.738464,237.119797 741.563843,237.500305 770.388367,237.890945 
	C772.839905,237.924164 776.778748,236.911102 776.843323,240.572906 
	C776.913635,244.559891 772.890320,243.193771 770.529663,243.175049 
	C741.371704,242.943741 712.211731,242.742371 683.059265,242.175812 
	C673.946228,241.998703 672.676147,239.260559 672.940247,232.334930 
	C673.371826,221.017654 672.911316,209.667938 673.256470,198.344986 
	C673.391418,193.916977 671.432861,193.504562 668.141296,194.400223 
	C662.617737,195.903259 657.099854,197.447723 651.840942,200.542694 
	C650.429504,196.030212 654.329529,195.881012 656.084167,193.268066 
	C615.396667,193.268066 575.191284,193.268066 534.520386,193.268066 
	C533.723389,197.405685 534.252747,201.858444 534.544006,206.257889 
	C535.181335,215.886139 536.060486,225.498169 536.791504,235.120590 
	C536.941589,237.096390 537.267090,239.464890 534.661194,240.054947 
	C532.130127,240.628098 532.015625,238.146332 531.356445,236.773346 
	C484.644257,236.773346 438.065002,236.773346 390.779755,236.773346 
	C392.013336,240.117783 393.849609,242.567459 395.773956,244.956863 
	C397.758301,247.420776 399.845947,249.803238 401.782227,252.303528 
	C403.183990,254.113541 405.244537,256.212341 402.550568,258.284119 
	C400.077850,260.185699 398.676270,257.744507 397.315338,256.134308 
	C395.191956,253.622040 393.148529,251.042206 390.187042,247.405090 
	C390.187042,252.529160 390.221130,256.448456 390.181732,260.367004 
	C389.828156,295.524750 389.504730,330.682922 389.036896,365.839172 
	C388.986389,369.633850 389.495758,372.299866 393.493927,374.031006 
	C396.824280,375.472961 400.002472,377.899963 398.215332,382.598846 
	C396.449432,387.241821 389.929321,391.468109 385.081543,390.984100 
	C382.565735,390.732971 380.212067,389.901825 378.122406,388.415405 
	C373.046967,384.805176 372.564972,380.106445 377.662598,376.678314 
	C382.202759,373.625061 383.010773,369.845673 383.035583,364.849121 
	C383.190094,333.695557 383.610962,302.543304 383.931488,271.390472 
	C383.983887,266.296234 385.169373,261.237885 384.440857,255.471069 
	C383.912415,256.562775 383.601776,257.098480 383.385986,257.670044 
	C382.715607,259.445618 381.548645,260.689240 379.621033,259.830475 
	C377.801056,259.019653 377.737701,257.302002 378.348053,255.529449 
	C380.400757,249.568130 382.423431,243.596436 384.450195,237.650467 
	C382.764465,235.713470 380.619873,236.439377 378.734741,236.431992 
	C359.068634,236.354965 339.401367,236.256546 319.736450,236.413742 
	C315.130188,236.450546 313.228119,235.521866 313.689423,230.264999 
	C314.313171,223.156677 313.640259,215.943634 313.796631,208.781494 
	C313.876190,205.139709 312.262024,204.310150 308.963806,204.323410 
	C280.301636,204.438690 251.638672,204.366150 222.976501,204.483139 
	C201.822495,204.569489 180.669174,204.844437 159.515945,205.071579 
	C157.551270,205.092667 155.521484,204.729553 153.287994,205.788269 
	C151.741028,251.320480 152.463684,296.983582 152.015244,342.936005 
	C154.991043,342.203003 155.461044,340.202637 156.597427,338.868591 
	C158.083405,337.124146 159.438446,334.393066 162.123871,336.398499 
	C164.559433,338.217285 162.389130,340.218475 161.364426,342.049408 
	C159.702438,345.019043 156.362244,347.042389 156.213150,350.973175 
	C157.996765,352.547424 160.076126,351.865143 161.955826,351.827148 
	C184.271988,351.375671 206.588074,350.901093 228.900360,350.293152 
	C232.803833,350.186737 234.188309,351.625427 234.210526,355.513214 
	C234.296158,370.506653 234.594696,385.494110 235.123169,400.486115 
	C236.114899,428.619904 236.507797,456.774719 237.185623,484.919922 
	C237.229187,486.728607 237.271469,488.635651 237.847168,490.314178 
	C239.383972,494.795044 238.881577,495.839630 234.021729,495.841309 
	C227.205811,495.843689 220.390320,495.443298 213.573730,495.411774 
	C170.581863,495.212982 127.589737,495.068542 84.112862,494.901245 
M229.809357,397.500183 
	C229.484680,385.183258 228.998306,372.867279 228.924164,360.548828 
	C228.898666,356.312256 227.421738,355.149200 223.339813,355.339966 
	C208.042511,356.054779 192.735153,356.633453 177.425186,356.983002 
	C138.633209,357.868652 99.837219,358.577454 61.044510,359.432953 
	C56.733940,359.527985 52.219364,359.434906 48.204285,360.707031 
	C45.489849,361.567017 43.787971,361.973083 40.978310,360.761078 
	C33.588703,357.573456 29.320614,360.573242 29.409182,368.360962 
	C29.505749,376.851868 29.903208,385.340332 29.937769,393.830811 
	C30.058466,423.481689 30.073050,453.132935 30.142313,482.784058 
	C30.158102,489.542786 30.184462,489.575897 37.069237,489.605164 
	C100.193878,489.873352 163.322037,489.583954 226.440414,490.711029 
	C231.084915,490.793945 232.018097,489.060638 231.902527,484.890747 
	C231.104523,456.096436 230.489883,427.297028 229.809357,397.500183 
M528.447266,191.948151 
	C527.519958,178.174942 526.429016,164.409592 525.765503,150.623688 
	C525.567322,146.505676 524.228088,145.197830 520.140381,145.205002 
	C454.491028,145.320343 388.841431,145.331985 323.191986,145.272614 
	C319.576782,145.269348 318.156921,146.329514 318.204895,150.103378 
	C318.391296,164.764160 318.352722,179.428131 318.338440,194.090866 
	C318.336029,196.549652 318.469666,198.608643 321.282318,199.715042 
	C323.441132,200.564240 324.066681,202.700455 321.773010,203.804428 
	C318.770905,205.249390 318.910522,207.506470 318.966461,210.027710 
	C319.073700,214.858307 319.173615,219.689270 319.237000,224.520599 
	C319.330811,231.674332 319.316132,231.676926 326.279907,231.680618 
	C393.429321,231.716324 460.578735,231.751602 527.728149,231.781677 
	C528.699768,231.782104 529.747192,232.062241 530.825378,230.847916 
	C531.053040,218.346344 528.911194,205.651749 528.447266,191.948151 
M873.315613,35.025928 
	C847.329163,35.039890 821.342651,35.038815 795.356201,35.077251 
	C787.847778,35.088356 787.475037,35.372601 787.380981,42.972713 
	C787.191406,58.291893 787.318420,73.610863 786.415833,88.921608 
	C785.994873,96.061729 786.308899,103.243973 786.237244,110.406593 
	C786.213257,112.805962 786.388855,114.573105 789.660828,114.477737 
	C813.626343,113.779221 837.596375,113.232681 861.563904,112.601021 
	C867.218201,112.451996 872.867126,112.083252 878.521667,111.968819 
	C881.342957,111.911720 882.930786,111.053452 882.713989,107.890678 
	C882.429688,103.744141 882.632812,99.549583 882.133850,95.435410 
	C881.096313,86.880539 881.240784,78.234947 880.589661,69.667320 
	C879.856995,60.026783 880.570618,50.139904 879.961609,40.342224 
	C879.706726,36.242096 878.282837,34.523113 873.315613,35.025928 
M273.134949,66.298828 
	C269.034393,67.896561 265.471100,71.126030 260.591736,70.414909 
	C260.341980,70.378510 259.994324,71.014091 259.194153,71.868988 
	C265.729889,72.215729 271.664276,73.510597 278.191803,71.501999 
	C276.091705,69.633087 274.248352,68.701355 273.134949,66.298828 
M381.385376,381.023285 
	C379.489044,384.072662 382.348999,384.367706 383.917969,384.939423 
	C387.416656,386.214386 389.781647,384.347809 391.956696,381.671936 
	C390.575256,380.802032 389.381256,379.240051 388.252380,380.528564 
	C386.078491,383.009857 384.061707,381.388855 381.385376,381.023285 
M585.879639,169.377533 
	C587.939392,166.726913 587.854126,164.700760 584.195190,163.406982 
	C583.412537,164.724976 582.743835,165.840195 582.086060,166.961823 
	C581.383911,168.159042 580.798096,169.564651 581.930542,170.615265 
	C583.199463,171.792435 584.346619,170.558975 585.879639,169.377533 
M249.305008,68.766342 
	C247.033981,75.009674 251.715118,70.937721 253.636642,71.284637 
	C252.845642,69.688774 252.054626,68.092911 251.134171,66.235855 
	C250.385757,67.237610 249.992249,67.764351 249.305008,68.766342 
z"/>
<path fill="#000000" opacity="1.000000" stroke="none" 
	d="
M910.685425,271.791107 
	C912.266113,261.591492 911.580933,251.751099 911.963867,241.953064 
	C912.162109,236.879028 910.776794,233.183578 906.940247,229.737244 
	C902.106140,225.394913 897.582153,220.727768 891.942017,217.390900 
	C890.561218,216.573975 889.281921,215.342148 887.025208,215.762146 
	C887.937012,228.334595 889.527954,240.853058 889.566162,253.469070 
	C889.582336,258.825256 889.745972,264.263397 887.780212,269.242126 
	C884.828247,276.719055 887.697388,283.483002 889.394958,290.678406 
	C893.968018,284.396606 899.387512,278.962006 902.814575,272.070770 
	C903.850891,269.986847 904.866333,267.173431 907.828003,268.884460 
	C910.449280,270.398865 909.436646,273.105621 908.111755,275.058411 
	C904.095093,280.978638 899.883118,286.766785 895.720764,292.587494 
	C893.687073,295.431458 891.468750,298.157410 890.341370,301.543243 
	C889.888611,302.902863 889.100647,304.040039 887.551392,303.959290 
	C885.756104,303.865723 885.115112,302.506561 884.822510,300.904968 
	C884.135254,297.143188 883.534180,293.359131 882.659973,289.640106 
	C881.945557,286.600708 882.413635,282.936798 878.087952,281.666168 
	C876.480835,281.194122 876.826843,279.154480 877.760193,277.764709 
	C885.731445,265.895203 884.170105,252.604523 883.247070,239.504776 
	C882.616577,230.558441 882.449768,221.529190 880.248047,212.749756 
	C879.868469,211.236313 880.244934,209.817108 881.629395,209.416702 
	C884.472290,208.594528 887.437317,207.927979 890.279724,209.613159 
	C896.749084,213.448578 903.065979,217.545456 908.076477,223.217209 
	C911.034790,226.565979 913.891968,227.325058 918.149048,225.599960 
	C923.347107,223.493546 929.230896,224.521439 934.692932,222.460892 
	C937.434998,221.426407 937.998596,224.807571 937.270325,227.365265 
	C935.741150,232.735397 936.478271,238.147186 936.435791,243.681946 
	C939.069946,243.608032 940.837341,242.678802 942.255432,241.298264 
	C943.654846,239.935822 945.114502,238.297455 946.753967,240.332626 
	C948.472717,242.466125 947.262512,244.365326 945.113953,245.670380 
	C944.137756,246.263321 943.180847,246.888000 940.801880,248.391571 
	C947.909119,248.773712 953.555969,249.276886 959.206604,249.324036 
	C964.665588,249.369583 970.127075,248.877304 975.590393,248.767487 
	C977.278687,248.733566 979.746826,248.157104 979.935791,250.800919 
	C980.122375,253.412842 977.681885,253.169571 975.948730,253.477463 
	C969.879761,254.555634 963.800659,255.488068 957.597290,255.207901 
	C955.327759,255.105392 953.001343,254.661514 952.211670,258.030212 
	C951.704773,260.192230 949.691833,260.448059 947.733093,259.441406 
	C944.343018,257.699188 940.963379,255.936569 937.245056,254.009232 
	C935.488525,257.843018 934.638184,261.840393 935.575378,265.898346 
	C936.739990,270.940887 935.294800,273.718109 930.191772,272.966705 
	C925.247498,272.238647 921.334778,272.665070 917.140076,275.594543 
	C914.264282,277.602844 911.319458,276.327606 910.685425,271.791107 
M921.908081,266.809021 
	C924.592834,266.283417 927.983398,267.774719 929.100525,263.351013 
	C931.874634,252.365646 930.322510,241.317764 930.794006,229.947662 
	C926.253174,230.361526 922.220581,229.102966 918.817444,231.962311 
	C919.528198,234.254532 921.451294,235.233292 922.589661,236.836487 
	C925.540771,240.992844 923.713074,242.923172 918.008545,241.558762 
	C917.799194,248.871628 918.347778,256.190704 917.390869,263.469269 
	C917.027283,266.234497 917.532471,268.296753 921.908081,266.809021 
z"/>
<path fill="#000000" opacity="1.000000" stroke="none" 
	d="
M346.216919,419.217651 
	C346.604767,425.550110 349.693695,429.641754 355.325562,432.274536 
	C356.249756,430.188995 356.161072,425.737579 360.303619,427.104309 
	C364.368103,428.445312 363.158508,432.411469 363.011902,435.800873 
	C365.216766,434.213501 364.542389,431.911041 364.685608,429.885468 
	C364.822418,427.950867 364.171692,425.525909 366.881012,424.992249 
	C369.645233,424.447784 370.087555,426.753174 370.517334,428.727936 
	C371.304871,432.346130 373.489594,434.589478 377.020386,435.569000 
	C379.146729,436.158875 381.789978,436.759003 380.980286,439.597778 
	C380.040741,442.892029 377.024841,441.696411 375.108582,440.844391 
	C371.824371,439.384155 369.749390,439.789764 366.830383,442.244720 
	C362.976410,445.486023 360.008850,441.197479 356.968231,439.128448 
	C352.007629,447.200562 345.479980,452.352936 335.743225,452.976624 
	C332.794769,453.165527 330.857452,452.779053 329.675385,450.100159 
	C326.057953,441.901886 324.471313,433.297791 324.963928,424.367737 
	C325.112061,421.682220 326.410278,419.179932 328.038727,417.077545 
	C333.090454,410.555756 342.659760,410.138306 346.216919,419.217651 
M335.538849,440.152924 
	C336.435883,441.684509 335.757507,443.821472 337.393738,445.146118 
	C339.283356,444.515045 341.013824,443.952881 343.123962,444.028534 
	C346.599335,444.153198 348.774780,441.439301 350.128906,438.549286 
	C351.061310,436.559387 349.392029,435.138977 347.800873,434.145569 
	C344.932281,432.354523 336.577515,435.951141 335.538849,440.152924 
M333.333801,421.087524 
	C333.806244,423.279633 331.846680,426.578156 335.235016,427.368988 
	C337.193573,427.826141 340.224457,427.810516 341.358917,425.356354 
	C342.437439,423.023346 341.188629,420.689697 339.302979,419.199127 
	C337.174683,417.516846 335.002106,417.742767 333.333801,421.087524 
z"/>
<path fill="#000000" opacity="1.000000" stroke="none" 
	d="
M389.986603,396.803558 
	C392.072052,397.167297 393.307159,398.231140 393.217926,399.857635 
	C392.940887,404.907318 395.500793,405.304474 399.470581,404.171387 
	C401.000397,403.734772 402.533722,404.344299 403.023590,406.091370 
	C403.525879,407.882660 402.263916,408.753510 400.933136,409.613861 
	C398.715607,411.047455 393.765411,409.203094 394.454010,413.967865 
	C395.268311,419.602173 396.670410,425.323944 403.332001,429.088287 
	C402.355164,423.798187 402.560333,419.703217 405.723785,416.156189 
	C407.791077,413.838257 409.718872,412.193054 412.977020,413.644196 
	C417.198608,415.524445 420.362427,418.220734 420.482849,423.240906 
	C420.569275,426.845154 418.781219,429.422455 415.370575,430.356110 
	C411.918335,431.301178 408.546600,431.663055 405.545074,434.344238 
	C403.269867,436.376556 400.149445,434.261627 397.813232,432.661072 
	C393.604248,429.777496 391.742920,425.282806 390.088654,420.708160 
	C389.528748,419.159790 389.438812,417.428802 388.253723,416.132690 
	C380.804230,416.460510 379.312897,418.426453 381.825195,425.189423 
	C383.114288,428.659698 383.910553,432.699158 388.795715,433.373627 
	C390.260284,433.575806 390.655914,435.209869 390.195099,436.643311 
	C389.528839,438.715790 387.910645,439.494598 385.886536,439.129364 
	C382.641693,438.543884 380.863861,436.088196 379.258301,433.504791 
	C376.950684,429.791656 376.150269,425.477814 374.640717,421.450897 
	C372.023376,420.455597 369.699188,422.513794 367.217621,421.844391 
	C365.242218,421.311493 363.006317,420.891418 363.195465,418.279205 
	C363.366516,415.917053 365.394409,415.775604 367.328094,415.667389 
	C373.753876,415.307739 373.746033,415.200226 372.981201,409.061981 
	C372.689331,406.719391 371.694702,403.456299 375.315399,403.036865 
	C378.245087,402.697388 378.769379,405.567993 379.208252,407.914642 
	C379.414948,409.019958 379.040619,410.284790 380.463470,411.479218 
	C384.010162,410.056915 386.656677,407.937836 386.685028,403.442444 
	C386.701172,400.882721 386.023621,397.895264 389.986603,396.803558 
z"/>
<path fill="#000000" opacity="1.000000" stroke="none" 
	d="
M568.555908,49.581314 
	C564.988892,48.166855 561.917603,46.509914 561.844910,42.598881 
	C561.774902,38.831402 564.521667,36.712048 567.566833,35.079025 
	C569.030029,34.294399 570.500244,33.462795 572.063110,32.938240 
	C574.423584,32.146015 577.034180,31.184013 579.185059,33.112411 
	C581.503357,35.190956 580.067505,37.712730 579.397034,40.084232 
	C579.032349,41.373837 578.905518,42.923401 577.184998,42.946869 
	C575.268005,42.973015 574.786926,41.533821 574.663147,39.885986 
	C574.618408,39.290596 574.357910,38.711418 574.167603,38.022591 
	C571.198486,38.323689 569.468201,39.888157 567.740662,42.384869 
	C572.915894,44.801357 577.729309,47.292477 582.746094,49.266670 
	C584.645203,50.013988 586.832031,48.958309 587.509155,46.704803 
	C588.364868,43.857300 590.039429,41.088520 589.654358,38.054714 
	C589.014038,33.009827 592.470215,30.966848 595.908630,29.021683 
	C598.613464,27.491505 599.617432,29.645218 599.772095,31.765438 
	C600.049866,35.572956 599.908325,39.409294 600.036926,43.230389 
	C600.085449,44.671349 599.673767,46.594879 601.319153,47.264004 
	C608.013916,49.986519 603.235718,52.095810 601.026428,54.320934 
	C600.439514,56.920052 605.737061,60.287098 600.812134,61.854473 
	C595.994873,63.387581 595.920959,58.148506 594.098145,54.993530 
	C591.233337,56.636539 588.546814,62.141476 584.911865,56.009224 
	C581.159546,59.719322 576.751770,61.332897 571.723572,61.275391 
	C568.984680,61.244076 566.441284,60.537937 566.842957,57.133438 
	C567.210876,54.015289 569.224915,53.563255 571.955566,54.860664 
	C573.406494,55.550003 574.851257,55.092598 576.111877,53.534012 
	C574.295959,51.107479 571.394958,50.774704 568.555908,49.581314 
z"/>
<path fill="#000000" opacity="1.000000" stroke="none" 
	d="
M250.096497,307.246399 
	C248.184174,311.932800 250.325729,315.705994 251.737793,319.566437 
	C252.536011,321.748718 253.544540,323.853180 254.414017,326.010529 
	C255.714172,329.236542 255.742584,332.343445 252.602661,334.491058 
	C250.054184,336.234131 247.002701,337.376892 244.249954,335.204468 
	C241.257812,332.843109 240.705185,329.303497 241.216537,325.669647 
	C241.443649,324.055695 242.389923,322.883179 244.218811,322.915741 
	C245.878830,322.945282 246.398834,324.183289 246.784912,325.525085 
	C247.220047,327.037384 246.383026,328.934082 248.128235,330.084290 
	C249.487228,327.193237 243.207336,310.070343 239.878433,307.969727 
	C237.092850,310.362366 234.049316,312.513275 230.315323,309.502960 
	C227.694916,307.390411 227.009277,301.161652 228.917694,297.333862 
	C229.725769,295.713135 230.887848,294.463531 232.833099,295.107788 
	C234.957397,295.811432 235.385635,297.466705 234.761093,299.539856 
	C234.243912,301.256653 232.180923,303.453796 235.309875,304.481171 
	C238.288681,305.459167 238.604736,302.932678 239.368759,300.819641 
	C240.610870,297.384430 241.934525,293.678436 246.778625,294.192017 
	C253.981934,294.955688 255.165527,299.271179 250.096497,307.246399 
z"/>
<path fill="#000000" opacity="1.000000" stroke="none" 
	d="
M740.796997,189.916107 
	C741.158142,187.872330 741.589355,186.252762 741.675232,184.615082 
	C741.872559,180.852066 743.058899,178.012466 746.939026,176.482025 
	C750.881226,174.927139 754.240234,175.844360 757.075806,178.405731 
	C761.510437,182.411575 764.278870,187.546936 765.114502,193.483047 
	C765.716797,197.761734 764.069214,201.415405 760.339478,203.700699 
	C755.280212,206.800568 749.548889,207.825928 743.726868,208.261276 
	C740.469543,208.504868 738.922607,206.844055 738.719849,203.536499 
	C738.439636,198.964798 739.533691,194.654984 740.796997,189.916107 
M757.710388,198.325790 
	C760.295532,193.888290 758.624817,187.820068 753.755249,183.462875 
	C751.185364,181.163406 749.420898,181.411926 748.269592,184.761887 
	C746.369934,190.289429 746.583252,196.104355 745.499084,202.158386 
	C749.957581,201.892441 753.667419,200.796997 757.710388,198.325790 
z"/>
<path fill="#000000" opacity="1.000000" stroke="none" 
	d="
M211.892761,69.465744 
	C207.312225,66.020424 208.692062,61.903786 209.817337,57.878658 
	C211.263306,52.706387 214.810501,48.355282 214.682602,42.401466 
	C214.637604,40.307011 218.963257,35.207363 220.236649,35.938583 
	C224.422119,38.341984 228.503952,36.825539 232.482391,37.542992 
	C234.836029,37.967434 234.898773,40.754913 232.553085,42.020538 
	C230.709656,43.015171 228.469666,43.537407 226.358170,43.720863 
	C221.076447,44.179760 219.844879,47.845566 218.747528,51.913105 
	C220.646027,53.017754 222.057251,51.965755 223.503021,51.972752 
	C225.139984,51.980679 226.543335,52.433315 226.973892,54.161438 
	C227.431458,55.997910 226.145294,56.758900 224.715240,57.503876 
	C222.694473,58.556576 220.500366,58.295521 218.388229,58.639896 
	C216.370316,58.968910 215.081802,60.050823 214.728790,62.143982 
	C214.574631,63.058147 214.740845,63.889500 215.588150,64.261139 
	C217.424240,65.066452 218.785767,63.903973 220.068710,62.871262 
	C221.489471,61.727623 222.742157,60.374718 224.166565,59.236214 
	C225.409821,58.242504 226.841629,57.734241 228.193130,59.076855 
	C229.518097,60.393139 229.231110,61.945892 228.152634,63.118740 
	C224.219757,67.395706 219.423935,72.228653 211.892761,69.465744 
z"/>
<path fill="#000000" opacity="1.000000" stroke="none" 
	d="
M249.014999,179.358078 
	C250.435104,176.681259 251.633652,174.308929 253.071182,172.091553 
	C259.922546,161.523544 267.543213,164.055573 274.993561,171.844330 
	C280.762451,177.875229 275.731506,189.392624 266.667816,192.345093 
	C263.757324,193.293167 260.778900,193.401093 257.802399,192.922546 
	C249.687866,191.617905 247.146240,187.803101 249.014999,179.358078 
M257.385559,175.153229 
	C252.139877,184.049805 253.515152,187.283661 262.636261,187.499863 
	C266.232513,187.585114 271.691498,183.213623 272.494110,179.449905 
	C273.293365,175.701736 271.252258,173.559250 267.841675,171.867615 
	C266.221008,174.846558 264.188293,175.365067 261.446472,173.245331 
	C259.961609,172.097366 258.638214,173.130508 257.385559,175.153229 
z"/>
<path fill="#000000" opacity="1.000000" stroke="none" 
	d="
M199.383636,177.694107 
	C200.480255,177.708069 201.145782,177.713776 201.809280,177.753632 
	C205.634979,177.983322 209.913773,177.735153 210.889618,182.742661 
	C211.569275,186.230301 206.295425,191.433716 201.899628,192.108963 
	C191.828857,193.655960 185.636032,186.568329 188.651581,176.937775 
	C190.505524,171.016922 194.107880,166.320374 199.010223,162.640503 
	C202.064331,160.348022 205.437973,159.819077 208.691238,162.238831 
	C210.357559,163.478226 210.747589,165.305405 209.355164,167.050842 
	C208.082336,168.646332 206.781815,168.179047 205.689316,166.721420 
	C204.594269,165.260422 203.377151,165.631317 202.262711,166.583527 
	C198.529648,169.773148 195.441986,173.443192 194.522644,178.439758 
	C194.077698,180.858078 193.356674,183.647385 196.265045,185.072083 
	C198.823288,186.325302 201.605927,187.177444 204.354141,184.021301 
	C202.275589,183.599426 200.433929,183.366394 198.688019,182.824722 
	C197.396240,182.423920 196.282974,181.473328 196.247955,179.970825 
	C196.207565,178.238129 197.538834,177.854721 199.383636,177.694107 
z"/>
<path fill="#000000" opacity="1.000000" stroke="none" 
	d="
M290.467102,290.441711 
	C294.105896,293.130463 296.800781,296.110809 297.353790,300.479950 
	C297.499542,301.631592 297.424072,302.921021 298.740173,303.435425 
	C300.491333,304.119843 301.761383,305.101349 300.902863,307.131226 
	C300.166046,308.873413 298.505707,309.272675 296.754242,309.273254 
	C294.568604,309.273987 292.705688,308.516388 292.133301,306.286835 
	C291.653320,304.417236 291.663788,302.421722 291.406403,300.005981 
	C288.168427,301.920593 286.486755,304.784546 284.360077,307.192932 
	C282.481812,309.319977 280.243652,310.876923 277.395477,309.396454 
	C273.359985,307.298859 271.393616,303.570068 271.428925,299.199005 
	C271.453186,296.197815 273.538513,293.991913 276.509674,293.104736 
	C280.436493,291.932190 282.652313,294.193909 282.815643,299.909973 
	C284.240875,298.378632 285.788574,297.368652 285.215302,295.314392 
	C283.933624,290.721436 286.644989,290.209839 290.467102,290.441711 
z"/>
<path fill="#000000" opacity="1.000000" stroke="none" 
	d="
M259.865479,308.429688 
	C256.120270,306.379272 254.160141,303.642944 255.089600,299.691498 
	C255.985229,295.883728 258.827209,294.102478 262.597473,293.414764 
	C266.720673,292.662720 268.988342,295.115326 267.953278,298.293549 
	C265.155762,306.883179 267.636383,315.401550 267.182556,323.916412 
	C267.103729,325.395325 266.743073,326.858490 266.526367,328.330963 
	C266.164978,330.786163 265.390381,333.124084 262.441193,333.060669 
	C259.460175,332.996521 257.983551,330.715698 257.821838,328.083618 
	C257.618713,324.777161 256.985382,321.601074 260.241791,318.556915 
	C262.788055,316.176575 260.819824,312.034698 259.865479,308.429688 
z"/>
<path fill="#000000" opacity="1.000000" stroke="none" 
	d="
M220.574814,187.607147 
	C220.417221,188.996246 220.382736,189.991989 220.262115,190.977203 
	C220.056671,192.655273 219.192810,193.851776 217.399475,193.749237 
	C215.905396,193.663834 215.057159,192.546768 214.826492,191.119232 
	C213.420151,182.415894 214.325348,173.912323 217.755615,165.824127 
	C219.360031,162.041092 223.673218,160.786179 226.946762,162.503906 
	C232.239746,165.281296 234.569092,170.534653 232.280014,174.700027 
	C230.637695,177.688492 228.261810,180.136261 225.118790,181.326920 
	C222.186874,182.437576 221.021957,184.397659 220.574814,187.607147 
M224.114212,174.928345 
	C229.062042,171.550293 229.050903,169.960785 223.799622,166.936264 
	C222.359344,169.586151 220.842911,172.100235 224.114212,174.928345 
z"/>
<path fill="#000000" opacity="1.000000" stroke="none" 
	d="
M559.739258,166.133850 
	C558.411682,167.226654 556.791321,167.764267 556.995056,170.084198 
	C560.540466,170.958618 564.213013,171.814621 567.856689,172.779480 
	C570.567932,173.497421 572.919495,174.857620 573.272461,177.924713 
	C573.635864,181.082443 571.351562,182.736557 568.942627,184.002914 
	C567.341370,184.844696 565.577881,185.436584 563.825867,185.917175 
	C561.966553,186.427200 560.147217,186.213928 558.913025,184.465485 
	C558.082947,183.289520 557.930542,181.983902 558.708130,180.712708 
	C559.747192,179.013947 561.269714,178.824295 563.051025,179.377640 
	C563.687866,179.575470 564.357727,179.465775 564.799561,178.335556 
	C562.472351,176.705704 559.616577,176.807816 556.978271,176.187500 
	C554.361877,175.572327 551.672852,174.816101 550.741943,171.861206 
	C549.742004,168.687134 551.504028,166.350571 553.684265,164.438416 
	C555.544312,162.807114 557.591125,161.327179 559.738892,160.102203 
	C561.981140,158.823364 564.669495,157.981247 566.393799,160.704880 
	C567.777100,162.889862 566.670105,165.374878 565.280396,167.181335 
	C563.005981,170.137863 561.984192,165.570526 559.739258,166.133850 
z"/>
<path fill="#000000" opacity="1.000000" stroke="none" 
	d="
M728.211914,183.871613 
	C728.105652,184.790253 728.102112,185.310760 727.931885,185.769394 
	C727.116150,187.967163 727.216614,191.534592 723.728882,190.783813 
	C720.154968,190.014511 721.926331,186.888184 722.330627,184.146652 
	C719.692749,186.549408 718.317871,189.318832 716.928650,192.009720 
	C713.996399,197.689346 714.992615,199.663757 721.216980,201.012650 
	C722.184631,201.222351 723.183655,201.520279 724.148926,201.461487 
	C726.494019,201.318649 729.889709,199.769989 729.903809,203.677948 
	C729.916565,207.218307 726.297607,207.001465 723.709106,207.006424 
	C711.036560,207.030685 706.482239,199.541885 712.291565,188.309296 
	C713.821777,185.350510 715.747620,182.657684 717.903198,180.095291 
	C719.887817,177.736145 722.316711,177.159317 725.057556,177.892136 
	C727.819031,178.630493 728.221191,180.991104 728.211914,183.871613 
z"/>
<path fill="#000000" opacity="1.000000" stroke="none" 
	d="
M202.832367,305.744873 
	C202.795410,299.452423 202.761017,293.631775 202.723663,287.811157 
	C202.706512,285.140289 201.983414,283.410980 198.860870,284.969818 
	C197.110428,285.843658 195.639816,285.601166 194.552582,283.899384 
	C193.658142,282.499359 192.588760,281.066956 193.622849,279.323914 
	C194.644287,277.602234 196.416016,277.448090 198.039612,277.951416 
	C202.884872,279.453552 207.613358,277.410919 212.405457,277.682098 
	C214.255585,277.786804 216.427872,277.595306 216.646545,280.054840 
	C216.855789,282.408356 214.849289,283.215271 212.974823,283.188904 
	C208.692062,283.128723 208.218414,285.628632 208.313751,289.050018 
	C208.471207,294.700165 208.444824,300.359375 208.326904,306.011261 
	C208.282013,308.163574 209.269379,311.493744 206.063065,311.744080 
	C202.493881,312.022766 203.038361,308.613647 202.832367,305.744873 
z"/>
<path fill="#000000" opacity="1.000000" stroke="none" 
	d="
M449.053650,419.470703 
	C450.276672,415.157013 446.672821,416.935577 445.349579,416.598511 
	C442.053131,415.758850 439.157196,414.794861 438.794189,410.936951 
	C438.420654,406.967194 440.502686,404.298706 444.032745,402.764679 
	C448.509552,400.819275 451.800049,402.594940 452.002350,407.458710 
	C452.107635,409.990295 452.690765,411.170410 455.106140,412.154083 
	C458.136810,413.388306 458.252808,416.181580 457.050446,418.904480 
	C456.020477,421.237000 454.214508,423.031219 452.067688,424.326843 
	C450.052643,425.542969 447.585327,427.850983 445.635101,424.742371 
	C443.699585,421.657166 447.306610,421.122894 449.053650,419.470703 
z"/>
<path fill="#000000" opacity="1.000000" stroke="none" 
	d="
M435.998840,417.018005 
	C436.721863,418.367615 437.222229,419.425751 437.919983,420.331970 
	C439.125092,421.897034 440.058228,423.535278 438.297882,425.145996 
	C436.407959,426.875183 434.980682,425.372925 433.653473,424.060974 
	C433.087250,423.501282 432.558655,422.903473 432.012115,422.322083 
	C431.590210,422.671753 431.261627,422.817413 431.140289,423.064758 
	C430.183502,425.014679 430.934998,428.313354 427.837891,428.560089 
	C424.472717,428.828247 424.598480,425.398407 423.488861,423.348236 
	C422.389984,421.317932 421.291412,419.287323 420.212830,417.246216 
	C418.985535,414.923859 418.159698,412.363495 420.475189,410.445709 
	C422.852112,408.477020 424.100891,411.442139 425.825989,412.437561 
	C427.252563,410.660614 427.822205,407.803253 430.782745,408.180725 
	C433.728058,408.556244 433.824402,411.294250 434.600494,413.414398 
	C434.999329,414.503967 435.442108,415.577454 435.998840,417.018005 
z"/>
<path fill="#000000" opacity="1.000000" stroke="none" 
	d="
M693.960449,209.018433 
	C686.967957,210.599350 685.068787,208.714233 687.195557,202.376755 
	C689.562500,195.323486 692.638489,188.498886 693.436401,180.982849 
	C693.638977,179.074463 694.372864,177.225861 696.764709,177.468918 
	C699.583008,177.755325 699.441223,180.064056 699.264587,182.039810 
	C698.817627,187.040634 696.954346,191.683685 695.407227,196.404770 
	C694.803589,198.246674 693.577515,199.948303 693.956360,202.091446 
	C696.169922,203.420181 698.143982,201.790344 700.208374,201.658371 
	C701.861877,201.552689 703.261292,201.887039 703.753296,203.632095 
	C704.276001,205.486496 703.024231,206.473129 701.538208,206.957108 
	C699.179016,207.725418 696.746216,208.267593 693.960449,209.018433 
z"/>
<path fill="#000000" opacity="1.000000" stroke="none" 
	d="
M301.841919,300.060608 
	C302.626495,296.113495 305.245209,294.077179 308.060638,292.240631 
	C309.942657,291.012970 312.209015,289.801331 313.635925,292.425751 
	C315.049194,295.025085 314.065918,297.265289 311.038849,298.200317 
	C310.254150,298.442688 309.382202,298.457825 309.082245,299.763214 
	C309.484406,300.061676 309.932129,300.545868 310.485626,300.779205 
	C313.341797,301.983582 316.346527,303.356781 315.701538,307.066833 
	C315.036804,310.890625 311.358002,311.243591 308.351624,312.005219 
	C306.288422,312.527924 304.179291,312.216431 303.444824,309.822937 
	C302.568085,306.965820 305.085297,306.765472 307.114594,306.012390 
	C305.023254,304.286621 302.031952,303.615326 301.841919,300.060608 
z"/>
<path fill="#000000" opacity="1.000000" stroke="none" 
	d="
M223.838837,294.116821 
	C225.597305,296.490112 225.742279,299.039856 226.520752,301.371826 
	C227.932983,305.602173 226.301636,306.978058 221.985107,305.966797 
	C221.713882,307.229065 221.566391,308.521362 221.144348,309.716705 
	C220.681763,311.026825 219.684464,311.970581 218.225250,312.071350 
	C216.657196,312.179596 215.676529,311.109955 215.332672,309.807129 
	C214.324646,305.987854 213.183411,302.155487 212.725159,298.254150 
	C212.335495,294.936768 218.987366,292.352478 223.838837,294.116821 
z"/>
<path fill="#000000" opacity="1.000000" stroke="none" 
	d="
M854.485840,289.465942 
	C856.129150,287.352448 857.573669,285.534790 858.950378,283.667084 
	C860.040833,282.187561 861.396118,281.131683 863.144470,282.219940 
	C864.906250,283.316589 864.458740,285.141907 863.721863,286.676056 
	C863.154907,287.856476 862.362915,288.980713 861.470398,289.944183 
	C856.960754,294.812103 852.427185,299.659790 847.803406,304.418793 
	C846.674255,305.580933 845.122131,306.856873 843.474426,305.287048 
	C841.790955,303.683105 842.465454,301.965637 843.881409,300.489594 
	C847.329041,296.895752 850.797607,293.322083 854.485840,289.465942 
z"/>
<path fill="#000000" opacity="1.000000" stroke="none" 
	d="
M242.867813,193.073074 
	C239.651932,193.074387 238.651459,191.111755 238.658905,188.816223 
	C238.680481,182.164719 238.847137,175.508179 239.206970,168.867172 
	C239.297211,167.201492 239.650116,164.787430 242.190826,165.015060 
	C244.676651,165.237793 244.723114,167.621262 244.523621,169.312790 
	C243.699585,176.300140 243.685898,183.233841 244.924683,190.171463 
	C245.153839,191.454865 244.392014,192.379898 242.867813,193.073074 
z"/>
<path fill="#000000" opacity="1.000000" stroke="none" 
	d="
M615.778687,60.339142 
	C611.739563,60.057537 610.852966,57.301975 610.785217,54.399494 
	C610.650024,48.601181 610.836609,42.793774 610.966797,36.991837 
	C611.005127,35.284397 611.399536,33.319580 613.516663,33.396770 
	C615.572327,33.471725 615.923035,35.499813 615.990540,37.159458 
	C616.131836,40.636929 616.002930,44.124989 616.126099,47.603710 
	C616.230103,50.543079 615.813599,53.543110 617.625854,56.274384 
	C618.751099,57.970341 617.978516,59.434193 615.778687,60.339142 
z"/>
<path fill="#000000" opacity="1.000000" stroke="none" 
	d="
M839.876953,242.085892 
	C837.640991,242.254303 835.805481,242.297928 834.043640,242.680511 
	C832.314575,243.055984 831.012817,242.672791 830.357422,241.082138 
	C829.644043,239.350739 830.847656,238.177460 832.121277,237.396667 
	C834.800049,235.754562 837.829224,235.884827 840.818726,236.128113 
	C844.506653,236.428238 847.865417,237.944977 851.283325,239.177887 
	C853.039429,239.811325 854.802246,240.938751 853.962158,243.212433 
	C853.136963,245.446060 851.304321,245.183228 849.383057,244.521057 
	C846.422729,243.500763 843.560974,242.052444 839.876953,242.085892 
z"/>
<path fill="#000000" opacity="1.000000" stroke="none" 
	d="
M601.310181,183.893982 
	C598.552979,182.476868 597.995239,180.209244 597.986206,177.824768 
	C597.965393,172.305389 598.748474,166.895630 600.521362,161.637955 
	C601.036987,160.108704 601.587219,158.597610 603.511719,159.138428 
	C605.309387,159.643616 605.374695,161.324493 605.127136,162.864197 
	C604.731934,165.322159 604.153564,167.751022 603.771057,170.210617 
	C603.284180,173.341522 603.014648,176.404510 604.581604,179.455460 
	C606.005737,182.228348 604.929016,183.929626 601.310181,183.893982 
z"/>
<path fill="#000000" opacity="1.000000" stroke="none" 
	d="
M853.987793,222.073990 
	C852.050598,219.185211 850.962097,216.132767 847.838379,214.629807 
	C846.471069,213.971970 846.273621,212.493820 846.905396,211.151260 
	C847.721619,209.417099 849.261108,209.531311 850.755737,210.029160 
	C852.890686,210.740326 854.387024,212.248306 855.614746,214.101089 
	C856.428589,215.329269 857.210144,216.701675 858.344299,217.565491 
	C859.971802,218.805038 862.225464,219.896896 860.663452,222.161224 
	C858.940552,224.658813 856.444397,224.349396 853.987793,222.073990 
z"/>
<path fill="#000000" opacity="1.000000" stroke="none" 
	d="
M845.591614,272.568695 
	C843.609863,273.823303 842.006653,274.987274 840.268127,275.890808 
	C839.020203,276.539398 837.642456,276.407837 836.798767,275.066986 
	C835.998779,273.795532 836.156006,272.413239 837.324646,271.522064 
	C839.139648,270.138000 841.074829,268.889343 843.056519,267.753510 
	C844.492310,266.930542 846.207336,266.201935 847.460693,267.979706 
	C848.892212,270.010071 847.560547,271.299011 845.591614,272.568695 
z"/>
<path fill="#000000" opacity="1.000000" stroke="none" 
	d="
M231.402008,289.508606 
	C230.717117,287.068298 231.347305,285.471313 233.568481,285.180298 
	C235.241379,284.961121 236.145996,286.391479 236.814194,287.725250 
	C237.540497,289.174957 237.553345,290.727997 236.015930,291.586945 
	C234.011902,292.706635 232.664429,291.440613 231.402008,289.508606 
z"/>
<path fill="#000000" opacity="1.000000" stroke="none" 
	d="
M613.843140,15.319059 
	C613.338623,12.209749 614.568542,10.878234 617.335327,11.461533 
	C618.980591,11.808384 620.041687,13.203591 619.200012,14.789399 
	C617.990479,17.068439 616.072937,17.508598 613.843140,15.319059 
z"/>
<path fill="#000000" opacity="1.000000" stroke="none" 
	d="
M243.537476,152.991882 
	C242.122589,151.246292 241.059738,149.578384 243.504898,148.361633 
	C244.738770,147.747665 245.827881,148.630432 246.179886,149.820160 
	C246.756500,151.769028 246.732605,153.551575 243.537476,152.991882 
z"/>
<path fill="#000000" opacity="1.000000" stroke="none" 
	d="
M604.265625,142.629440 
	C605.619080,144.435242 606.328674,146.177017 604.051025,147.240234 
	C602.645996,147.896072 601.464294,146.939011 601.121155,145.517197 
	C600.569702,143.232330 601.528687,142.095505 604.265625,142.629440 
z"/>
<path fill="#000000" opacity="1.000000" stroke="none" 
	d="
M167.074249,409.106171 
	C164.951706,412.844910 162.808334,410.628479 160.657455,409.608826 
	C157.119217,407.931488 155.196777,403.901184 151.162292,402.781738 
	C149.362503,405.484436 151.624481,408.892609 149.374771,411.014740 
	C146.383209,413.836731 144.332138,411.372406 142.501785,408.871155 
	C139.110123,411.568451 135.817947,413.750122 131.808807,414.567444 
	C129.170547,415.105255 127.361580,414.195007 127.218452,411.519653 
	C127.098244,409.272919 128.294327,407.612854 130.970886,408.197357 
	C133.026657,408.646271 134.483429,407.753235 136.051697,406.222961 
	C134.745468,404.239044 132.350494,404.276886 130.599670,403.279663 
	C127.022873,401.242401 124.429062,398.643738 124.794609,394.223297 
	C125.187531,389.471924 127.199127,385.580902 131.603470,383.330841 
	C133.513184,382.355286 135.462708,382.456238 137.138046,384.047668 
	C138.377243,385.224762 138.509796,386.703583 138.098007,388.197113 
	C137.525131,390.274841 135.946030,390.439423 134.124847,390.035980 
	C131.696457,389.498016 131.539291,391.474792 130.936005,392.969391 
	C130.013336,395.255188 130.827621,397.022156 132.888718,397.931793 
	C135.755310,399.196869 138.776672,400.111267 142.082474,401.302124 
	C144.293915,398.547363 144.065231,395.303375 143.715637,392.313263 
	C142.978806,386.011200 148.035828,384.563690 151.896530,382.646851 
	C155.893921,380.662170 157.760391,384.441010 159.639954,387.111816 
	C163.781113,392.996368 163.655090,394.557434 158.867172,400.153442 
	C159.976440,404.566132 166.185120,404.141907 167.074249,409.106171 
M150.923691,392.440369 
	C150.503998,393.662720 149.857925,394.892395 151.076385,396.128906 
	C153.202332,396.416870 155.204086,395.715210 156.007019,393.818176 
	C156.900421,391.707367 155.168198,390.266174 153.694611,389.026001 
	C151.973206,389.293182 151.644455,390.627747 150.923691,392.440369 
z"/>
<path fill="#000000" opacity="1.000000" stroke="none" 
	d="
M106.429802,454.681885 
	C106.249893,449.154999 109.192413,448.138367 113.562851,449.004517 
	C116.132538,449.513763 117.587410,447.897369 118.808258,446.017120 
	C119.871231,444.380035 119.283859,442.805481 118.379761,441.334595 
	C117.194000,439.405487 115.367065,438.852234 113.212219,439.083313 
	C111.499710,439.266968 110.605423,440.293854 110.077438,441.862762 
	C109.639061,443.165436 108.598999,443.634308 107.288918,443.230164 
	C105.962791,442.821075 105.622925,441.674835 105.565956,440.467346 
	C105.439659,437.790131 107.034500,436.151764 109.138962,434.908844 
	C113.065453,432.589905 118.158401,433.289612 121.563217,436.565918 
	C125.192184,440.057892 126.242340,444.749542 124.205933,448.827057 
	C123.548996,450.142456 122.649590,451.336761 121.864464,452.581116 
	C127.322868,456.368652 128.371796,456.114532 131.776550,451.299377 
	C133.205582,449.278351 133.168945,447.819733 131.628708,446.034454 
	C130.776749,445.046967 130.067276,443.866302 129.574341,442.658142 
	C129.035629,441.337860 129.235687,439.945770 130.643890,439.193115 
	C131.918793,438.511719 132.964020,439.173370 133.549072,440.299500 
	C136.204102,445.410217 138.888962,444.582245 141.959213,440.608398 
	C143.314041,438.854706 145.535751,437.264740 147.472641,439.362488 
	C149.717484,441.793701 147.010559,442.990448 145.423233,444.368134 
	C144.318359,445.326965 143.108505,446.293060 142.785202,447.977966 
	C143.723328,450.223480 146.076279,450.511536 147.924332,451.478088 
	C149.581375,452.344696 150.803055,453.454987 149.808929,455.390350 
	C148.906860,457.146423 147.306427,457.418457 145.534012,456.584747 
	C145.383698,456.514038 145.208282,456.486237 145.072769,456.396057 
	C140.336990,453.246552 136.340210,452.293793 133.227570,458.786499 
	C132.031357,461.281677 128.382202,461.023804 125.919838,460.621765 
	C120.132439,459.676849 114.910736,456.043945 108.650070,456.955505 
	C108.056969,457.041870 107.259087,455.721771 106.429802,454.681885 
z"/>
<path fill="#000000" opacity="1.000000" stroke="none" 
	d="
M59.800034,422.700989 
	C56.439976,422.974762 55.812962,420.889008 55.772888,418.599091 
	C55.659309,412.109039 55.675652,405.616394 55.676888,399.124786 
	C55.677219,397.393066 55.915142,395.485687 58.101479,395.437988 
	C60.453812,395.386749 60.989532,397.329712 61.105236,399.263794 
	C61.214458,401.089569 61.121532,402.927155 61.222321,404.753754 
	C61.309776,406.338715 60.884403,408.444397 63.323223,408.562866 
	C65.422279,408.664825 67.260216,407.900940 67.922585,405.557037 
	C68.468025,403.626892 68.956505,401.735748 68.332787,399.683258 
	C67.954002,398.436768 67.794655,397.077820 67.802422,395.770966 
	C67.812744,394.035522 68.290573,392.321075 70.314842,391.975006 
	C72.762451,391.556641 73.673729,393.460602 73.863098,395.268036 
	C74.451469,400.883698 74.765068,406.528717 75.155037,412.164429 
	C75.349098,414.968811 74.837654,417.818420 75.882561,420.568542 
	C76.547562,422.318756 76.361946,424.030884 74.286766,424.595154 
	C72.083359,425.194305 70.610176,423.683289 70.169258,421.875214 
	C69.553345,419.349609 69.552917,416.673859 69.263405,413.807617 
	C64.512383,413.775055 60.709496,414.302338 61.254742,420.373535 
	C61.315201,421.046722 60.551685,421.793976 59.800034,422.700989 
z"/>
<path fill="#000000" opacity="1.000000" stroke="none" 
	d="
M200.830231,393.657043 
	C198.346222,391.977386 196.917374,392.915588 195.612778,394.860504 
	C194.749771,396.147064 193.438919,396.989166 191.748169,396.509125 
	C189.909760,395.987183 188.933792,394.490692 188.877319,392.793884 
	C188.755859,389.144531 188.830734,385.473511 189.106232,381.832611 
	C189.238205,380.088531 190.270203,378.618103 192.418243,378.913177 
	C194.439133,379.190826 194.495087,380.784851 194.427505,382.336426 
	C194.329208,384.593536 194.104416,386.632202 197.492096,386.737549 
	C200.575882,386.833435 202.250656,385.806793 202.576706,382.726807 
	C202.629303,382.229828 202.657883,381.727295 202.753616,381.238342 
	C203.241989,378.743591 203.706253,375.737885 207.063171,376.320862 
	C210.243103,376.873108 209.403534,379.994843 209.250839,382.155182 
	C208.901321,387.100739 206.548813,391.789917 207.320114,396.909698 
	C207.691025,399.371704 207.991989,401.848114 208.207764,404.328186 
	C208.342941,405.881927 208.108704,407.515564 206.282059,407.917511 
	C204.209381,408.373627 203.149704,406.971680 202.829178,405.182526 
	C202.158676,401.440125 201.665390,397.665955 200.830231,393.657043 
z"/>
<path fill="#000000" opacity="1.000000" stroke="none" 
	d="
M172.394501,386.549622 
	C176.914261,380.978790 177.155396,380.976105 181.885147,386.164551 
	C188.415070,393.327728 188.446869,398.657288 182.023270,404.814056 
	C179.652115,407.086670 177.011276,407.860291 173.833557,406.658569 
	C170.717804,405.480255 168.969452,403.309204 168.661804,400.012238 
	C168.212509,395.197144 169.400925,390.801819 172.394501,386.549622 
M179.028122,399.491974 
	C180.027298,397.814148 181.317398,396.237671 180.961060,393.976013 
	C179.396072,393.219269 178.026749,391.968994 176.123932,392.120361 
	C174.649826,393.991058 174.029587,396.082123 174.219299,398.236145 
	C174.492172,401.334045 175.799530,402.695953 179.028122,399.491974 
z"/>
<path fill="#000000" opacity="1.000000" stroke="none" 
	d="
M79.300018,398.624023 
	C80.686775,395.130463 82.154068,392.123199 85.167313,390.343506 
	C87.339119,389.060822 89.854843,388.716797 91.319733,391.184509 
	C92.923622,393.886383 93.045708,397.010132 90.738045,399.465240 
	C88.983276,401.332184 87.534218,399.183716 86.032143,398.383575 
	C84.696808,399.647949 84.526016,401.306671 84.156006,402.889557 
	C82.255478,411.019897 84.319847,413.440918 92.509018,412.656647 
	C93.002899,412.609314 93.488686,412.483124 93.981224,412.415283 
	C95.652443,412.185242 97.011169,412.594849 97.372116,414.444794 
	C97.726837,416.262787 96.503105,417.150177 95.083275,417.838257 
	C86.817924,421.843719 77.596596,415.959442 77.714508,406.727203 
	C77.748367,404.076935 77.773964,401.401398 79.300018,398.624023 
z"/>
<path fill="#000000" opacity="1.000000" stroke="none" 
	d="
M168.216095,446.918732 
	C166.904831,457.942017 160.607315,467.268066 154.160141,468.082336 
	C152.754761,465.791534 154.863953,464.805359 155.954620,463.552948 
	C164.084457,454.217316 165.088150,444.856110 159.038834,434.174652 
	C158.050629,432.429718 157.164001,430.633667 154.836151,430.280853 
	C152.980682,429.999634 152.219727,428.737152 152.810638,427.019958 
	C153.390518,425.334900 154.909378,424.989929 156.515884,425.303741 
	C158.967255,425.782593 160.626495,427.448639 162.019409,429.355682 
	C165.743332,434.453979 167.854233,440.157806 168.216095,446.918732 
z"/>
<path fill="#000000" opacity="1.000000" stroke="none" 
	d="
M91.045258,457.728027 
	C86.529259,448.427002 87.131630,439.326813 90.198563,430.182404 
	C90.673386,428.766571 91.265869,427.370789 92.671440,426.542938 
	C93.800880,425.877747 94.883850,425.873779 95.909706,426.703888 
	C96.980064,427.570038 97.220352,428.651550 96.369415,429.764496 
	C91.630478,435.962677 93.024361,443.172058 93.469704,450.005463 
	C93.826294,455.477020 96.889473,459.643066 102.796494,460.938721 
	C104.173080,461.240631 105.877350,461.315491 106.231026,463.247620 
	C101.822609,466.150574 96.497490,464.293701 91.045258,457.728027 
z"/>
<path fill="#000000" opacity="1.000000" stroke="none" 
	d="
M109.260689,399.303741 
	C110.608345,398.969757 111.568840,398.729919 112.539589,398.543427 
	C113.995392,398.263733 115.234962,398.641022 115.766174,400.113312 
	C116.392365,401.848846 115.451530,403.131012 113.955353,403.661804 
	C110.698921,404.816986 107.376297,405.807953 104.033867,406.688080 
	C102.548889,407.079132 101.494217,406.122620 101.030296,404.734436 
	C100.472153,403.064301 101.164772,401.637115 102.673050,401.056305 
	C104.657021,400.292297 106.802238,399.947052 109.260689,399.303741 
z"/>
<path fill="#000000" opacity="1.000000" stroke="none" 
	d="
M387.533813,174.602020 
	C390.493317,170.234283 392.109467,165.766983 392.988556,160.940079 
	C393.335571,159.034576 393.204956,155.818024 396.239716,156.277267 
	C399.137604,156.715759 398.416168,159.769699 398.144592,161.709137 
	C396.901917,170.584030 395.381195,179.419708 393.995605,188.274994 
	C393.379547,192.212326 392.830414,196.160446 392.283844,200.108231 
	C392.053436,201.772614 391.995758,203.510117 389.086273,203.835648 
	C386.423798,196.769836 390.519318,189.702148 389.459290,182.164932 
	C380.813690,186.578781 374.149109,183.949600 368.805420,175.727692 
	C367.668152,184.676865 366.680359,192.860733 365.555878,201.025787 
	C365.252502,203.228653 365.215820,206.362625 361.814667,205.660553 
	C358.688904,205.015320 358.566223,202.246552 359.295746,199.605865 
	C362.370209,188.476425 362.459534,176.970535 363.638519,165.602234 
	C363.724182,164.776276 363.606873,163.898590 363.845428,163.125656 
	C364.323151,161.577988 364.627594,159.625610 366.770691,159.627838 
	C368.641052,159.629776 369.025269,161.318726 369.449219,162.764282 
	C370.575470,166.604721 371.855530,170.384201 374.094635,173.746124 
	C377.725861,179.198273 382.572266,179.610947 387.533813,174.602020 
z"/>
<path fill="#000000" opacity="1.000000" stroke="none" 
	d="
M464.592102,200.079758 
	C457.922394,202.457962 452.276367,200.033905 447.978241,193.379456 
	C445.376862,189.351868 444.030670,184.815231 443.995697,180.176254 
	C443.952087,174.395401 444.638275,168.594162 445.273895,162.830887 
	C445.505615,160.729645 446.333832,158.001770 449.301758,159.249130 
	C451.700867,160.257431 452.478760,162.152802 451.500641,165.337036 
	C448.627380,174.690613 448.551025,184.035446 455.112701,192.174744 
	C458.840302,196.798569 461.051392,196.637802 464.297241,191.773804 
	C468.448730,185.552628 472.433624,179.205429 475.178436,172.205795 
	C476.192963,169.618561 477.451935,166.935989 476.128326,164.040924 
	C475.435516,162.525604 475.065155,160.920700 477.076813,160.410065 
	C479.133118,159.888107 480.634644,161.052704 481.139038,163.119873 
	C481.842285,166.002029 480.893555,168.837372 480.017395,171.423630 
	C476.538300,181.693192 471.791656,191.352310 464.592102,200.079758 
z"/>
<path fill="#000000" opacity="1.000000" stroke="none" 
	d="
M419.727539,201.065567 
	C425.999786,202.666306 430.351990,198.978363 435.646057,195.524246 
	C435.435059,200.892776 432.487549,202.873367 429.401245,203.977539 
	C422.400238,206.482269 415.281555,205.955368 408.520294,202.937881 
	C403.927185,200.888031 402.032837,196.557831 401.919586,191.939331 
	C401.587280,178.388580 405.887360,166.452286 415.671417,156.813812 
	C418.134949,154.386948 421.216187,152.760635 424.697632,154.627609 
	C428.354553,156.588669 428.254639,160.309433 428.275879,163.834518 
	C428.283356,165.077454 427.956085,166.264908 426.510986,166.419769 
	C424.897491,166.592667 424.162476,165.544617 423.821228,164.075851 
	C423.438568,162.428802 424.341125,159.923721 421.804871,159.566422 
	C419.549408,159.248657 418.385010,161.349747 417.217804,162.918610 
	C411.930725,170.025269 408.904572,178.049362 408.236328,186.852402 
	C407.489807,196.685989 409.463013,199.034225 419.727539,201.065567 
z"/>
<path fill="#000000" opacity="1.000000" stroke="none" 
	d="
M838.689026,84.860344 
	C835.808411,82.561340 834.795105,84.364571 833.940857,86.638702 
	C832.578430,90.265579 830.674438,90.703529 828.372009,87.422783 
	C826.182922,84.303474 823.006104,83.581810 820.217346,85.530823 
	C815.412781,88.888580 809.457275,88.687347 804.486755,91.487549 
	C801.932800,92.926376 800.227905,90.463554 799.223938,88.257378 
	C795.187988,79.388367 797.958252,63.278862 804.658325,56.236557 
	C808.004883,52.719048 814.059998,51.014694 817.913696,53.494144 
	C824.237793,57.563061 831.589478,60.969986 832.812561,71.119560 
	C836.333374,66.065239 838.067749,61.523872 839.857178,57.014053 
	C840.643311,55.032738 841.069763,52.416412 843.982239,52.933659 
	C846.991455,53.468102 846.187927,56.177952 846.316345,58.230206 
	C846.666870,63.831833 844.930969,69.385239 845.621216,75.077286 
	C848.000732,74.984680 847.825256,73.047684 848.481995,71.875900 
	C852.907837,63.978619 858.847473,57.645546 867.142395,53.768238 
	C869.495850,52.668156 872.261841,51.966106 874.001038,54.402916 
	C875.799072,56.922279 877.474548,60.000057 876.812134,63.158409 
	C876.300476,65.597984 874.028931,66.007652 872.278198,63.945965 
	C871.246948,62.731522 870.745422,61.067257 870.034180,59.661736 
	C862.854919,60.961712 854.434814,70.135353 853.988403,77.195091 
	C853.842468,79.501991 850.891418,81.652634 853.460938,84.090012 
	C856.277893,86.761894 859.823364,87.556587 863.564514,87.697655 
	C867.558228,87.848221 871.558594,87.877037 875.545959,88.122971 
	C877.519592,88.244713 879.988159,88.454727 879.831848,91.183533 
	C879.685547,93.737526 877.319458,94.137634 875.296875,94.035713 
	C869.822815,93.759872 864.295837,93.654892 858.908447,92.764740 
	C852.412781,91.691498 851.178528,90.418007 845.673645,82.890686 
	C844.714050,85.596809 845.043152,87.977707 845.754822,90.332413 
	C846.326843,92.225014 846.702515,94.181664 844.317627,94.852402 
	C842.153137,95.461159 840.795776,93.765373 840.204712,92.022430 
	C839.464294,89.839066 839.249390,87.477509 838.689026,84.860344 
M819.202515,61.302792 
	C813.759155,57.119144 812.384583,57.173500 810.322693,63.209103 
	C808.338257,69.017815 809.110840,75.332642 808.604675,81.414383 
	C808.405823,83.803131 810.568481,83.769081 812.228577,82.942955 
	C814.743347,81.691429 817.263306,80.392448 819.588257,78.827339 
	C828.936890,72.534164 828.956055,68.084023 819.202515,61.302792 
z"/>
</svg>