<svg width="900" height="500" xmlns="http://www.w3.org/2000/svg">
  <rect width="100%" height="100%" fill="white"/>

  <style>
    .box { fill:#ffffff; stroke:#111827; stroke-width:2; rx:12; }
    .text { fill:#111827; font-size:14px; font-family:Arial, sans-serif; text-anchor:middle; dominant-baseline:middle; }
    .arrow { stroke:#111827; stroke-width:3; marker-end:url(#arrowhead); }
    .label { fill:#111827; font-size:12px; font-family:Arial, sans-serif; text-anchor:middle; }
  </style>

  <defs>
    <marker id="arrowhead" markerWidth="10" markerHeight="7" refX="10" refY="3.5" orient="auto">
      <polygon points="0 0, 10 3.5, 0 7" fill="#111827"/>
    </marker>
  </defs>

  <rect x="50" y="120" width="160" height="60" class="box"/>
  <text x="130" y="150" class="text">Joystick Controller</text>

  <rect x="260" y="120" width="140" height="60" class="box"/>
  <text x="330" y="150" class="text">HC-12 TX</text>

  <rect x="460" y="120" width="140" height="60" class="box"/>
  <text x="530" y="150" class="text">HC-12 RX</text>

  <rect x="660" y="120" width="180" height="60" class="box"/>
  <text x="750" y="145" class="text">STM32 NUCLEO</text>
  <text x="750" y="165" class="text">U545RE-Q</text>

  <rect x="660" y="250" width="180" height="60" class="box"/>
  <text x="750" y="280" class="text">L298N Motor Driver</text>

  <rect x="660" y="380" width="180" height="60" class="box"/>
  <text x="750" y="410" class="text">DC Motors</text>

  <rect x="420" y="380" width="160" height="60" class="box"/>
  <text x="500" y="410" class="text">Battery Pack</text>

  <line x1="210" y1="150" x2="260" y2="150" class="arrow"/>
  <text x="235" y="130" class="label">Control</text>

  <line x1="400" y1="150" x2="460" y2="150" class="arrow"/>
  <text x="430" y="130" class="label">Wireless</text>

  <line x1="600" y1="150" x2="660" y2="150" class="arrow"/>
  <text x="630" y="130" class="label">Serial</text>

  <line x1="750" y1="180" x2="750" y2="250" class="arrow"/>
  <text x="810" y="220" class="label">PWM / GPIO</text>

  <line x1="750" y1="310" x2="750" y2="380" class="arrow"/>
  <text x="820" y="350" class="label">Motor power</text>

  <line x1="580" y1="410" x2="660" y2="280" class="arrow"/>
  <text x="625" y="350" class="label">Power</text>

  <line x1="580" y1="410" x2="660" y2="150" class="arrow"/>
  <text x="610" y="250" class="label">Power</text>
</svg>
