<svg xmlns="http://www.w3.org/2000/svg" width="1024" height="724" viewBox="0 0 116930 82680"><g style="fill:#840000;fill-opacity:0;stroke:#840000;stroke-width:60;stroke-opacity:1;stroke-linecap:round;stroke-linejoin:round"><rect width="42519.685" height="12598.425" x="69685.906" y="65357.165" fill="none" rx="0"/><rect width="109055.984" height="74805.984" x="3937.008" y="3937.008" fill="none" rx="0"/><rect width="107481.181" height="73231.181" x="4724.409" y="4724.409" fill="none" rx="0"/><path fill="none" d="M23622 4724v-787M43307 4724v-787M62992 4724v-787M82677 4724v-787M102362 4724v-787"/><g class="stroked-text"><path fill="none" d="M14199 4562h-292M14053 4562v-512l-49 73-49 49-48 24"/></g><g class="stroked-text"><path fill="none" d="m33592 4099 24-25 49-24h122l48 24 25 25 24 48v49l-24 73-293 293h317"/></g><g class="stroked-text"><path fill="none" d="M53252 4050h317l-171 195h74l48 24 25 25 24 48v122l-24 49-25 24-48 25h-147l-48-25-25-24"/></g><g class="stroked-text"><path fill="none" d="M73205 4221v341M73083 4026l-121 365h316"/></g><g class="stroked-text"><path fill="none" d="M92915 4050h-244l-24 244 24-25 49-24h122l48 24 25 25 24 48v122l-24 49-25 24-48 25h-122l-49-25-24-24"/></g><g class="stroked-text"><path fill="none" d="M112575 4050h-97l-49 24-24 25-49 73-24 97v195l24 49 24 24 49 25h98l48-25 25-24 24-49v-122l-24-48-25-25-48-24h-98l-49 24-24 25-24 48"/></g><path fill="none" d="M23622 77955v787M43307 77955v787M62992 77955v787M82677 77955v787M102362 77955v787"/><g class="stroked-text"><path fill="none" d="M14199 78580h-292M14053 78580v-512l-49 74-49 48-48 25"/></g><g class="stroked-text"><path fill="none" d="m33592 78117 24-24 49-25h122l48 25 25 24 24 49v49l-24 73-293 292h317"/></g><g class="stroked-text"><path fill="none" d="M53252 78068h317l-171 195h74l48 25 25 24 24 49v122l-24 49-25 24-48 24h-147l-48-24-25-24"/></g><g class="stroked-text"><path fill="none" d="M73205 78239v341M73083 78044l-121 366h316"/></g><g class="stroked-text"><path fill="none" d="M92915 78068h-244l-24 244 24-24 49-25h122l48 25 25 24 24 49v122l-24 49-25 24-48 24h-122l-49-24-24-24"/></g><g class="stroked-text"><path fill="none" d="M112575 78068h-97l-49 25-24 24-49 73-24 98v195l24 49 24 24 49 24h98l48-24 25-24 24-49v-122l-24-49-25-24-48-25h-98l-49 25-24 24-24 49"/></g><path fill="none" d="M3937 23622h787M3937 43307h787M3937 62992h787"/><g class="stroked-text"><path fill="none" d="M4208 13864h244M4160 14011l170-512 171 512"/></g><g class="stroked-text"><path fill="none" d="m4367 33427 73 25 24 24 25 49v73l-25 49-24 24-49 25h-195v-512h171l48 24 25 25 24 48v49l-24 49-25 24-48 24h-171"/></g><g class="stroked-text"><path fill="none" d="m4489 53332-25 24-73 25h-49l-73-25-48-49-25-48-24-98v-73l24-97 25-49 48-49 73-24h49l73 24 25 25"/></g><g class="stroked-text"><path fill="none" d="M4196 73066v-512h122l73 24 49 49 24 49 25 97v73l-25 98-24 49-49 48-73 25h-122"/></g><path fill="none" d="M112992 23622h-787M112992 43307h-787M112992 62992h-787"/><g class="stroked-text"><path fill="none" d="M112477 13864h244M112428 14011l171-512 170 512"/></g><g class="stroked-text"><path fill="none" d="m112635 33427 73 25 25 24 24 49v73l-24 49-25 24-48 25h-195v-512h170l49 24 24 25 25 48v49l-25 49-24 24-49 24h-170"/></g><g class="stroked-text"><path fill="none" d="m112757 53332-24 24-73 25h-49l-73-25-49-49-24-48-25-98v-73l25-97 24-49 49-49 73-24h49l73 24 24 25"/></g><g class="stroked-text"><path fill="none" d="M112465 73066v-512h122l73 24 48 49 25 49 24 97v73l-24 98-25 49-48 48-73 25h-122"/></g><g class="stroked-text"><path fill="none" d="M78911 76293v-590h141l84 28 56 56 28 56 29 113v84l-29 112-28 57-56 56-84 28h-141M79755 76293v-309l-28-56-57-29h-112l-56 29"/><path fill="none" d="m79755 76265-56 28h-141l-56-28-28-56v-57l28-56 56-28h141l56-28M79952 75899h225M80036 75703v506l28 56 56 28h57M80598 76265l-56 28h-112l-57-28-28-56v-225l28-56 57-29h112l56 29 29 56v56l-282 56M80880 76237l28 28-28 28-28-28 28-28v56M80880 75928l28 28-28 28-28-28 28-28v56M81583 75759l28-28 56-28h141l56 28 28 28 28 56v56l-28 85-337 337h365M82286 75703h56l56 28 28 28 28 56 29 113v140l-29 113-28 56-28 28-56 28h-56l-57-28-28-28-28-56-28-113v-140l28-113 28-56 28-28 57-28M82708 75759l28-28 56-28h140l57 28 28 28 28 56v56l-28 85-338 337h366M83551 75703h-112l-57 28-28 28-56 84-28 113v225l28 56 28 28 56 28h113l56-28 28-28 28-56v-141l-28-56-28-28-56-28h-113l-56 28-28 28-28 56M83860 76068h450M84704 75703h56l57 28 28 28 28 56 28 113v140l-28 113-28 56-28 28-57 28h-56l-56-28-28-28-28-56-28-113v-140l28-113 28-56 28-28 56-28M85435 75703h-281l-28 281 28-28 56-28h141l56 28 28 28 28 56v141l-28 56-28 28-56 28h-141l-56-28-28-28M85717 76068h449M86560 75703h56l57 28 28 28 28 56 28 113v140l-28 113-28 56-28 28-57 28h-56l-56-28-28-28-28-56-28-113v-140l28-113 28-56 28-28 56-28M86954 75703h394l-254 590"/></g><path fill="none" d="M69685 76577h42520"/><g class="stroked-text"><path fill="none" d="M70250 77395v-590M70587 77395l-253-337M70587 76805l-337 337M70840 77395v-393M70840 76805l-28 28 28 28 28-28-28-28v56M71459 77339l-28 28-85 28h-56l-84-28-56-56-29-56-28-113v-84l28-112 29-57 56-56 84-28h56l85 28 28 28M71965 77395v-309l-28-56-56-28h-113l-56 28"/><path fill="none" d="m71965 77367-56 28h-141l-56-28-28-56v-56l28-56 56-29h141l56-28M72499 77395v-590M72499 77367l-56 28h-112l-57-28-28-28-28-56v-169l28-56 28-28 57-28h112l56 28M73231 77086h196M73512 77395h-281v-590h281M73765 77339l28 28-28 28-28-28 28-28v56M74046 77395v-590h141l84 28 56 56 28 57 29 112v84l-29 113-28 56-56 56-84 28h-141M74637 77339l28 28-28 28-28-28 28-28v56M74890 77227h281M74834 77395l196-590 197 590M75424 77339l28 28-28 28-28-28 28-28v56M76605 77395v-590M76661 77170l169 225M76830 77002l-225 225M77083 77395v-393M77083 76805l-28 28 28 28 28-28-28-28v56M77618 77367l-57 28h-112l-56-28-29-28-28-56v-169l28-56 29-28 56-28h112l57 28M78124 77395v-309l-28-56-57-28h-112l-56 28"/><path fill="none" d="m78124 77367-57 28h-140l-56-28-29-56v-56l29-56 56-29h140l57-28M78658 77395v-590M78658 77367l-56 28h-113l-56-28-28-28-28-56v-169l28-56 28-28 56-28h113l56 28M79642 76805h-112l-56 28-29 28-56 85-28 112v225l28 56 28 28 57 28h112l56-28 28-28 29-56v-141l-29-56-28-28-56-28h-112l-57 28-28 28-28 56M79952 77339l28 28-28 28-29-28 29-28v56M80345 76805h57l56 28 28 28 28 56 28 113v140l-28 113-28 56-28 28-56 28h-57l-56-28-28-28-28-56-28-113v-140l28-113 28-56 28-28 56-28M80795 77339l28 28-28 28-28-28 28-28v56M81386 77395h-338M81217 77395v-590l-56 84-56 57-57 28M81948 77395h-337M81780 77395v-590l-57 84-56 57-56 28M82201 77170h450M82426 77395v-449M83186 77395v-590M83186 77367l-57 28h-112l-56-28-29-28-28-56v-169l28-56 29-28 56-28h112l57 28M83382 77002h225M83467 77395v-506l28-56 56-28h56M83776 77367l56 28h113l56-28 28-56v-28l-28-56-56-28h-85l-56-29-28-56v-28l28-56 56-28h85l56 28M84535 77002v478l-28 56-28 28-56 28h-84l-57-28"/><path fill="none" d="m84535 77367-56 28h-112l-57-28-28-28-28-56v-169l28-56 28-28 57-28h112l56 28M84817 77170h450M85857 77395h-337M85688 77395v-590l-56 84-56 57-56 28"/></g><path fill="none" d="M69685 75396h42520"/></g><g class="stroked-text" style="fill:#840000;fill-opacity:0;stroke:#840000;stroke-width:118.110236;stroke-opacity:1;stroke-linecap:round;stroke-linejoin:round"><path fill="none" d="m104098 76293-196-281M103761 76293v-590h225l56 28 28 28 28 56v84l-28 57-28 28-56 28h-225M104577 76265l-57 28h-112l-56-28-29-56v-225l29-56 56-29h112l57 29 28 56v56l-282 56M104802 75899l140 394 141-394M105308 76237l28 28-28 28-28-28 28-28v56M105308 75928l28 28-28 28-28-28 28-28v56"/></g><g style="fill:#840000;fill-opacity:0;stroke:#840000;stroke-width:60;stroke-opacity:1;stroke-linecap:round;stroke-linejoin:round"><g class="stroked-text"><path fill="none" d="m70222 76265 84 28h141l56-28 28-28 28-56v-57l-28-56-28-28-56-28-113-28-56-28-28-28-28-57v-56l28-56 28-28 56-28h141l84 28M70812 76293v-394M70812 75703l-28 28 28 28 28-28-28-28v56M71037 75899h309l-309 394h309M71796 76265l-56 28h-112l-57-28-28-56v-225l28-56 57-29h112l56 29 29 56v56l-282 56M72078 76237l28 28-28 28-29-28 29-28v56M72078 75928l28 28-28 28-29-28 29-28v56M72781 76124h281M72724 76293l197-590 197 590M73568 75899v394M73427 75674l-140 422h365"/></g><g class="stroked-text"><path fill="none" d="M103714 77395v-590M104249 77395v-590M104249 77367l-57 28h-112l-56-28-29-28-28-56v-169l28-56 29-28 56-28h112l57 28M104530 77339l28 28-28 28-28-28 28-28v56M104530 77030l28 28-28 28-28-28 28-28v56M105570 77395h-337M105402 77395v-590l-57 84-56 57-56 28M106245 76777l-506 759M106751 77395h-337M106583 77395v-590l-57 84-56 57-56 28"/></g><path fill="none" d="M69685 73821h42520"/></g><g class="stroked-text" style="fill:#840000;fill-opacity:0;stroke:#840000;stroke-width:157.480315;stroke-opacity:1;stroke-linecap:round;stroke-linejoin:round"><path fill="none" d="M70360 74099h450M70486 74886l99-787M70974 74886l65-525M71072 74099l-42 37 33 38 42-38-33-37-9 75M71302 74361h300M71447 74099l-84 675 28 75 70 37h75M71911 74886l-70-37-29-75 85-675M72516 74849l-80 37h-150l-70-37-29-75 38-300 47-75 80-38h149l71 38 28 75-9 75-385 75M72895 74811l33 38-42 37-33-37 42-38-9 75M72947 74399l33 37-43 38-32-38 42-37-10 75M74264 74361l-80 638-47 75-42 37-80 38h-112l-70-38"/><path fill="none" d="m74203 74849-80 37h-150l-70-37-33-38-28-75 28-225 47-75 42-37 80-38h150l70 38M74573 74886l66-525M74620 74511l47-75 42-37 80-38h75M75173 74886l-70-37-33-38-28-75 28-225 47-75 42-37 80-38h112l70 38 33 37 28 75-28 225-47 75-42 38-80 37h-112M76176 74361l-66 525M75839 74361l-52 413 28 75 70 37h113l80-37 42-38M76551 74361l-66 525M76542 74436l42-37 79-38h113l70 38 28 75-51 412M77535 74886l99-787M77540 74849l-80 37h-150l-70-37-33-38-28-75 28-225 47-75 42-37 80-38h150l70 38M77713 74961h600M78477 74849l71 37h150l79-37 47-75 5-38-28-75-71-37h-112l-70-38-29-75 5-37 47-75 80-38h112l70 38M79101 74361h300M79246 74099l-84 675 28 75 70 37h75M79935 74886l51-412-28-75-70-38h-150l-80 38"/><path fill="none" d="m79940 74849-80 37h-188l-70-37-28-75 9-75 47-75 80-38h187l80-37M80263 74361h300M80408 74099l-84 675 28 75 70 37h75M80760 74886l65-525M80858 74099l-42 37 33 38 42-38-33-37-9 75M81247 74886l-70-37-33-38-28-75 28-225 47-75 42-37 80-38h112l71 38 32 37 29 75-29 225-46 75-43 38-79 37h-113M81913 74361l-66 525M81903 74436l43-37 79-38h113l70 38 28 75-51 412"/></g><g style="fill:#840000;fill-opacity:0;stroke:#840000;stroke-width:60;stroke-opacity:1;stroke-linecap:round;stroke-linejoin:round"><g class="stroked-text"><path fill="none" d="M70447 73070h-197M70250 73380v-591h281M70756 73380v-394M70756 72789l-28 28 28 28 28-28-28-28v56M71121 73380l-56-28-28-57v-506M71571 73352l-56 28h-112l-57-28-28-57v-225l28-56 57-28h112l56 28 29 56v57l-282 56M71853 73323l28 29-28 28-28-28 28-29v57M71853 73014l28 28-28 28-28-28 28-28v56M72837 72986v478l-28 56-28 28-57 29h-84l-56-29"/><path fill="none" d="m72837 73352-56 28h-113l-56-28-28-29-28-56v-169l28-56 28-28 56-28h113l56 28M73118 73380v-394M73118 73098l28-56 28-28 57-28h56M73568 73380l-56-28-28-29-28-56v-169l28-56 28-28 56-28h84l57 28 28 28 28 56v169l-28 56-28 29-57 28h-84M74271 72986v394M74018 72986v309l28 57 56 28h85l56-28 28-29M74552 72986v394M74552 73042l28-28 57-28h84l56 28 28 56v310M75340 73380v-591M75340 73352l-57 28h-112l-56-28-28-29-29-56v-169l29-56 28-28 56-28h112l57 28M75480 73436h450M76043 73352l56 28h112l57-28 28-57v-28l-28-56-57-28h-84l-56-28-28-57v-28l28-56 56-28h84l57 28M76465 72986h225M76549 72789v506l28 57 56 28h57M77139 73380v-310l-28-56-56-28h-112l-57 28"/><path fill="none" d="m77139 73352-56 28h-140l-57-28-28-57v-56l28-56 57-28h140l56-28M77336 72986h225M77421 72789v506l28 57 56 28h56M77758 73380v-394M77758 72789l-28 28 28 28 28-28-28-28v56M78124 73380l-57-28-28-29-28-56v-169l28-56 28-28 57-28h84l56 28 28 28 29 56v169l-29 56-28 29-56 28h-84M78574 72986v394M78574 73042l28-28 56-28h84l57 28 28 56v310M79108 73323l28 29-28 28-28-28 28-29v57M79389 73380v-591M79445 73155l169 225M79614 72986l-225 225M79867 73380v-394M79867 72789l-28 28 28 28 28-28-28-28v56M80402 73352l-57 28h-112l-56-28-29-29-28-56v-169l28-56 29-28 56-28h112l57 28M80908 73380v-310l-28-56-57-28h-112l-56 28"/><path fill="none" d="m80908 73352-56 28h-141l-56-28-28-57v-56l28-56 56-28h141l56-28M81442 73380v-591M81442 73352l-56 28h-113l-56-28-28-29-28-56v-169l28-56 28-28 56-28h113l56 28M81583 73436h450M82145 73352l56 28h113l56-28 28-57v-28l-28-56-56-28h-85l-56-28-28-57v-28l28-56 56-28h85l56 28M82904 73352l-56 28h-112l-57-28-28-29-28-56v-169l28-56 28-28 57-28h112l56 28M83157 73380v-591M83411 73380v-310l-29-56-56-28h-84l-56 28-29 28"/></g><path fill="none" d="M69685 71459h42520"/><g class="stroked-text"><path fill="none" d="m70222 72289 84 28h141l56-28 28-29 28-56v-56l-28-56-28-28-56-29-113-28-56-28-28-28-28-56v-56l28-57 28-28 56-28h141l84 28M70812 72317v-591M71065 72317v-310l-28-56-56-28h-84l-57 28-28 28M71571 72289l-56 28h-112l-57-28-28-57v-225l28-56 57-28h112l56 28 29 56v57l-282 56M72078 72289l-57 28h-112l-56-28-28-57v-225l28-56 56-28h112l57 28 28 56v57l-281 56M72274 71923h225M72359 71726v506l28 57 56 28h56M72696 72260l28 29-28 28-28-28 28-29v57M72696 71951l28 28-28 28-28-28 28-28v56M73849 71698l-506 759"/></g></g><g style="fill:#840000;fill-opacity:0;stroke:#840000;stroke-width:60;stroke-opacity:1;stroke-linecap:round;stroke-linejoin:round"><path fill="none" d="M77559 75396v1181M102756 75396v2559"/><rect width="7000" height="9000" x="14000" y="26500" rx="0" style="fill:#ffffc2;fill-opacity:.6;stroke:#ffffc2;stroke-width:.03937;stroke-opacity:1;stroke-linecap:round;stroke-linejoin:round"/><g style="fill:#840000;fill-opacity:0;stroke:#840000;stroke-width:100;stroke-opacity:1;stroke-linecap:round;stroke-linejoin:round"><rect width="7000" height="9000" x="14000" y="26500" fill="none" rx="0"/><rect width="7000" height="9000" x="14000" y="26500" fill="none" rx="0"/><path d="M15750 31750v-1250" style="fill-opacity:0;stroke:#840000;stroke-width:100;stroke-opacity:1;stroke-linecap:round;stroke-linejoin:round;fill:none"/></g><circle cx="15750" cy="32000" r="250" style="fill:#840000;fill-opacity:1;stroke:#840000;stroke-width:100;stroke-opacity:1;stroke-linecap:round;stroke-linejoin:round"/><g fill="none" style="fill:#840000;fill-opacity:0;stroke:#840000;stroke-width:100;stroke-opacity:1;stroke-linecap:round;stroke-linejoin:round"><path d="M15250.02 31999.653a483.74 483.74 0 0 0 500.327 500.328"/><path d="M14999.83 31750.495a782.52 782.52 0 0 0 999.675 999.676"/><path d="M14750.307 31499.391a1118.031 1118.031 0 0 0 1500.302 1500.302"/></g><path fill="none" d="M17500 26500v-1500" style="fill:#840000;fill-opacity:0;stroke:#840000;stroke-width:60;stroke-opacity:1;stroke-linecap:round;stroke-linejoin:round"/><g style="fill:#006464;fill-opacity:0;stroke:#006464;stroke-width:60;stroke-opacity:1;stroke-linecap:round;stroke-linejoin:round"><g class="stroked-text"><path fill="none" d="m17250 28072-24 48v71l24 72 47 47 48 24 95 24h71l96-24 47-24 48-47 24-72v-47l-24-72-24-23h-167v95M17726 27834h-500l500-285h-500M17726 27310h-500v-119l24-71 47-48 48-23 95-24h71l96 24 47 23 48 48 24 71v119"/></g></g><g style="fill:#a90000;fill-opacity:0;stroke:#a90000;stroke-width:60;stroke-opacity:1;stroke-linecap:round;stroke-linejoin:round"><g class="stroked-text"><path fill="none" d="M17376 25607v285M17376 25750h-500l71 47 48 48 24 47"/></g></g><path fill="none" d="M17500 35500v1500" style="fill:#840000;fill-opacity:0;stroke:#840000;stroke-width:60;stroke-opacity:1;stroke-linecap:round;stroke-linejoin:round"/><g style="fill:#006464;fill-opacity:0;stroke:#006464;stroke-width:60;stroke-opacity:1;stroke-linecap:round;stroke-linejoin:round"><g class="stroked-text"><path fill="none" d="m17226 35022 500-167-500-166M17678 34236l24 24 24 71v48l-24 71-48 48-47 24-96 24h-71l-95-24-48-24-47-48-24-71v-48l24-71 23-24M17678 33736l24 24 24 71v48l-24 71-48 48-47 24-96 24h-71l-95-24-48-24-47-48-24-71v-48l24-71 23-24"/></g></g><g style="fill:#a90000;fill-opacity:0;stroke:#a90000;stroke-width:60;stroke-opacity:1;stroke-linecap:round;stroke-linejoin:round"><g class="stroked-text"><path fill="none" d="m16923 36392-23-23-24-48v-119l24-48 23-24 48-23h48l71 23 286 286v-309"/></g></g><path fill="none" d="M21000 29000h1500" style="fill:#840000;fill-opacity:0;stroke:#840000;stroke-width:60;stroke-opacity:1;stroke-linecap:round;stroke-linejoin:round"/><g class="stroked-text" style="fill:#006464;fill-opacity:0;stroke:#006464;stroke-width:60;stroke-opacity:1;stroke-linecap:round;stroke-linejoin:round"><path fill="none" d="m20022 29178-24 24-71 24h-48l-71-24-48-48-24-47-24-96v-71l24-95 24-48 48-47 71-24h48l71 24 24 23M20236 28964h167M20474 29226h-238v-500h238"/></g><g class="stroked-text" style="fill:#a90000;fill-opacity:0;stroke:#a90000;stroke-width:60;stroke-opacity:1;stroke-linecap:round;stroke-linejoin:round"><path fill="none" d="M21583 28376h309l-166 190h71l48 24 24 24 23 47v119l-23 48-24 24-48 24h-143l-47-24-24-24"/></g><path fill="none" d="M21000 31000h1500" style="fill:#840000;fill-opacity:0;stroke:#840000;stroke-width:60;stroke-opacity:1;stroke-linecap:round;stroke-linejoin:round"/><g class="stroked-text" style="fill:#006464;fill-opacity:0;stroke:#006464;stroke-width:60;stroke-opacity:1;stroke-linecap:round;stroke-linejoin:round"><path fill="none" d="M19070 30585h500M19474 31178l-24 24-71 24h-48l-71-24-48-48-23-47-24-96v-71l24-95 23-48 48-47 71-24h48l71 24 24 23M19570 30585h476M19665 31202l71 24h119l48-24 24-24 23-48v-47l-23-48-24-24-48-23-95-24-48-24-23-24-24-47v-48l24-48 23-23 48-24h119l71 24M20046 30585h524M20165 31226v-500l285 500v-500"/></g><g class="stroked-text" style="fill:#a90000;fill-opacity:0;stroke:#a90000;stroke-width:60;stroke-opacity:1;stroke-linecap:round;stroke-linejoin:round"><path fill="none" d="M21845 30542v334M21726 30352l-119 357h309"/></g><g fill="none" style="fill:#840000;fill-opacity:0;stroke:#840000;stroke-width:60;stroke-opacity:1;stroke-linecap:round;stroke-linejoin:round"><path d="M21000 32000h1500M21000 32250l-500-250 500-250"/></g><g class="stroked-text" style="fill:#006464;fill-opacity:0;stroke:#006464;stroke-width:60;stroke-opacity:1;stroke-linecap:round;stroke-linejoin:round"><path fill="none" d="m19189 32202 71 24h119l48-24 23-24 24-48v-47l-24-48-23-24-48-23-95-24-48-24-24-24-23-47v-48l23-48 24-23 48-24h119l71 24M19974 32178l-24 24-71 24h-48l-71-24-48-48-23-47-24-96v-71l24-95 23-48 48-47 71-24h48l71 24 24 23M20189 32226v-500M20474 32226l-214-286M20474 31726l-285 285"/></g><g class="stroked-text" style="fill:#a90000;fill-opacity:0;stroke:#a90000;stroke-width:60;stroke-opacity:1;stroke-linecap:round;stroke-linejoin:round"><path fill="none" d="M21869 31376h-239l-23 238 23-24 48-24h119l48 24 24 24 23 47v119l-23 48-24 24-48 24h-119l-48-24-23-24"/></g><path fill="none" d="M21000 34000h1500" style="fill:#840000;fill-opacity:0;stroke:#840000;stroke-width:60;stroke-opacity:1;stroke-linecap:round;stroke-linejoin:round"/><g class="stroked-text" style="fill:#006464;fill-opacity:0;stroke:#006464;stroke-width:60;stroke-opacity:1;stroke-linecap:round;stroke-linejoin:round"><path fill="none" d="M18879 34226v-500l167 357 166-357v500M19546 33726h95l48 24 47 47 24 95v167l-24 95-47 48-48 24h-95l-48-24-48-48-23-95v-167l23-95 48-47 48-24M19950 34202l72 24h119l48-24 23-24 24-48v-47l-24-48-23-24-48-23-95-24-48-24-24-24-24-47v-48l24-48 24-23 48-24h119l71 24M20450 34226v-500"/></g><g class="stroked-text" style="fill:#a90000;fill-opacity:0;stroke:#a90000;stroke-width:60;stroke-opacity:1;stroke-linecap:round;stroke-linejoin:round"><path fill="none" d="M21845 33376h-95l-48 24-24 23-48 72-23 95v190l23 48 24 24 48 24h95l48-24 24-24 23-48v-119l-23-47-24-24-48-24h-95l-48 24-24 24-23 47"/></g><path fill="none" d="M21000 33000h1500" style="fill:#840000;fill-opacity:0;stroke:#840000;stroke-width:60;stroke-opacity:1;stroke-linecap:round;stroke-linejoin:round"/><g class="stroked-text" style="fill:#006464;fill-opacity:0;stroke:#006464;stroke-width:60;stroke-opacity:1;stroke-linecap:round;stroke-linejoin:round"><path fill="none" d="M18879 33226v-500l167 357 166-357v500M19450 33226v-500M19665 33202l71 24h119l48-24 24-24 23-48v-47l-23-48-24-24-48-23-95-24-48-24-23-24-24-47v-48l24-48 23-23 48-24h119l71 24M20260 32726h95l48 24 47 47 24 95v167l-24 95-47 48-48 24h-95l-48-24-47-48-24-95v-167l24-95 47-47 48-24"/></g><g class="stroked-text" style="fill:#a90000;fill-opacity:0;stroke:#a90000;stroke-width:60;stroke-opacity:1;stroke-linecap:round;stroke-linejoin:round"><path fill="none" d="M21583 32376h333l-214 500"/></g><path fill="none" d="M21000 28000h1500" style="fill:#840000;fill-opacity:0;stroke:#840000;stroke-width:60;stroke-opacity:1;stroke-linecap:round;stroke-linejoin:round"/><g class="stroked-text" style="fill:#006464;fill-opacity:0;stroke:#006464;stroke-width:60;stroke-opacity:1;stroke-linecap:round;stroke-linejoin:round"><path fill="none" d="M19427 28226v-500M19950 28226l-166-238M19665 28226v-500h190l48 24 24 23 23 48v71l-23 48-24 24-48 24h-190M20498 28273l-48-23-47-48-72-72-47-23h-48"/><path fill="none" d="m20260 28226-48-24-47-48-24-95v-167l24-95 47-47 48-24h95l48 24 47 47 24 95v167l-24 95-47 48-48 24h-95"/></g><g class="stroked-text" style="fill:#a90000;fill-opacity:0;stroke:#a90000;stroke-width:60;stroke-opacity:1;stroke-linecap:round;stroke-linejoin:round"><path fill="none" d="m21702 27590-48-24-24-24-23-47v-24l23-48 24-23 48-24h95l48 24 24 23 23 48v24l-23 47-24 24-48 24h-95l-48 24-24 24-23 47v95l23 48 24 24 48 24h95l48-24 24-24 23-48v-95l-23-47-24-24-48-24"/></g><g style="fill:#006464;fill-opacity:0;stroke:#006464;stroke-width:60;stroke-opacity:1;stroke-linecap:round;stroke-linejoin:round"><g class="stroked-text"><path fill="none" d="M12635 30226v404l24 48 24 24 47 24h95l48-24 24-24 24-48v-404M13230 30678l24 24-24 24-24-24 24-24v48M13135 30249l48-23h119l47 23 24 48v48l-24 47-24 24-47 24-24 24-24 47v24"/></g><g class="stroked-text"><path fill="none" d="M6159 31726v-500l285 500v-500M6968 31726l-166-238M6682 31726v-500h191l48 23 23 24 24 48v71l-24 48-23 24-48 24h-191M7349 31464h-167M7182 31726v-500h239M7587 31273l24-24 48-23h119l47 23 24 24 24 48v47l-24 72-286 286h310M8302 31392v334M8182 31202l-119 357h310M8802 31726h-239v-500M9063 31226h48l48 23 23 24 24 48 24 95v119l-24 95-24 48-23 24-48 24h-48l-47-24-24-24-24-48-24-95v-119l24-95 24-48 24-24 47-23M9706 31726h-285M9563 31726v-500l-47 71-48 48-47 23M9802 31773h380M10468 31464l72 24 23 23 24 48v71l-24 48-23 24-48 24h-190v-500h166l48 23 24 24 23 48v47l-23 48-24 24-48 24h-166M10802 31726v-334M10802 31488l23-48 24-24 48-24h47M11302 31702l-48 24h-95l-48-24-24-48v-190l24-48 48-24h95l48 24 23 48v47l-238 48M11754 31726v-262l-24-48-48-24h-95l-47 24"/><path fill="none" d="m11754 31702-48 24h-119l-47-24-24-48v-47l24-48 47-24h119l48-24M11992 31726v-500M12040 31535l142 191M12182 31392l-190 191M12468 31726l-47-24-24-24-24-48v-142l24-48 24-24 47-24h72l47 24 24 24 24 48v142l-24 48-24 24-47 24h-72M13063 31392v334M12849 31392v262l24 48 48 24h71l48-24 23-24M13230 31392h191M13302 31226v428l23 48 48 24h48"/></g></g></g><g style="fill:#006464;fill-opacity:0;stroke:#006464;stroke-width:60;stroke-opacity:1;stroke-linecap:round;stroke-linejoin:round"><g fill="none" style="fill:#840000;fill-opacity:0;stroke:#840000;stroke-width:60;stroke-opacity:1;stroke-linecap:round;stroke-linejoin:round"><rect width="5500" height="4000" x="19000" y="19000" rx="0"/><path d="M24500 19500h1500"/></g><g class="stroked-text" style="fill:#006464;fill-opacity:0;stroke:#006464;stroke-width:60;stroke-opacity:1;stroke-linecap:round;stroke-linejoin:round"><path fill="none" d="m23127 19250-48-24h-71l-72 24-47 47-24 48-24 95v71l24 96 24 47 47 48 72 24h47l72-24 23-24v-167h-95M23365 19726v-500l285 500v-500M23889 19726v-500h119l71 24 48 47 23 48 24 95v71l-24 96-23 47-48 48-71 24h-119"/></g><g class="stroked-text" style="fill:#a90000;fill-opacity:0;stroke:#a90000;stroke-width:60;stroke-opacity:1;stroke-linecap:round;stroke-linejoin:round"><path fill="none" d="M25392 19376h-285M25250 19376v-500l-48 71-48 48-47 24"/></g><path fill="none" d="M24500 20500h1500" style="fill:#840000;fill-opacity:0;stroke:#840000;stroke-width:60;stroke-opacity:1;stroke-linecap:round;stroke-linejoin:round"/><g class="stroked-text" style="fill:#006464;fill-opacity:0;stroke:#006464;stroke-width:60;stroke-opacity:1;stroke-linecap:round;stroke-linejoin:round"><path fill="none" d="m23031 20226 167 500 167-500M23746 20702l-48 24h-95l-48-24-24-24-23-48v-142l23-48 24-24 48-24h95l48 24M24174 20702l-47 24h-96l-47-24-24-24-24-48v-142l24-48 24-24 47-24h96l47 24"/></g><g class="stroked-text" style="fill:#a90000;fill-opacity:0;stroke:#a90000;stroke-width:60;stroke-opacity:1;stroke-linecap:round;stroke-linejoin:round"><path fill="none" d="m25107 19923 23-23 48-24h119l48 24 24 23 23 48v48l-23 71-286 286h309"/></g><path fill="none" d="M24500 21500h1500" style="fill:#840000;fill-opacity:0;stroke:#840000;stroke-width:60;stroke-opacity:1;stroke-linecap:round;stroke-linejoin:round"/><g class="stroked-text" style="fill:#006464;fill-opacity:0;stroke:#006464;stroke-width:60;stroke-opacity:1;stroke-linecap:round;stroke-linejoin:round"><path fill="none" d="m22984 21702 71 24h119l48-24 24-24 24-48v-47l-24-48-24-24-48-23-95-24-48-24-23-24-24-47v-48l24-48 23-23 48-24h119l72 24M23770 21678l-24 24-72 24h-47l-72-24-47-48-24-47-24-96v-71l24-95 24-48 47-47 72-24h47l72 24 24 23M24222 21726h-238v-500"/></g><g class="stroked-text" style="fill:#a90000;fill-opacity:0;stroke:#a90000;stroke-width:60;stroke-opacity:1;stroke-linecap:round;stroke-linejoin:round"><path fill="none" d="M25083 20876h309l-166 190h71l48 24 24 24 23 47v119l-23 48-24 24-48 24h-143l-47-24-24-24"/></g><path fill="none" d="M24500 22500h1500" style="fill:#840000;fill-opacity:0;stroke:#840000;stroke-width:60;stroke-opacity:1;stroke-linecap:round;stroke-linejoin:round"/><g class="stroked-text" style="fill:#006464;fill-opacity:0;stroke:#006464;stroke-width:60;stroke-opacity:1;stroke-linecap:round;stroke-linejoin:round"><path fill="none" d="m22960 22702 71 24h119l48-24 24-24 24-48v-47l-24-48-24-24-48-23-95-24-47-24-24-24-24-47v-48l24-48 24-23 47-24h119l72 24M23460 22726v-500h119l71 24 48 47 24 48 24 95v71l-24 96-24 47-48 48-71 24h-119M23936 22583h238M23889 22726l166-500 167 500"/></g><g class="stroked-text" style="fill:#a90000;fill-opacity:0;stroke:#a90000;stroke-width:60;stroke-opacity:1;stroke-linecap:round;stroke-linejoin:round"><path fill="none" d="M25345 22042v334M25226 21852l-119 357h309"/></g><g style="fill:#006464;fill-opacity:0;stroke:#006464;stroke-width:60;stroke-opacity:1;stroke-linecap:round;stroke-linejoin:round"><g class="stroked-text"><path fill="none" d="M21392 16726v404l24 48 24 24 48 24h95l47-24 24-24 24-48v-404M21988 17178l23 24-23 24-24-24 24-24v48M21892 16749l48-23h119l48 23 23 48v48l-23 47-24 24-48 24-24 24-23 47v24"/></g><g class="stroked-text"><path fill="none" d="M18714 17726h95l48 23 47 48 24 95v167l-24 95-47 48-48 24h-95l-48-24-47-48-24-95v-167l24-95 47-48 48-23M19380 18226h-238v-500M19547 17964h167M19785 18226h-238v-500h238M20000 18226v-500h119l71 23 48 48 23 48 24 95v71l-24 96-23 47-48 48-71 24h-119M20380 18273h381M20880 18226v-500M21095 17773l24-24 47-23h119l48 23 24 24 23 48v47l-23 72-286 286h309M21880 18178l-23 24-72 24h-47l-72-24-47-48-24-47-24-96v-71l24-95 24-48 47-48 72-23h47l72 23 23 24M21976 18273h381M22690 18226v-500M22690 18202l-48 24h-95l-47-24-24-24-24-48v-142l24-48 24-24 47-24h95l48 24M22928 18226v-334M22928 17726l-24 23 24 24 24-24-24-23v47M23142 18202l48 24h95l48-24 24-48v-24l-24-47-48-24h-71l-48-24-24-47v-24l24-48 48-24h71l48 24M23571 17892v500M23571 17916l48-24h95l47 24 24 24 24 48v142l-24 48-24 24-47 24h-95l-48-24M24095 18226l-48-24-24-48v-428M24500 18226v-262l-24-48-48-24h-95l-48 24"/><path fill="none" d="m24500 18202-48 24h-119l-48-24-24-48v-47l24-48 48-24h119l48-24M24690 17892l119 334M24928 17892l-119 334-48 119-23 23-48 24"/></g></g></g><g style="fill:#006464;fill-opacity:0;stroke:#006464;stroke-width:60;stroke-opacity:1;stroke-linecap:round;stroke-linejoin:round"><rect width="20000" height="30000" x="37000" y="20000" rx="0" style="fill:#ffffc2;fill-opacity:.6;stroke:#ffffc2;stroke-width:.03937;stroke-opacity:1;stroke-linecap:round;stroke-linejoin:round"/><g fill="none" style="fill:#840000;fill-opacity:0;stroke:#840000;stroke-width:100;stroke-opacity:1;stroke-linecap:round;stroke-linejoin:round"><rect width="20000" height="30000" x="37000" y="20000" rx="0"/><rect width="20000" height="30000" x="37000" y="20000" rx="0"/></g><path fill="none" d="M57000 23000h2000" style="fill:#840000;fill-opacity:0;stroke:#840000;stroke-width:60;stroke-opacity:1;stroke-linecap:round;stroke-linejoin:round"/><g class="stroked-text" style="fill:#006464;fill-opacity:0;stroke:#006464;stroke-width:60;stroke-opacity:1;stroke-linecap:round;stroke-linejoin:round"><path fill="none" d="M54836 22780h248l-134 153h58l38 19 19 19 19 38v95l-19 38-19 19-38 19h-115l-38-19-19-19M55198 22780l133 400 134-400M55560 22780h248l-134 153h57l39 19 19 19 19 38v95l-19 38-19 19-39 19h-114l-38-19-19-19M55884 23219h305M56493 23180h-228M56379 23180v-400l-38 58-38 38-38 19"/></g><g class="stroked-text" style="fill:#a90000;fill-opacity:0;stroke:#a90000;stroke-width:60;stroke-opacity:1;stroke-linecap:round;stroke-linejoin:round"><path fill="none" d="M58114 22880h-229M58000 22880v-400l-39 58-38 38-38 19"/></g><path fill="none" d="M57000 26000h2000" style="fill:#840000;fill-opacity:0;stroke:#840000;stroke-width:60;stroke-opacity:1;stroke-linecap:round;stroke-linejoin:round"/><g class="stroked-text" style="fill:#006464;fill-opacity:0;stroke:#006464;stroke-width:60;stroke-opacity:1;stroke-linecap:round;stroke-linejoin:round"><path fill="none" d="m52722 25800-38-20h-57l-57 20-39 38-19 38-19 76v57l19 76 19 38 39 38 57 19h38l57-19 19-19v-133h-76M52912 26180v-400h153l38 20 19 19 19 38v57l-19 38-19 19-38 19h-153M53312 26180v-400M53579 25780h76l38 20 38 38 19 76v133l-19 76-38 38-38 19h-76l-38-19-38-38-19-76v-133l19-76 38-38 38-20M54131 26180h-228M54017 26180v-400l-38 58-38 38-38 19M54493 25780h-190l-19 191 19-19 38-19h95l38 19 19 19 19 38v95l-19 38-19 19-38 19h-95l-38-19-19-19M54970 25761l-343 515M55331 26180l-133-190M55103 26180v-400h152l38 20 19 19 19 38v57l-19 38-19 19-38 19h-152M55465 25780l266 400M55731 25780l-266 400M55884 26180v-400h95l57 20 38 38 19 38 19 76v57l-19 76-19 38-38 38-57 19h-95M56360 25780h38l38 20 19 19 19 38 19 76v95l-19 76-19 38-19 19-38 19h-38l-38-19-19-19-19-38-19-76v-95l19-76 19-38 19-19 38-20"/></g><g class="stroked-text" style="fill:#a90000;fill-opacity:0;stroke:#a90000;stroke-width:60;stroke-opacity:1;stroke-linecap:round;stroke-linejoin:round"><path fill="none" d="M57923 25880h-228M57809 25880v-400l-38 58-38 38-38 19M58171 25480h38l38 20 19 19 19 38 19 76v95l-19 76-19 38-19 19-38 19h-38l-38-19-19-19-19-38-19-76v-95l19-76 19-38 19-19 38-20"/></g><path fill="none" d="M57000 28000h2000" style="fill:#840000;fill-opacity:0;stroke:#840000;stroke-width:60;stroke-opacity:1;stroke-linecap:round;stroke-linejoin:round"/><g class="stroked-text" style="fill:#006464;fill-opacity:0;stroke:#006464;stroke-width:60;stroke-opacity:1;stroke-linecap:round;stroke-linejoin:round"><path fill="none" d="m51008 27800-38-20h-58l-57 20-38 38-19 38-19 76v57l19 76 19 38 38 38 57 19h38l58-19 19-19v-133h-77M51198 28180v-400h152l39 20 19 19 19 38v57l-19 38-19 19-39 19h-152M51598 28180v-400M51865 27780h76l38 20 38 38 19 76v133l-19 76-38 38-38 19h-76l-38-19-38-38-19-76v-133l19-76 38-38 38-20M52417 28180h-228M52303 28180v-400l-38 58-38 38-38 19M52550 27780h267l-171 400M53255 27761l-343 515M53598 27800l-38-20h-57l-57 20-38 38-19 38-19 76v57l19 76 19 38 38 38 57 19h38l57-19 19-19v-133h-76M53789 28180v-400h152l38 20 19 19 19 38v57l-19 38-19 19-38 19h-152M54189 28180v-400M54455 27780h76l39 20 38 38 19 76v133l-19 76-38 38-39 19h-76l-38-19-38-38-19-76v-133l19-76 38-38 38-20M54703 28219h305M55312 27800l-38-20h-57l-57 20-38 38-19 38-19 76v57l19 76 19 38 38 38 57 19h38l57-19 19-19v-133h-76M55503 27971h133M55693 28180h-190v-400h190M55865 28180v-400l228 400v-400M56360 27780h38l38 20 19 19 19 38 19 76v95l-19 76-19 38-19 19-38 19h-38l-38-19-19-19-19-38-19-76v-95l19-76 19-38 19-19 38-20"/></g><g class="stroked-text" style="fill:#a90000;fill-opacity:0;stroke:#a90000;stroke-width:60;stroke-opacity:1;stroke-linecap:round;stroke-linejoin:round"><path fill="none" d="M57923 27880h-228M57809 27880v-400l-38 58-38 38-38 19M58304 27880h-228M58190 27880v-400l-38 58-38 38-38 19"/></g><path fill="none" d="M57000 29000h2000" style="fill:#840000;fill-opacity:0;stroke:#840000;stroke-width:60;stroke-opacity:1;stroke-linecap:round;stroke-linejoin:round"/><g class="stroked-text" style="fill:#006464;fill-opacity:0;stroke:#006464;stroke-width:60;stroke-opacity:1;stroke-linecap:round;stroke-linejoin:round"><path fill="none" d="m51008 28800-38-20h-58l-57 20-38 38-19 38-19 76v57l19 76 19 38 38 38 57 19h38l58-19 19-19v-133h-77M51198 29180v-400h152l39 20 19 19 19 38v57l-19 38-19 19-39 19h-152M51598 29180v-400M51865 28780h76l38 20 38 38 19 76v133l-19 76-38 38-38 19h-76l-38-19-38-38-19-76v-133l19-76 38-38 38-20M52417 29180h-228M52303 29180v-400l-38 58-38 38-38 19M52646 28952l-38-19-19-19-19-38v-19l19-38 19-19 38-20h76l38 20 19 19 19 38v19l-19 38-19 19-38 19h-76l-38 19-19 19-19 38v76l19 38 19 19 38 19h76l38-19 19-19 19-38v-76l-19-38-19-19-38-19M53255 28761l-343 515M53598 28800l-38-20h-57l-57 20-38 38-19 38-19 76v57l19 76 19 38 38 38 57 19h38l57-19 19-19v-133h-76M53789 29180v-400h152l38 20 19 19 19 38v57l-19 38-19 19-38 19h-152M54189 29180v-400M54455 28780h76l39 20 38 38 19 76v133l-19 76-38 38-39 19h-76l-38-19-38-38-19-76v-133l19-76 38-38 38-20M54703 29219h305M55312 28800l-38-20h-57l-57 20-38 38-19 38-19 76v57l19 76 19 38 38 38 57 19h38l57-19 19-19v-133h-76M55503 28971h133M55693 29180h-190v-400h190M55865 29180v-400l228 400v-400M56493 29180h-228M56379 29180v-400l-38 58-38 38-38 19"/></g><g class="stroked-text" style="fill:#a90000;fill-opacity:0;stroke:#a90000;stroke-width:60;stroke-opacity:1;stroke-linecap:round;stroke-linejoin:round"><path fill="none" d="M57923 28880h-228M57809 28880v-400l-38 58-38 38-38 19M58076 28519l19-19 38-20h95l38 20 19 19 19 38v38l-19 57-228 228h247"/></g><path fill="none" d="M57000 38000h2000" style="fill:#840000;fill-opacity:0;stroke:#840000;stroke-width:60;stroke-opacity:1;stroke-linecap:round;stroke-linejoin:round"/><g class="stroked-text" style="fill:#006464;fill-opacity:0;stroke:#006464;stroke-width:60;stroke-opacity:1;stroke-linecap:round;stroke-linejoin:round"><path fill="none" d="m51008 37800-38-20h-58l-57 20-38 38-19 38-19 76v57l19 76 19 38 38 38 57 19h38l58-19 19-19v-133h-77M51198 38180v-400h152l39 20 19 19 19 38v57l-19 38-19 19-39 19h-152M51598 38180v-400M51865 37780h76l38 20 38 38 19 76v133l-19 76-38 38-38 19h-76l-38-19-38-38-19-76v-133l19-76 38-38 38-20M52189 37819l19-19 38-20h95l38 20 19 19 19 38v38l-19 57-228 228h247M52550 37780h267l-171 400M53255 37761l-343 515M53598 37800l-38-20h-57l-57 20-38 38-19 38-19 76v57l19 76 19 38 38 38 57 19h38l57-19 19-19v-133h-76M53789 38180v-400h152l38 20 19 19 19 38v57l-19 38-19 19-38 19h-152M54189 38180v-400M54455 37780h76l39 20 38 38 19 76v133l-19 76-38 38-39 19h-76l-38-19-38-38-19-76v-133l19-76 38-38 38-20M54703 38219h305M55312 37800l-38-20h-57l-57 20-38 38-19 38-19 76v57l19 76 19 38 38 38 57 19h38l57-19 19-19v-133h-76M55503 37971h133M55693 38180h-190v-400h190M55865 38180v-400l228 400v-400M56265 37819l19-19 38-20h95l38 20 19 19 19 38v38l-19 57-228 228h247"/></g><g class="stroked-text" style="fill:#a90000;fill-opacity:0;stroke:#a90000;stroke-width:60;stroke-opacity:1;stroke-linecap:round;stroke-linejoin:round"><path fill="none" d="M57923 37880h-228M57809 37880v-400l-38 58-38 38-38 19M58057 37480h247l-133 153h57l38 19 19 19 19 38v95l-19 38-19 19-38 19h-114l-38-19-19-19"/></g><path fill="none" d="M57000 44000h2000" style="fill:#840000;fill-opacity:0;stroke:#840000;stroke-width:60;stroke-opacity:1;stroke-linecap:round;stroke-linejoin:round"/><g class="stroked-text" style="fill:#006464;fill-opacity:0;stroke:#006464;stroke-width:60;stroke-opacity:1;stroke-linecap:round;stroke-linejoin:round"><path fill="none" d="m54589 43800-39-20h-57l-57 20-38 38-19 38-19 76v57l19 76 19 38 38 38 57 19h38l58-19 19-19v-133h-77M54779 44180v-400l229 400v-400M55198 44180v-400h95l57 20 39 38 19 38 19 76v57l-19 76-19 38-39 38-57 19h-95M55503 44219h305M56112 44180h-228M55998 44180v-400l-38 58-38 38-38 19M56455 43914v266M56360 43761l-95 286h247"/></g><g class="stroked-text" style="fill:#a90000;fill-opacity:0;stroke:#a90000;stroke-width:60;stroke-opacity:1;stroke-linecap:round;stroke-linejoin:round"><path fill="none" d="M57923 43880h-228M57809 43880v-400l-38 58-38 38-38 19M58266 43614v266M58171 43461l-95 286h247"/></g><path fill="none" d="M57000 33000h2000" style="fill:#840000;fill-opacity:0;stroke:#840000;stroke-width:60;stroke-opacity:1;stroke-linecap:round;stroke-linejoin:round"/><g class="stroked-text" style="fill:#006464;fill-opacity:0;stroke:#006464;stroke-width:60;stroke-opacity:1;stroke-linecap:round;stroke-linejoin:round"><path fill="none" d="m51008 32800-38-20h-58l-57 20-38 38-19 38-19 76v57l19 76 19 38 38 38 57 19h38l58-19 19-19v-133h-77M51198 33180v-400h152l39 20 19 19 19 38v57l-19 38-19 19-39 19h-152M51598 33180v-400M51865 32780h76l38 20 38 38 19 76v133l-19 76-38 38-38 19h-76l-38-19-38-38-19-76v-133l19-76 38-38 38-20M52189 32819l19-19 38-20h95l38 20 19 19 19 38v38l-19 57-228 228h247M52570 32819l19-19 38-20h95l38 20 19 19 19 38v38l-19 57-229 228h248M53255 32761l-343 515M53598 32800l-38-20h-57l-57 20-38 38-19 38-19 76v57l19 76 19 38 38 38 57 19h38l57-19 19-19v-133h-76M53789 33180v-400h152l38 20 19 19 19 38v57l-19 38-19 19-38 19h-152M54189 33180v-400M54455 32780h76l39 20 38 38 19 76v133l-19 76-38 38-39 19h-76l-38-19-38-38-19-76v-133l19-76 38-38 38-20M54703 33219h305M55312 32800l-38-20h-57l-57 20-38 38-19 38-19 76v57l19 76 19 38 38 38 57 19h38l57-19 19-19v-133h-76M55503 32971h133M55693 33180h-190v-400h190M55865 33180v-400l228 400v-400M56246 32780h247l-133 153h57l38 19 19 19 19 38v95l-19 38-19 19-38 19h-114l-38-19-19-19"/></g><g class="stroked-text" style="fill:#a90000;fill-opacity:0;stroke:#a90000;stroke-width:60;stroke-opacity:1;stroke-linecap:round;stroke-linejoin:round"><path fill="none" d="M57923 32880h-228M57809 32880v-400l-38 58-38 38-38 19M58285 32480h-190l-19 191 19-19 38-19h95l38 19 19 19 19 38v95l-19 38-19 19-38 19h-95l-38-19-19-19"/></g><path fill="none" d="M57000 34000h2000" style="fill:#840000;fill-opacity:0;stroke:#840000;stroke-width:60;stroke-opacity:1;stroke-linecap:round;stroke-linejoin:round"/><g class="stroked-text" style="fill:#006464;fill-opacity:0;stroke:#006464;stroke-width:60;stroke-opacity:1;stroke-linecap:round;stroke-linejoin:round"><path fill="none" d="m51008 33800-38-20h-58l-57 20-38 38-19 38-19 76v57l19 76 19 38 38 38 57 19h38l58-19 19-19v-133h-77M51198 34180v-400h152l39 20 19 19 19 38v57l-19 38-19 19-39 19h-152M51598 34180v-400M51865 33780h76l38 20 38 38 19 76v133l-19 76-38 38-38 19h-76l-38-19-38-38-19-76v-133l19-76 38-38 38-20M52189 33819l19-19 38-20h95l38 20 19 19 19 38v38l-19 57-228 228h247M52550 33780h248l-133 153h57l38 19 19 19 19 38v95l-19 38-19 19-38 19h-114l-38-19-20-19M53255 33761l-343 515M53598 33800l-38-20h-57l-57 20-38 38-19 38-19 76v57l19 76 19 38 38 38 57 19h38l57-19 19-19v-133h-76M53789 34180v-400h152l38 20 19 19 19 38v57l-19 38-19 19-38 19h-152M54189 34180v-400M54455 33780h76l39 20 38 38 19 76v133l-19 76-38 38-39 19h-76l-38-19-38-38-19-76v-133l19-76 38-38 38-20M54703 34219h305M55312 33800l-38-20h-57l-57 20-38 38-19 38-19 76v57l19 76 19 38 38 38 57 19h38l57-19 19-19v-133h-76M55503 33971h133M55693 34180h-190v-400h190M55865 34180v-400l228 400v-400M56455 33914v266M56360 33761l-95 286h247"/></g><g class="stroked-text" style="fill:#a90000;fill-opacity:0;stroke:#a90000;stroke-width:60;stroke-opacity:1;stroke-linecap:round;stroke-linejoin:round"><path fill="none" d="M57923 33880h-228M57809 33880v-400l-38 58-38 38-38 19M58266 33480h-76l-38 20-19 19-38 57-19 76v152l19 38 19 19 38 19h76l38-19 19-19 19-38v-95l-19-38-19-19-38-19h-76l-38 19-19 19-19 38"/></g><path fill="none" d="M57000 24000h2000" style="fill:#840000;fill-opacity:0;stroke:#840000;stroke-width:60;stroke-opacity:1;stroke-linecap:round;stroke-linejoin:round"/><g class="stroked-text" style="fill:#006464;fill-opacity:0;stroke:#006464;stroke-width:60;stroke-opacity:1;stroke-linecap:round;stroke-linejoin:round"><path fill="none" d="M54455 23780h248l-133 153h57l38 19 19 19 19 38v95l-19 38-19 19-38 19h-115l-38-19-19-19M54817 23780l133 400 134-400M55179 23780h248l-134 153h57l39 19 19 19 19 38v95l-19 38-19 19-39 19h-114l-38-19-19-19M55503 24219h305M56112 24180h-228M55998 24180v-400l-38 58-38 38-38 19M56246 23780h266l-171 400"/></g><g class="stroked-text" style="fill:#a90000;fill-opacity:0;stroke:#a90000;stroke-width:60;stroke-opacity:1;stroke-linecap:round;stroke-linejoin:round"><path fill="none" d="M57923 23880h-228M57809 23880v-400l-38 58-38 38-38 19M58057 23480h266l-171 400"/></g><path fill="none" d="M57000 35000h2000" style="fill:#840000;fill-opacity:0;stroke:#840000;stroke-width:60;stroke-opacity:1;stroke-linecap:round;stroke-linejoin:round"/><g class="stroked-text" style="fill:#006464;fill-opacity:0;stroke:#006464;stroke-width:60;stroke-opacity:1;stroke-linecap:round;stroke-linejoin:round"><path fill="none" d="m51008 34800-38-20h-58l-57 20-38 38-19 38-19 76v57l19 76 19 38 38 38 57 19h38l58-19 19-19v-133h-77M51198 35180v-400h152l39 20 19 19 19 38v57l-19 38-19 19-39 19h-152M51598 35180v-400M51865 34780h76l38 20 38 38 19 76v133l-19 76-38 38-38 19h-76l-38-19-38-38-19-76v-133l19-76 38-38 38-20M52189 34819l19-19 38-20h95l38 20 19 19 19 38v38l-19 57-228 228h247M52760 34914v266M52665 34761l-95 286h247M53255 34761l-343 515M53598 34800l-38-20h-57l-57 20-38 38-19 38-19 76v57l19 76 19 38 38 38 57 19h38l57-19 19-19v-133h-76M53789 35180v-400h152l38 20 19 19 19 38v57l-19 38-19 19-38 19h-152M54189 35180v-400M54455 34780h76l39 20 38 38 19 76v133l-19 76-38 38-39 19h-76l-38-19-38-38-19-76v-133l19-76 38-38 38-20M54703 35219h305M55312 34800l-38-20h-57l-57 20-38 38-19 38-19 76v57l19 76 19 38 38 38 57 19h38l57-19 19-19v-133h-76M55503 34971h133M55693 35180h-190v-400h190M55865 35180v-400l228 400v-400M56474 34780h-190l-19 191 19-19 38-19h95l38 19 19 19 19 38v95l-19 38-19 19-38 19h-95l-38-19-19-19"/></g><g class="stroked-text" style="fill:#a90000;fill-opacity:0;stroke:#a90000;stroke-width:60;stroke-opacity:1;stroke-linecap:round;stroke-linejoin:round"><path fill="none" d="M57923 34880h-228M57809 34880v-400l-38 58-38 38-38 19M58152 34652l-38-19-19-19-19-38v-19l19-38 19-19 38-20h76l38 20 19 19 19 38v19l-19 38-19 19-38 19h-76l-38 19-19 19-19 38v76l19 38 19 19 38 19h76l38-19 19-19 19-38v-76l-19-38-19-19-38-19"/></g><path fill="none" d="M37000 34000h-2000" style="fill:#840000;fill-opacity:0;stroke:#840000;stroke-width:60;stroke-opacity:1;stroke-linecap:round;stroke-linejoin:round"/><g class="stroked-text" style="fill:#006464;fill-opacity:0;stroke:#006464;stroke-width:60;stroke-opacity:1;stroke-linecap:round;stroke-linejoin:round"><path fill="none" d="m37734 33800-38-20h-57l-57 20-38 38-19 38-19 76v57l19 76 19 38 38 38 57 19h38l57-19 19-19v-133h-76M37925 34180v-400h152l38 20 19 19 19 38v57l-19 38-19 19-38 19h-152M38325 34180v-400M38591 33780h77l38 20 38 38 19 76v133l-19 76-38 38-38 19h-77l-38-19-38-38-19-76v-133l19-76 38-38 38-20M39144 34180h-229M39030 34180v-400l-39 58-38 38-38 19M39391 33780h39l38 20 19 19 19 38 19 76v95l-19 76-19 38-19 19-38 19h-39l-38-19-19-19-19-38-19-76v-95l19-76 19-38 19-19 38-20M39982 33761l-343 515M40096 34161l57 19h96l38-19 19-19 19-38v-38l-19-38-19-19-38-19-77-19-38-19-19-19-19-38v-38l19-38 19-19 38-20h96l57 20M40496 34180v-400h153l38 20 19 19 19 38v57l-19 38-19 19-38 19h-153M40896 34180v-400M40991 34219h305M41391 34180v-400l134 286 133-286v400M41925 33780h76l38 20 38 38 19 76v133l-19 76-38 38-38 19h-76l-38-19-38-38-19-76v-133l19-76 38-38 38-20M42249 34161l57 19h95l38-19 19-19 19-38v-38l-19-38-19-19-38-19-76-19-38-19-19-19-19-38v-38l19-38 19-19 38-20h95l57 20M42649 34180v-400"/></g><g class="stroked-text" style="fill:#a90000;fill-opacity:0;stroke:#a90000;stroke-width:60;stroke-opacity:1;stroke-linecap:round;stroke-linejoin:round"><path fill="none" d="M35923 33880h-228M35809 33880v-400l-38 58-38 38-38 19M36114 33880h76l38-19 19-19 38-57 19-76v-152l-19-38-19-19-38-20h-76l-38 20-19 19-19 38v95l19 38 19 19 38 19h76l38-19 19-19 19-38"/></g><path fill="none" d="M57000 21000h2000" style="fill:#840000;fill-opacity:0;stroke:#840000;stroke-width:60;stroke-opacity:1;stroke-linecap:round;stroke-linejoin:round"/><g class="stroked-text" style="fill:#006464;fill-opacity:0;stroke:#006464;stroke-width:60;stroke-opacity:1;stroke-linecap:round;stroke-linejoin:round"><path fill="none" d="M55446 20780h-191l-19 191 19-19 38-19h96l38 19 19 19 19 38v95l-19 38-19 19-38 19h-96l-38-19-19-19M55579 20780l133 400 134-400M55884 21219h305M56265 20819l19-19 38-20h95l38 20 19 19 19 38v38l-19 57-228 228h247"/></g><g class="stroked-text" style="fill:#a90000;fill-opacity:0;stroke:#a90000;stroke-width:60;stroke-opacity:1;stroke-linecap:round;stroke-linejoin:round"><path fill="none" d="m57885 20519 19-19 38-20h96l38 20 19 19 19 38v38l-19 57-229 228h248"/></g><path fill="none" d="M57000 45000h2000" style="fill:#840000;fill-opacity:0;stroke:#840000;stroke-width:60;stroke-opacity:1;stroke-linecap:round;stroke-linejoin:round"/><g class="stroked-text" style="fill:#006464;fill-opacity:0;stroke:#006464;stroke-width:60;stroke-opacity:1;stroke-linecap:round;stroke-linejoin:round"><path fill="none" d="m54589 44800-39-20h-57l-57 20-38 38-19 38-19 76v57l19 76 19 38 38 38 57 19h38l58-19 19-19v-133h-77M54779 45180v-400l229 400v-400M55198 45180v-400h95l57 20 39 38 19 38 19 76v57l-19 76-19 38-39 38-57 19h-95M55503 45219h305M55884 44819l19-19 38-20h95l38 20 19 19 19 38v38l-19 57-228 228h247M56360 44780h38l38 20 19 19 19 38 19 76v95l-19 76-19 38-19 19-38 19h-38l-38-19-19-19-19-38-19-76v-95l19-76 19-38 19-19 38-20"/></g><g class="stroked-text" style="fill:#a90000;fill-opacity:0;stroke:#a90000;stroke-width:60;stroke-opacity:1;stroke-linecap:round;stroke-linejoin:round"><path fill="none" d="m57695 44519 19-19 38-20h95l38 20 19 19 19 38v38l-19 57-228 228h247M58171 44480h38l38 20 19 19 19 38 19 76v95l-19 76-19 38-19 19-38 19h-38l-38-19-19-19-19-38-19-76v-95l19-76 19-38 19-19 38-20"/></g><path fill="none" d="M37000 33000h-2000" style="fill:#840000;fill-opacity:0;stroke:#840000;stroke-width:60;stroke-opacity:1;stroke-linecap:round;stroke-linejoin:round"/><g class="stroked-text" style="fill:#006464;fill-opacity:0;stroke:#006464;stroke-width:60;stroke-opacity:1;stroke-linecap:round;stroke-linejoin:round"><path fill="none" d="m37734 32800-38-20h-57l-57 20-38 38-19 38-19 76v57l19 76 19 38 38 38 57 19h38l57-19 19-19v-133h-76M37925 33180v-400h152l38 20 19 19 19 38v57l-19 38-19 19-38 19h-152M38325 33180v-400M38591 32780h77l38 20 38 38 19 76v133l-19 76-38 38-38 19h-77l-38-19-38-38-19-76v-133l19-76 38-38 38-20M38953 33180h77l38-19 19-19 38-57 19-76v-152l-19-38-19-19-38-20h-77l-38 20-19 19-19 38v95l19 38 19 19 38 19h77l38-19 19-19 19-38M39601 32761l-343 515M39715 33161l57 19h96l38-19 19-19 19-38v-38l-19-38-19-19-38-19-77-19-38-19-19-19-19-38v-38l19-38 19-19 38-20h96l57 20M40115 33180v-400h153l38 20 19 19 19 38v57l-19 38-19 19-38 19h-153M40515 33180v-400M40610 33219h305M41010 33180v-400l134 286 133-286v400M41468 33180v-400M41639 33161l57 19h95l39-19 19-19 19-38v-38l-19-38-19-19-39-19-76-19-38-19-19-19-19-38v-38l19-38 19-19 38-20h95l58 20M42115 32780h76l39 20 38 38 19 76v133l-19 76-38 38-39 19h-76l-38-19-38-38-19-76v-133l19-76 38-38 38-20"/></g><g class="stroked-text" style="fill:#a90000;fill-opacity:0;stroke:#a90000;stroke-width:60;stroke-opacity:1;stroke-linecap:round;stroke-linejoin:round"><path fill="none" d="m35695 32519 19-19 38-20h95l38 20 19 19 19 38v38l-19 57-228 228h247M36304 32880h-228M36190 32880v-400l-38 58-38 38-38 19"/></g><path fill="none" d="M57000 36000h2000" style="fill:#840000;fill-opacity:0;stroke:#840000;stroke-width:60;stroke-opacity:1;stroke-linecap:round;stroke-linejoin:round"/><g class="stroked-text" style="fill:#006464;fill-opacity:0;stroke:#006464;stroke-width:60;stroke-opacity:1;stroke-linecap:round;stroke-linejoin:round"><path fill="none" d="m51008 35800-38-20h-58l-57 20-38 38-19 38-19 76v57l19 76 19 38 38 38 57 19h38l58-19 19-19v-133h-77M51198 36180v-400h152l39 20 19 19 19 38v57l-19 38-19 19-39 19h-152M51598 36180v-400M51865 35780h76l38 20 38 38 19 76v133l-19 76-38 38-38 19h-76l-38-19-38-38-19-76v-133l19-76 38-38 38-20M52189 35819l19-19 38-20h95l38 20 19 19 19 38v38l-19 57-228 228h247M52779 35780h-190l-19 191 19-19 38-19h95l38 19 19 19 19 38v95l-19 38-19 19-38 19h-95l-38-19-19-19M53255 35761l-343 515M53598 35800l-38-20h-57l-57 20-38 38-19 38-19 76v57l19 76 19 38 38 38 57 19h38l57-19 19-19v-133h-76M53789 36180v-400h152l38 20 19 19 19 38v57l-19 38-19 19-38 19h-152M54189 36180v-400M54455 35780h76l39 20 38 38 19 76v133l-19 76-38 38-39 19h-76l-38-19-38-38-19-76v-133l19-76 38-38 38-20M54703 36219h305M55312 35800l-38-20h-57l-57 20-38 38-19 38-19 76v57l19 76 19 38 38 38 57 19h38l57-19 19-19v-133h-76M55503 35971h133M55693 36180h-190v-400h190M55865 36180v-400l228 400v-400M56455 35780h-76l-38 20-19 19-38 57-19 76v152l19 38 19 19 38 19h76l38-19 19-19 19-38v-95l-19-38-19-19-38-19h-76l-38 19-19 19-19 38"/></g><g class="stroked-text" style="fill:#a90000;fill-opacity:0;stroke:#a90000;stroke-width:60;stroke-opacity:1;stroke-linecap:round;stroke-linejoin:round"><path fill="none" d="m57695 35519 19-19 38-20h95l38 20 19 19 19 38v38l-19 57-228 228h247M58076 35519l19-19 38-20h95l38 20 19 19 19 38v38l-19 57-228 228h247"/></g><path fill="none" d="M37000 35000h-2000" style="fill:#840000;fill-opacity:0;stroke:#840000;stroke-width:60;stroke-opacity:1;stroke-linecap:round;stroke-linejoin:round"/><g class="stroked-text" style="fill:#006464;fill-opacity:0;stroke:#006464;stroke-width:60;stroke-opacity:1;stroke-linecap:round;stroke-linejoin:round"><path fill="none" d="m37734 34800-38-20h-57l-57 20-38 38-19 38-19 76v57l19 76 19 38 38 38 57 19h38l57-19 19-19v-133h-76M37925 35180v-400h152l38 20 19 19 19 38v57l-19 38-19 19-38 19h-152M38325 35180v-400M38591 34780h77l38 20 38 38 19 76v133l-19 76-38 38-38 19h-77l-38-19-38-38-19-76v-133l19-76 38-38 38-20M39144 35180h-229M39030 35180v-400l-39 58-38 38-38 19M39525 35180h-229M39410 35180v-400l-38 58-38 38-38 19M39982 34761l-343 515M40096 35161l57 19h96l38-19 19-19 19-38v-38l-19-38-19-19-38-19-77-19-38-19-19-19-19-38v-38l19-38 19-19 38-20h96l57 20M40496 35180v-400h153l38 20 19 19 19 38v57l-19 38-19 19-38 19h-153M40896 35180v-400M40991 35219h305M41372 35161l58 19h95l38-19 19-19 19-38v-38l-19-38-19-19-38-19-76-19-39-19-19-19-19-38v-38l19-38 19-19 39-20h95l57 20M42001 35142l-19 19-57 19h-38l-57-19-39-38-19-38-19-76v-57l19-76 19-38 39-38 57-20h38l57 20 19 19M42363 35180h-191v-400M42496 35180v-400M42725 35180l-172-228M42725 34780l-229 229"/></g><g class="stroked-text" style="fill:#a90000;fill-opacity:0;stroke:#a90000;stroke-width:60;stroke-opacity:1;stroke-linecap:round;stroke-linejoin:round"><path fill="none" d="m35695 34519 19-19 38-20h95l38 20 19 19 19 38v38l-19 57-228 228h247M36057 34480h247l-133 153h57l38 19 19 19 19 38v95l-19 38-19 19-38 19h-114l-38-19-19-19"/></g><path fill="none" d="M37000 32000h-2000" style="fill:#840000;fill-opacity:0;stroke:#840000;stroke-width:60;stroke-opacity:1;stroke-linecap:round;stroke-linejoin:round"/><g class="stroked-text" style="fill:#006464;fill-opacity:0;stroke:#006464;stroke-width:60;stroke-opacity:1;stroke-linecap:round;stroke-linejoin:round"><path fill="none" d="m37734 31800-38-20h-57l-57 20-38 38-19 38-19 76v57l19 76 19 38 38 38 57 19h38l57-19 19-19v-133h-76M37925 32180v-400h152l38 20 19 19 19 38v57l-19 38-19 19-38 19h-152M38325 32180v-400M38591 31780h77l38 20 38 38 19 76v133l-19 76-38 38-38 19h-77l-38-19-38-38-19-76v-133l19-76 38-38 38-20M38991 31952l-38-19-19-19-19-38v-19l19-38 19-19 38-20h77l38 20 19 19 19 38v19l-19 38-19 19-38 19h-77l-38 19-19 19-19 38v76l19 38 19 19 38 19h77l38-19 19-19 19-38v-76l-19-38-19-19-38-19M39601 31761l-343 515M39715 32161l57 19h96l38-19 19-19 19-38v-38l-19-38-19-19-38-19-77-19-38-19-19-19-19-38v-38l19-38 19-19 38-20h96l57 20M40115 32180v-400h153l38 20 19 19 19 38v57l-19 38-19 19-38 19h-153M40515 32180v-400M40610 32219h305M40915 31667h400M41239 32142l-19 19-57 19h-38l-57-19-38-38-20-38-19-76v-57l19-76 20-38 38-38 57-20h38l57 20 19 19M41315 31667h362M41410 31971h134M41601 32180h-191v-400h191M41677 31667h381M41849 31780h38l38 20 19 19 19 38 19 76v95l-19 76-19 38-19 19-38 19h-38l-39-19-19-19-19-38-19-76v-95l19-76 19-38 19-19 39-20"/></g><g class="stroked-text" style="fill:#a90000;fill-opacity:0;stroke:#a90000;stroke-width:60;stroke-opacity:1;stroke-linecap:round;stroke-linejoin:round"><path fill="none" d="m35695 31519 19-19 38-20h95l38 20 19 19 19 38v38l-19 57-228 228h247M36266 31614v266M36171 31461l-95 286h247"/></g><path fill="none" d="M57000 46000h2000" style="fill:#840000;fill-opacity:0;stroke:#840000;stroke-width:60;stroke-opacity:1;stroke-linecap:round;stroke-linejoin:round"/><g class="stroked-text" style="fill:#006464;fill-opacity:0;stroke:#006464;stroke-width:60;stroke-opacity:1;stroke-linecap:round;stroke-linejoin:round"><path fill="none" d="m54589 45800-39-20h-57l-57 20-38 38-19 38-19 76v57l19 76 19 38 38 38 57 19h38l58-19 19-19v-133h-77M54779 46180v-400l229 400v-400M55198 46180v-400h95l57 20 39 38 19 38 19 76v57l-19 76-19 38-39 38-57 19h-95M55503 46219h305M55884 45819l19-19 38-20h95l38 20 19 19 19 38v38l-19 57-228 228h247M56474 45780h-190l-19 191 19-19 38-19h95l38 19 19 19 19 38v95l-19 38-19 19-38 19h-95l-38-19-19-19"/></g><g class="stroked-text" style="fill:#a90000;fill-opacity:0;stroke:#a90000;stroke-width:60;stroke-opacity:1;stroke-linecap:round;stroke-linejoin:round"><path fill="none" d="m57695 45519 19-19 38-20h95l38 20 19 19 19 38v38l-19 57-228 228h247M58285 45480h-190l-19 191 19-19 38-19h95l38 19 19 19 19 38v95l-19 38-19 19-38 19h-95l-38-19-19-19"/></g><path fill="none" d="M37000 31000h-2000" style="fill:#840000;fill-opacity:0;stroke:#840000;stroke-width:60;stroke-opacity:1;stroke-linecap:round;stroke-linejoin:round"/><g class="stroked-text" style="fill:#006464;fill-opacity:0;stroke:#006464;stroke-width:60;stroke-opacity:1;stroke-linecap:round;stroke-linejoin:round"><path fill="none" d="m37734 30800-38-20h-57l-57 20-38 38-19 38-19 76v57l19 76 19 38 38 38 57 19h38l57-19 19-19v-133h-76M37925 31180v-400h152l38 20 19 19 19 38v57l-19 38-19 19-38 19h-152M38325 31180v-400M38591 30780h77l38 20 38 38 19 76v133l-19 76-38 38-38 19h-77l-38-19-38-38-19-76v-133l19-76 38-38 38-20M38896 30780h267l-172 400M39601 30761l-343 515M39715 31161l57 19h96l38-19 19-19 19-38v-38l-19-38-19-19-38-19-77-19-38-19-19-19-19-38v-38l19-38 19-19 38-20h96l57 20M40115 31180v-400h153l38 20 19 19 19 38v57l-19 38-19 19-38 19h-153M40515 31180v-400M40610 31219h305M40915 30667h400M41239 31142l-19 19-57 19h-38l-57-19-38-38-20-38-19-76v-57l19-76 20-38 38-38 57-20h38l57 20 19 19M41315 30667h362M41410 30971h134M41601 31180h-191v-400h191M41677 30667h381M41982 31180h-229M41868 31180v-400l-38 58-39 38-38 19"/></g><g class="stroked-text" style="fill:#a90000;fill-opacity:0;stroke:#a90000;stroke-width:60;stroke-opacity:1;stroke-linecap:round;stroke-linejoin:round"><path fill="none" d="m35695 30519 19-19 38-20h95l38 20 19 19 19 38v38l-19 57-228 228h247M36266 30480h-76l-38 20-19 19-38 57-19 76v152l19 38 19 19 38 19h76l38-19 19-19 19-38v-95l-19-38-19-19-38-19h-76l-38 19-19 19-19 38"/></g><path fill="none" d="M37000 40000h-2000" style="fill:#840000;fill-opacity:0;stroke:#840000;stroke-width:60;stroke-opacity:1;stroke-linecap:round;stroke-linejoin:round"/><g class="stroked-text" style="fill:#006464;fill-opacity:0;stroke:#006464;stroke-width:60;stroke-opacity:1;stroke-linecap:round;stroke-linejoin:round"><path fill="none" d="M37525 40180v-400M37715 40180v-400h95l58 20 38 38 19 38 19 76v57l-19 76-19 38-38 38-58 19h-95M38020 40219h305M38401 40161l57 19h95l38-19 19-19 20-38v-38l-20-38-19-19-38-19-76-19-38-19-19-19-19-38v-38l19-38 19-19 38-20h95l58 20M38801 40180v-400h95l57 20 38 38 19 38 20 76v57l-20 76-19 38-38 38-57 19h-95"/></g><g class="stroked-text" style="fill:#a90000;fill-opacity:0;stroke:#a90000;stroke-width:60;stroke-opacity:1;stroke-linecap:round;stroke-linejoin:round"><path fill="none" d="m35695 39519 19-19 38-20h95l38 20 19 19 19 38v38l-19 57-228 228h247M36057 39480h266l-171 400"/></g><path fill="none" d="M37000 41000h-2000" style="fill:#840000;fill-opacity:0;stroke:#840000;stroke-width:60;stroke-opacity:1;stroke-linecap:round;stroke-linejoin:round"/><g class="stroked-text" style="fill:#006464;fill-opacity:0;stroke:#006464;stroke-width:60;stroke-opacity:1;stroke-linecap:round;stroke-linejoin:round"><path fill="none" d="M37525 41180v-400M37715 41180v-400h95l58 20 38 38 19 38 19 76v57l-19 76-19 38-38 38-58 19h-95M38020 41219h305M38401 41161l57 19h95l38-19 19-19 20-38v-38l-20-38-19-19-38-19-76-19-38-19-19-19-19-38v-38l19-38 19-19 38-20h95l58 20M39030 41142l-20 19-57 19h-38l-57-19-38-38-19-38-19-76v-57l19-76 19-38 38-38 57-20h38l57 20 20 19"/></g><g class="stroked-text" style="fill:#a90000;fill-opacity:0;stroke:#a90000;stroke-width:60;stroke-opacity:1;stroke-linecap:round;stroke-linejoin:round"><path fill="none" d="m35695 40519 19-19 38-20h95l38 20 19 19 19 38v38l-19 57-228 228h247M36152 40652l-38-19-19-19-19-38v-19l19-38 19-19 38-20h76l38 20 19 19 19 38v19l-19 38-19 19-38 19h-76l-38 19-19 19-19 38v76l19 38 19 19 38 19h76l38-19 19-19 19-38v-76l-19-38-19-19-38-19"/></g><path fill="none" d="M37000 29000h-2000" style="fill:#840000;fill-opacity:0;stroke:#840000;stroke-width:60;stroke-opacity:1;stroke-linecap:round;stroke-linejoin:round"/><g class="stroked-text" style="fill:#006464;fill-opacity:0;stroke:#006464;stroke-width:60;stroke-opacity:1;stroke-linecap:round;stroke-linejoin:round"><path fill="none" d="m37734 28800-38-20h-57l-57 20-38 38-19 38-19 76v57l19 76 19 38 38 38 57 19h38l57-19 19-19v-133h-76M37925 29180v-400h152l38 20 19 19 19 38v57l-19 38-19 19-38 19h-152M38325 29180v-400M38591 28780h77l38 20 38 38 19 76v133l-19 76-38 38-38 19h-77l-38-19-38-38-19-76v-133l19-76 38-38 38-20M39125 28780h-191l-19 191 19-19 38-19h96l38 19 19 19 19 38v95l-19 38-19 19-38 19h-96l-38-19-19-19"/></g><g class="stroked-text" style="fill:#a90000;fill-opacity:0;stroke:#a90000;stroke-width:60;stroke-opacity:1;stroke-linecap:round;stroke-linejoin:round"><path fill="none" d="m35695 28519 19-19 38-20h95l38 20 19 19 19 38v38l-19 57-228 228h247M36114 28880h76l38-19 19-19 38-57 19-76v-152l-19-38-19-19-38-20h-76l-38 20-19 19-19 38v95l19 38 19 19 38 19h76l38-19 19-19 19-38"/></g><path fill="none" d="M37000 26000h-2000" style="fill:#840000;fill-opacity:0;stroke:#840000;stroke-width:60;stroke-opacity:1;stroke-linecap:round;stroke-linejoin:round"/><g class="stroked-text" style="fill:#006464;fill-opacity:0;stroke:#006464;stroke-width:60;stroke-opacity:1;stroke-linecap:round;stroke-linejoin:round"><path fill="none" d="m37734 25800-38-20h-57l-57 20-38 38-19 38-19 76v57l19 76 19 38 38 38 57 19h38l57-19 19-19v-133h-76M37925 26180v-400h152l38 20 19 19 19 38v57l-19 38-19 19-38 19h-152M38325 26180v-400M38591 25780h77l38 20 38 38 19 76v133l-19 76-38 38-38 19h-77l-38-19-38-38-19-76v-133l19-76 38-38 38-20M38915 25819l19-19 38-20h96l38 20 19 19 19 38v38l-19 57-229 228h248M39601 25761l-343 515M39715 26161l57 19h96l38-19 19-19 19-38v-38l-19-38-19-19-38-19-77-19-38-19-19-19-19-38v-38l19-38 19-19 38-20h96l57 20M40115 26180v-400h95l58 20 38 38 19 38 19 76v57l-19 76-19 38-38 38-58 19h-95M40496 26066h191M40458 26180l133-400 134 400M41068 26180h-229M40953 26180v-400l-38 58-38 38-38 19"/></g><g class="stroked-text" style="fill:#a90000;fill-opacity:0;stroke:#a90000;stroke-width:60;stroke-opacity:1;stroke-linecap:round;stroke-linejoin:round"><path fill="none" d="M35866 25480h248l-134 153h58l38 19 19 19 19 38v95l-19 38-19 19-38 19h-115l-38-19-19-19"/></g><path fill="none" d="M57000 47000h2000" style="fill:#840000;fill-opacity:0;stroke:#840000;stroke-width:60;stroke-opacity:1;stroke-linecap:round;stroke-linejoin:round"/><g class="stroked-text" style="fill:#006464;fill-opacity:0;stroke:#006464;stroke-width:60;stroke-opacity:1;stroke-linecap:round;stroke-linejoin:round"><path fill="none" d="m54589 46800-39-20h-57l-57 20-38 38-19 38-19 76v57l19 76 19 38 38 38 57 19h38l58-19 19-19v-133h-77M54779 47180v-400l229 400v-400M55198 47180v-400h95l57 20 39 38 19 38 19 76v57l-19 76-19 38-39 38-57 19h-95M55503 47219h305M55865 46780h247l-133 153h57l38 19 19 19 19 38v95l-19 38-19 19-38 19h-114l-38-19-19-19M56360 46780h38l38 20 19 19 19 38 19 76v95l-19 76-19 38-19 19-38 19h-38l-38-19-19-19-19-38-19-76v-95l19-76 19-38 19-19 38-20"/></g><g class="stroked-text" style="fill:#a90000;fill-opacity:0;stroke:#a90000;stroke-width:60;stroke-opacity:1;stroke-linecap:round;stroke-linejoin:round"><path fill="none" d="M57676 46480h247l-133 153h57l38 19 19 19 19 38v95l-19 38-19 19-38 19h-114l-38-19-19-19M58171 46480h38l38 20 19 19 19 38 19 76v95l-19 76-19 38-19 19-38 19h-38l-38-19-19-19-19-38-19-76v-95l19-76 19-38 19-19 38-20"/></g><path fill="none" d="M37000 30000h-2000" style="fill:#840000;fill-opacity:0;stroke:#840000;stroke-width:60;stroke-opacity:1;stroke-linecap:round;stroke-linejoin:round"/><g class="stroked-text" style="fill:#006464;fill-opacity:0;stroke:#006464;stroke-width:60;stroke-opacity:1;stroke-linecap:round;stroke-linejoin:round"><path fill="none" d="m37734 29800-38-20h-57l-57 20-38 38-19 38-19 76v57l19 76 19 38 38 38 57 19h38l57-19 19-19v-133h-76M37925 30180v-400h152l38 20 19 19 19 38v57l-19 38-19 19-38 19h-152M38325 30180v-400M38591 29780h77l38 20 38 38 19 76v133l-19 76-38 38-38 19h-77l-38-19-38-38-19-76v-133l19-76 38-38 38-20M39106 29780h-76l-39 20-19 19-38 57-19 76v152l19 38 19 19 38 19h77l38-19 19-19 19-38v-95l-19-38-19-19-38-19h-77l-38 19-19 19-19 38"/></g><g class="stroked-text" style="fill:#a90000;fill-opacity:0;stroke:#a90000;stroke-width:60;stroke-opacity:1;stroke-linecap:round;stroke-linejoin:round"><path fill="none" d="M35676 29480h247l-133 153h57l38 19 19 19 19 38v95l-19 38-19 19-38 19h-114l-38-19-19-19M36304 29880h-228M36190 29880v-400l-38 58-38 38-38 19"/></g><path fill="none" d="M37000 36000h-2000" style="fill:#840000;fill-opacity:0;stroke:#840000;stroke-width:60;stroke-opacity:1;stroke-linecap:round;stroke-linejoin:round"/><g class="stroked-text" style="fill:#006464;fill-opacity:0;stroke:#006464;stroke-width:60;stroke-opacity:1;stroke-linecap:round;stroke-linejoin:round"><path fill="none" d="m37734 35800-38-20h-57l-57 20-38 38-19 38-19 76v57l19 76 19 38 38 38 57 19h38l57-19 19-19v-133h-76M37925 36180v-400h152l38 20 19 19 19 38v57l-19 38-19 19-38 19h-152M38325 36180v-400M38591 35780h77l38 20 38 38 19 76v133l-19 76-38 38-38 19h-77l-38-19-38-38-19-76v-133l19-76 38-38 38-20M39144 36180h-229M39030 36180v-400l-39 58-38 38-38 19M39296 35819l19-19 38-20h96l38 20 19 19 19 38v38l-19 57-229 228h248"/></g><g class="stroked-text" style="fill:#a90000;fill-opacity:0;stroke:#a90000;stroke-width:60;stroke-opacity:1;stroke-linecap:round;stroke-linejoin:round"><path fill="none" d="M35676 35480h247l-133 153h57l38 19 19 19 19 38v95l-19 38-19 19-38 19h-114l-38-19-19-19M36076 35519l19-19 38-20h95l38 20 19 19 19 38v38l-19 57-228 228h247"/></g><path fill="none" d="M37000 37000h-2000" style="fill:#840000;fill-opacity:0;stroke:#840000;stroke-width:60;stroke-opacity:1;stroke-linecap:round;stroke-linejoin:round"/><g class="stroked-text" style="fill:#006464;fill-opacity:0;stroke:#006464;stroke-width:60;stroke-opacity:1;stroke-linecap:round;stroke-linejoin:round"><path fill="none" d="m37734 36800-38-20h-57l-57 20-38 38-19 38-19 76v57l19 76 19 38 38 38 57 19h38l57-19 19-19v-133h-76M37925 37180v-400h152l38 20 19 19 19 38v57l-19 38-19 19-38 19h-152M38325 37180v-400M38591 36780h77l38 20 38 38 19 76v133l-19 76-38 38-38 19h-77l-38-19-38-38-19-76v-133l19-76 38-38 38-20M39144 37180h-229M39030 37180v-400l-39 58-38 38-38 19M39277 36780h248l-134 153h58l38 19 19 19 19 38v95l-19 38-19 19-38 19h-115l-38-19-19-19"/></g><g class="stroked-text" style="fill:#a90000;fill-opacity:0;stroke:#a90000;stroke-width:60;stroke-opacity:1;stroke-linecap:round;stroke-linejoin:round"><path fill="none" d="M35676 36480h247l-133 153h57l38 19 19 19 19 38v95l-19 38-19 19-38 19h-114l-38-19-19-19M36057 36480h247l-133 153h57l38 19 19 19 19 38v95l-19 38-19 19-38 19h-114l-38-19-19-19"/></g><path fill="none" d="M57000 48000h2000" style="fill:#840000;fill-opacity:0;stroke:#840000;stroke-width:60;stroke-opacity:1;stroke-linecap:round;stroke-linejoin:round"/><g class="stroked-text" style="fill:#006464;fill-opacity:0;stroke:#006464;stroke-width:60;stroke-opacity:1;stroke-linecap:round;stroke-linejoin:round"><path fill="none" d="m54589 47800-39-20h-57l-57 20-38 38-19 38-19 76v57l19 76 19 38 38 38 57 19h38l58-19 19-19v-133h-77M54779 48180v-400l229 400v-400M55198 48180v-400h95l57 20 39 38 19 38 19 76v57l-19 76-19 38-39 38-57 19h-95M55503 48219h305M55865 47780h247l-133 153h57l38 19 19 19 19 38v95l-19 38-19 19-38 19h-114l-38-19-19-19M56455 47914v266M56360 47761l-95 286h247"/></g><g class="stroked-text" style="fill:#a90000;fill-opacity:0;stroke:#a90000;stroke-width:60;stroke-opacity:1;stroke-linecap:round;stroke-linejoin:round"><path fill="none" d="M57676 47480h247l-133 153h57l38 19 19 19 19 38v95l-19 38-19 19-38 19h-114l-38-19-19-19M58266 47614v266M58171 47461l-95 286h247"/></g><path fill="none" d="M57000 30000h2000" style="fill:#840000;fill-opacity:0;stroke:#840000;stroke-width:60;stroke-opacity:1;stroke-linecap:round;stroke-linejoin:round"/><g class="stroked-text" style="fill:#006464;fill-opacity:0;stroke:#006464;stroke-width:60;stroke-opacity:1;stroke-linecap:round;stroke-linejoin:round"><path fill="none" d="m54703 29800-38-20h-57l-58 20-38 38-19 38-19 76v57l19 76 19 38 38 38 58 19h38l57-19 19-19v-133h-76M54893 30180v-400h153l38 20 19 19 19 38v57l-19 38-19 19-38 19h-153M55293 30180v-400M55560 29780h76l38 20 38 38 19 76v133l-19 76-38 38-38 19h-76l-38-19-38-38-19-76v-133l19-76 38-38 38-20M56112 30180h-228M55998 30180v-400l-38 58-38 38-38 19M56303 30180h76l38-19 19-19 38-57 19-76v-152l-19-38-19-19-38-20h-76l-38 20-19 19-19 38v95l19 38 19 19 38 19h76l38-19 19-19 19-38"/></g><g class="stroked-text" style="fill:#a90000;fill-opacity:0;stroke:#a90000;stroke-width:60;stroke-opacity:1;stroke-linecap:round;stroke-linejoin:round"><path fill="none" d="M57676 29480h247l-133 153h57l38 19 19 19 19 38v95l-19 38-19 19-38 19h-114l-38-19-19-19M58285 29480h-190l-19 191 19-19 38-19h95l38 19 19 19 19 38v95l-19 38-19 19-38 19h-95l-38-19-19-19"/></g><path fill="none" d="M57000 27000h2000" style="fill:#840000;fill-opacity:0;stroke:#840000;stroke-width:60;stroke-opacity:1;stroke-linecap:round;stroke-linejoin:round"/><g class="stroked-text" style="fill:#006464;fill-opacity:0;stroke:#006464;stroke-width:60;stroke-opacity:1;stroke-linecap:round;stroke-linejoin:round"><path fill="none" d="m54703 26800-38-20h-57l-58 20-38 38-19 38-19 76v57l19 76 19 38 38 38 58 19h38l57-19 19-19v-133h-76M54893 27180v-400h153l38 20 19 19 19 38v57l-19 38-19 19-38 19h-153M55293 27180v-400M55560 26780h76l38 20 38 38 19 76v133l-19 76-38 38-38 19h-76l-38-19-38-38-19-76v-133l19-76 38-38 38-20M56112 27180h-228M55998 27180v-400l-38 58-38 38-38 19M56455 26780h-76l-38 20-19 19-38 57-19 76v152l19 38 19 19 38 19h76l38-19 19-19 19-38v-95l-19-38-19-19-38-19h-76l-38 19-19 19-19 38"/></g><g class="stroked-text" style="fill:#a90000;fill-opacity:0;stroke:#a90000;stroke-width:60;stroke-opacity:1;stroke-linecap:round;stroke-linejoin:round"><path fill="none" d="M57676 26480h247l-133 153h57l38 19 19 19 19 38v95l-19 38-19 19-38 19h-114l-38-19-19-19M58266 26480h-76l-38 20-19 19-38 57-19 76v152l19 38 19 19 38 19h76l38-19 19-19 19-38v-95l-19-38-19-19-38-19h-76l-38 19-19 19-19 38"/></g><path fill="none" d="M57000 37000h2000" style="fill:#840000;fill-opacity:0;stroke:#840000;stroke-width:60;stroke-opacity:1;stroke-linecap:round;stroke-linejoin:round"/><g class="stroked-text" style="fill:#006464;fill-opacity:0;stroke:#006464;stroke-width:60;stroke-opacity:1;stroke-linecap:round;stroke-linejoin:round"><path fill="none" d="m54703 36800-38-20h-57l-58 20-38 38-19 38-19 76v57l19 76 19 38 38 38 58 19h38l57-19 19-19v-133h-76M54893 37180v-400h153l38 20 19 19 19 38v57l-19 38-19 19-38 19h-153M55293 37180v-400M55560 36780h76l38 20 38 38 19 76v133l-19 76-38 38-38 19h-76l-38-19-38-38-19-76v-133l19-76 38-38 38-20M55884 36819l19-19 38-20h95l38 20 19 19 19 38v38l-19 57-228 228h247M56455 36780h-76l-38 20-19 19-38 57-19 76v152l19 38 19 19 38 19h76l38-19 19-19 19-38v-95l-19-38-19-19-38-19h-76l-38 19-19 19-19 38"/></g><g class="stroked-text" style="fill:#a90000;fill-opacity:0;stroke:#a90000;stroke-width:60;stroke-opacity:1;stroke-linecap:round;stroke-linejoin:round"><path fill="none" d="M57676 36480h247l-133 153h57l38 19 19 19 19 38v95l-19 38-19 19-38 19h-114l-38-19-19-19M58057 36480h266l-171 400"/></g><path fill="none" d="M57000 31000h2000" style="fill:#840000;fill-opacity:0;stroke:#840000;stroke-width:60;stroke-opacity:1;stroke-linecap:round;stroke-linejoin:round"/><g class="stroked-text" style="fill:#006464;fill-opacity:0;stroke:#006464;stroke-width:60;stroke-opacity:1;stroke-linecap:round;stroke-linejoin:round"><path fill="none" d="m54703 30800-38-20h-57l-58 20-38 38-19 38-19 76v57l19 76 19 38 38 38 58 19h38l57-19 19-19v-133h-76M54893 31180v-400h153l38 20 19 19 19 38v57l-19 38-19 19-38 19h-153M55293 31180v-400M55560 30780h76l38 20 38 38 19 76v133l-19 76-38 38-38 19h-76l-38-19-38-38-19-76v-133l19-76 38-38 38-20M55884 30819l19-19 38-20h95l38 20 19 19 19 38v38l-19 57-228 228h247M56360 30780h38l38 20 19 19 19 38 19 76v95l-19 76-19 38-19 19-38 19h-38l-38-19-19-19-19-38-19-76v-95l19-76 19-38 19-19 38-20"/></g><g class="stroked-text" style="fill:#a90000;fill-opacity:0;stroke:#a90000;stroke-width:60;stroke-opacity:1;stroke-linecap:round;stroke-linejoin:round"><path fill="none" d="M57676 30480h247l-133 153h57l38 19 19 19 19 38v95l-19 38-19 19-38 19h-114l-38-19-19-19M58152 30652l-38-19-19-19-19-38v-19l19-38 19-19 38-20h76l38 20 19 19 19 38v19l-19 38-19 19-38 19h-76l-38 19-19 19-19 38v76l19 38 19 19 38 19h76l38-19 19-19 19-38v-76l-19-38-19-19-38-19"/></g><path fill="none" d="M57000 49000h2000" style="fill:#840000;fill-opacity:0;stroke:#840000;stroke-width:60;stroke-opacity:1;stroke-linecap:round;stroke-linejoin:round"/><g class="stroked-text" style="fill:#006464;fill-opacity:0;stroke:#006464;stroke-width:60;stroke-opacity:1;stroke-linecap:round;stroke-linejoin:round"><path fill="none" d="m54589 48800-39-20h-57l-57 20-38 38-19 38-19 76v57l19 76 19 38 38 38 57 19h38l58-19 19-19v-133h-77M54779 49180v-400l229 400v-400M55198 49180v-400h95l57 20 39 38 19 38 19 76v57l-19 76-19 38-39 38-57 19h-95M55503 49219h305M55865 48780h247l-133 153h57l38 19 19 19 19 38v95l-19 38-19 19-38 19h-114l-38-19-19-19M56303 49180h76l38-19 19-19 38-57 19-76v-152l-19-38-19-19-38-20h-76l-38 20-19 19-19 38v95l19 38 19 19 38 19h76l38-19 19-19 19-38"/></g><g class="stroked-text" style="fill:#a90000;fill-opacity:0;stroke:#a90000;stroke-width:60;stroke-opacity:1;stroke-linecap:round;stroke-linejoin:round"><path fill="none" d="M57676 48480h247l-133 153h57l38 19 19 19 19 38v95l-19 38-19 19-38 19h-114l-38-19-19-19M58114 48880h76l38-19 19-19 38-57 19-76v-152l-19-38-19-19-38-20h-76l-38 20-19 19-19 38v95l19 38 19 19 38 19h76l38-19 19-19 19-38"/></g><path fill="none" d="M57000 22000h2000" style="fill:#840000;fill-opacity:0;stroke:#840000;stroke-width:60;stroke-opacity:1;stroke-linecap:round;stroke-linejoin:round"/><g class="stroked-text" style="fill:#006464;fill-opacity:0;stroke:#006464;stroke-width:60;stroke-opacity:1;stroke-linecap:round;stroke-linejoin:round"><path fill="none" d="M55446 21780h-191l-19 191 19-19 38-19h96l38 19 19 19 19 38v95l-19 38-19 19-38 19h-96l-38-19-19-19M55579 21780l133 400 134-400M55884 22219h305M56455 21914v266M56360 21761l-95 286h247"/></g><g class="stroked-text" style="fill:#a90000;fill-opacity:0;stroke:#a90000;stroke-width:60;stroke-opacity:1;stroke-linecap:round;stroke-linejoin:round"><path fill="none" d="M58076 21614v266M57980 21461l-95 286h248"/></g><path fill="none" d="M57000 32000h2000" style="fill:#840000;fill-opacity:0;stroke:#840000;stroke-width:60;stroke-opacity:1;stroke-linecap:round;stroke-linejoin:round"/><g class="stroked-text" style="fill:#006464;fill-opacity:0;stroke:#006464;stroke-width:60;stroke-opacity:1;stroke-linecap:round;stroke-linejoin:round"><path fill="none" d="m54703 31800-38-20h-57l-58 20-38 38-19 38-19 76v57l19 76 19 38 38 38 58 19h38l57-19 19-19v-133h-76M54893 32180v-400h153l38 20 19 19 19 38v57l-19 38-19 19-38 19h-153M55293 32180v-400M55560 31780h76l38 20 38 38 19 76v133l-19 76-38 38-38 19h-76l-38-19-38-38-19-76v-133l19-76 38-38 38-20M55884 31819l19-19 38-20h95l38 20 19 19 19 38v38l-19 57-228 228h247M56493 32180h-228M56379 32180v-400l-38 58-38 38-38 19"/></g><g class="stroked-text" style="fill:#a90000;fill-opacity:0;stroke:#a90000;stroke-width:60;stroke-opacity:1;stroke-linecap:round;stroke-linejoin:round"><path fill="none" d="M57885 31614v266M57790 31461l-95 286h247M58171 31480h38l38 20 19 19 19 38 19 76v95l-19 76-19 38-19 19-38 19h-38l-38-19-19-19-19-38-19-76v-95l19-76 19-38 19-19 38-20"/></g><path fill="none" d="M37000 27000h-2000" style="fill:#840000;fill-opacity:0;stroke:#840000;stroke-width:60;stroke-opacity:1;stroke-linecap:round;stroke-linejoin:round"/><g class="stroked-text" style="fill:#006464;fill-opacity:0;stroke:#006464;stroke-width:60;stroke-opacity:1;stroke-linecap:round;stroke-linejoin:round"><path fill="none" d="m37734 26800-38-20h-57l-57 20-38 38-19 38-19 76v57l19 76 19 38 38 38 57 19h38l57-19 19-19v-133h-76M37925 27180v-400h152l38 20 19 19 19 38v57l-19 38-19 19-38 19h-152M38325 27180v-400M38591 26780h77l38 20 38 38 19 76v133l-19 76-38 38-38 19h-77l-38-19-38-38-19-76v-133l19-76 38-38 38-20M38896 26780h248l-134 153h58l38 19 19 19 19 38v95l-19 38-19 19-38 19h-115l-38-19-19-19M39601 26761l-343 515M39715 27161l57 19h96l38-19 19-19 19-38v-38l-19-38-19-19-38-19-77-19-38-19-19-19-19-38v-38l19-38 19-19 38-20h96l57 20M40344 27142l-19 19-57 19h-38l-58-19-38-38-19-38-19-76v-57l19-76 19-38 38-38 58-20h38l57 20 19 19M40706 27180h-191v-400"/></g><g class="stroked-text" style="fill:#a90000;fill-opacity:0;stroke:#a90000;stroke-width:60;stroke-opacity:1;stroke-linecap:round;stroke-linejoin:round"><path fill="none" d="M36095 26480h-191l-19 191 19-19 38-19h96l38 19 19 19 19 38v95l-19 38-19 19-38 19h-96l-38-19-19-19"/></g><path fill="none" d="M57000 42000h2000" style="fill:#840000;fill-opacity:0;stroke:#840000;stroke-width:60;stroke-opacity:1;stroke-linecap:round;stroke-linejoin:round"/><g class="stroked-text" style="fill:#006464;fill-opacity:0;stroke:#006464;stroke-width:60;stroke-opacity:1;stroke-linecap:round;stroke-linejoin:round"><path fill="none" d="m54970 41800-39-20h-57l-57 20-38 38-19 38-19 76v57l19 76 19 38 38 38 57 19h38l58-19 19-19v-133h-77M55160 42180v-400l229 400v-400M55579 42180v-400h95l57 20 39 38 19 38 19 76v57l-19 76-19 38-39 38-57 19h-95M55884 42219h305M56455 41780h-76l-38 20-19 19-38 57-19 76v152l19 38 19 19 38 19h76l38-19 19-19 19-38v-95l-19-38-19-19-38-19h-76l-38 19-19 19-19 38"/></g><g class="stroked-text" style="fill:#a90000;fill-opacity:0;stroke:#a90000;stroke-width:60;stroke-opacity:1;stroke-linecap:round;stroke-linejoin:round"><path fill="none" d="M58076 41480h-76l-39 20-19 19-38 57-19 76v152l19 38 19 19 38 19h77l38-19 19-19 19-38v-95l-19-38-19-19-38-19h-77l-38 19-19 19-19 38"/></g><path fill="none" d="M37000 28000h-2000" style="fill:#840000;fill-opacity:0;stroke:#840000;stroke-width:60;stroke-opacity:1;stroke-linecap:round;stroke-linejoin:round"/><g class="stroked-text" style="fill:#006464;fill-opacity:0;stroke:#006464;stroke-width:60;stroke-opacity:1;stroke-linecap:round;stroke-linejoin:round"><path fill="none" d="m37734 27800-38-20h-57l-57 20-38 38-19 38-19 76v57l19 76 19 38 38 38 57 19h38l57-19 19-19v-133h-76M37925 28180v-400h152l38 20 19 19 19 38v57l-19 38-19 19-38 19h-152M38325 28180v-400M38591 27780h77l38 20 38 38 19 76v133l-19 76-38 38-38 19h-77l-38-19-38-38-19-76v-133l19-76 38-38 38-20M39106 27914v266M39010 27761l-95 286h248M39601 27761l-343 515M39944 27800l-38-20h-57l-58 20-38 38-19 38-19 76v57l19 76 19 38 38 38 58 19h38l57-19 19-19v-133h-76M40134 28180v-400h153l38 20 19 19 19 38v57l-19 38-19 19-38 19h-153M40534 28180v-400M40801 27780h76l38 20 38 38 19 76v133l-19 76-38 38-38 19h-76l-38-19-38-38-19-76v-133l19-76 38-38 38-20M41049 28219h304M41658 27800l-38-20h-57l-57 20-38 38-19 38-19 76v57l19 76 19 38 38 38 57 19h38l57-19 19-19v-133h-76M42077 28142l-19 19-57 19h-38l-57-19-38-38-19-38-19-76v-57l19-76 19-38 38-38 57-20h38l57 20 19 19M42439 28180h-190v-400M42572 28180v-400M42801 28180l-171-228M42801 27780l-229 229"/></g><g class="stroked-text" style="fill:#a90000;fill-opacity:0;stroke:#a90000;stroke-width:60;stroke-opacity:1;stroke-linecap:round;stroke-linejoin:round"><path fill="none" d="M35866 27480h267l-172 400"/></g><path fill="none" d="M37000 38000h-2000" style="fill:#840000;fill-opacity:0;stroke:#840000;stroke-width:60;stroke-opacity:1;stroke-linecap:round;stroke-linejoin:round"/><g class="stroked-text" style="fill:#006464;fill-opacity:0;stroke:#006464;stroke-width:60;stroke-opacity:1;stroke-linecap:round;stroke-linejoin:round"><path fill="none" d="m37734 37800-38-20h-57l-57 20-38 38-19 38-19 76v57l19 76 19 38 38 38 57 19h38l57-19 19-19v-133h-76M37925 38180v-400h152l38 20 19 19 19 38v57l-19 38-19 19-38 19h-152M38325 38180v-400M38591 37780h77l38 20 38 38 19 76v133l-19 76-38 38-38 19h-77l-38-19-38-38-19-76v-133l19-76 38-38 38-20M39144 38180h-229M39030 38180v-400l-39 58-38 38-38 19M39487 37914v266M39391 37761l-95 286h248M39982 37761l-343 515M40058 37780h229M40172 38180v-400M40382 37780l267 400M40649 37780l-267 400M40801 38180v-400h95l57 20 38 38 19 38 20 76v57l-20 76-19 38-38 38-57 19h-95M41277 37780h38l38 20 19 19 19 38 19 76v95l-19 76-19 38-19 19-38 19h-38l-38-19-19-19-19-38-19-76v-95l19-76 19-38 19-19 38-20"/></g><g class="stroked-text" style="fill:#a90000;fill-opacity:0;stroke:#a90000;stroke-width:60;stroke-opacity:1;stroke-linecap:round;stroke-linejoin:round"><path fill="none" d="m35961 37652-38-19-19-19-19-38v-19l19-38 19-19 38-20h77l38 20 19 19 19 38v19l-19 38-19 19-38 19h-77l-38 19-19 19-19 38v76l19 38 19 19 38 19h77l38-19 19-19 19-38v-76l-19-38-19-19-38-19"/></g><path fill="none" d="M57000 43000h2000" style="fill:#840000;fill-opacity:0;stroke:#840000;stroke-width:60;stroke-opacity:1;stroke-linecap:round;stroke-linejoin:round"/><g class="stroked-text" style="fill:#006464;fill-opacity:0;stroke:#006464;stroke-width:60;stroke-opacity:1;stroke-linecap:round;stroke-linejoin:round"><path fill="none" d="m54970 42800-39-20h-57l-57 20-38 38-19 38-19 76v57l19 76 19 38 38 38 57 19h38l58-19 19-19v-133h-77M55160 43180v-400l229 400v-400M55579 43180v-400h95l57 20 39 38 19 38 19 76v57l-19 76-19 38-39 38-57 19h-95M55884 43219h305M56303 43180h76l38-19 19-19 38-57 19-76v-152l-19-38-19-19-38-20h-76l-38 20-19 19-19 38v95l19 38 19 19 38 19h76l38-19 19-19 19-38"/></g><g class="stroked-text" style="fill:#a90000;fill-opacity:0;stroke:#a90000;stroke-width:60;stroke-opacity:1;stroke-linecap:round;stroke-linejoin:round"><path fill="none" d="M57923 42880h77l38-19 19-19 38-57 19-76v-152l-19-38-19-19-38-20h-77l-38 20-19 19-19 38v95l19 38 19 19 38 19h77l38-19 19-19 19-38"/></g><g style="fill:#006464;fill-opacity:0;stroke:#006464;stroke-width:60;stroke-opacity:1;stroke-linecap:round;stroke-linejoin:round"><g class="stroked-text"><path fill="none" d="M46642 17726v404l24 48 24 24 48 24h95l47-24 24-24 24-48v-404M47238 18178l23 24-23 24-24-24 24-24v48M47142 17749l48-23h119l48 23 23 48v48l-23 47-24 24-48 24-24 24-23 47v24"/></g><g class="stroked-text"><path fill="none" d="m42630 19226-166-238M42345 19226v-500h190l48 23 24 24 23 48v71l-23 48-24 24-48 24h-190M42821 19083h238M42773 19226l167-500 167 500M43250 19202l71 24h119l48-24 23-24 24-48v-47l-24-48-23-24-48-23-95-24-48-24-24-24-23-48v-47l23-48 24-24 48-23h119l71 23M43750 19226v-500h190l48 23 23 24 24 48v71l-24 48-23 24-48 24h-190M44416 18964l72 24 23 23 24 48v71l-24 48-23 24-48 24h-190v-500h166l48 23 24 24 23 48v47l-23 48-24 24-48 24h-166M44750 18964h166M44988 19226h-238v-500h238M45488 19226l-167-238M45202 19226v-500h190l48 23 24 24 24 48v71l-24 48-24 24-48 24h-190M45988 19226l-167-238M45702 19226v-500h190l48 23 24 24 24 48v71l-24 48-24 24-48 24h-190M46297 18988v238M46130 18726l167 262 167-262M46511 19273h381M47011 19226v-500h191l48 23 23 24 24 48v71l-24 48-23 24-48 24h-191M47511 19226v-500M47630 19273h381M48083 18726h333l-333 500h333M48607 18964h166M48845 19226h-238v-500h238M49345 19226l-167-238M49059 19226v-500h191l47 23 24 24 24 48v71l-24 48-24 24-47 24h-191M49654 18726h96l47 23 48 48 24 95v167l-24 95-48 48-47 24h-96l-47-24-48-48-24-95v-167l24-95 48-48 47-23M49964 19273h381M50440 18773l24-24 47-23h119l48 23 24 24 24 48v47l-24 72-286 286h310M50821 19273h381M51273 18726l119 500 96-358 95 358 119-500"/></g></g></g><g fill="none" style="fill:#009600;fill-opacity:0;stroke:#009600;stroke-width:60;stroke-opacity:1;stroke-linecap:round;stroke-linejoin:round"><path d="M28000 25000v27500M31000 27000v-5500M30500 22500h-4500M30500 26000v-3500M32000 31000v1000M64000 15000v8000M34500 15000h29500M35000 27000h-4000M35000 26000h-4500M59000 23000h5000M28000 52500h31000M59000 52500v-3500M64000 23000v32000M17500 55000V37000M31000 21500h-5000M17500 25000h10500M64000 55000H17500M22500 32000h8500M31000 32000v3000M31000 35000h4000M22500 33000h12500M22500 34000h12500M22500 31000h9500M32000 32000h3000M28000 19500v5500M26000 19500h2000M34500 20500v-5500M26000 20500h8500"/></g><g style="fill:#009600;fill-opacity:1;stroke:#009600;stroke-width:60;stroke-opacity:1;stroke-linecap:round;stroke-linejoin:round"><circle cx="64000" cy="23000" r="180"/><circle cx="28000" cy="25000" r="180"/></g></svg>