<svg xmlns="http://www.w3.org/2000/svg" viewBox="0 0 1700 1100" width="1700" height="1100" font-family="Arial, Helvetica, sans-serif">
<rect width="1700" height="1100" fill="#FFFEED"/>
<rect x="20" y="20" width="1660" height="1060" fill="none" stroke="#264F26" stroke-width="2"/>
<rect x="34" y="34" width="1632" height="1032" fill="none" stroke="#264F26" stroke-width="0.8"/>
<text x="136.0" y="26" text-anchor="middle" fill="#264F26" font-size="12" font-weight="bold">1</text>
<text x="136.0" y="1078" text-anchor="middle" fill="#264F26" font-size="12" font-weight="bold">1</text>
<text x="340.0" y="26" text-anchor="middle" fill="#264F26" font-size="12" font-weight="bold">2</text>
<text x="340.0" y="1078" text-anchor="middle" fill="#264F26" font-size="12" font-weight="bold">2</text>
<line x1="238.0" y1="20" x2="238.0" y2="34" stroke="#264F26" stroke-width="1"/>
<line x1="238.0" y1="1066" x2="238.0" y2="1080" stroke="#264F26" stroke-width="1"/>
<text x="544.0" y="26" text-anchor="middle" fill="#264F26" font-size="12" font-weight="bold">3</text>
<text x="544.0" y="1078" text-anchor="middle" fill="#264F26" font-size="12" font-weight="bold">3</text>
<line x1="442.0" y1="20" x2="442.0" y2="34" stroke="#264F26" stroke-width="1"/>
<line x1="442.0" y1="1066" x2="442.0" y2="1080" stroke="#264F26" stroke-width="1"/>
<text x="748.0" y="26" text-anchor="middle" fill="#264F26" font-size="12" font-weight="bold">4</text>
<text x="748.0" y="1078" text-anchor="middle" fill="#264F26" font-size="12" font-weight="bold">4</text>
<line x1="646.0" y1="20" x2="646.0" y2="34" stroke="#264F26" stroke-width="1"/>
<line x1="646.0" y1="1066" x2="646.0" y2="1080" stroke="#264F26" stroke-width="1"/>
<text x="952.0" y="26" text-anchor="middle" fill="#264F26" font-size="12" font-weight="bold">5</text>
<text x="952.0" y="1078" text-anchor="middle" fill="#264F26" font-size="12" font-weight="bold">5</text>
<line x1="850.0" y1="20" x2="850.0" y2="34" stroke="#264F26" stroke-width="1"/>
<line x1="850.0" y1="1066" x2="850.0" y2="1080" stroke="#264F26" stroke-width="1"/>
<text x="1156.0" y="26" text-anchor="middle" fill="#264F26" font-size="12" font-weight="bold">6</text>
<text x="1156.0" y="1078" text-anchor="middle" fill="#264F26" font-size="12" font-weight="bold">6</text>
<line x1="1054.0" y1="20" x2="1054.0" y2="34" stroke="#264F26" stroke-width="1"/>
<line x1="1054.0" y1="1066" x2="1054.0" y2="1080" stroke="#264F26" stroke-width="1"/>
<text x="1360.0" y="26" text-anchor="middle" fill="#264F26" font-size="12" font-weight="bold">7</text>
<text x="1360.0" y="1078" text-anchor="middle" fill="#264F26" font-size="12" font-weight="bold">7</text>
<line x1="1258.0" y1="20" x2="1258.0" y2="34" stroke="#264F26" stroke-width="1"/>
<line x1="1258.0" y1="1066" x2="1258.0" y2="1080" stroke="#264F26" stroke-width="1"/>
<text x="1564.0" y="26" text-anchor="middle" fill="#264F26" font-size="12" font-weight="bold">8</text>
<text x="1564.0" y="1078" text-anchor="middle" fill="#264F26" font-size="12" font-weight="bold">8</text>
<line x1="1462.0" y1="20" x2="1462.0" y2="34" stroke="#264F26" stroke-width="1"/>
<line x1="1462.0" y1="1066" x2="1462.0" y2="1080" stroke="#264F26" stroke-width="1"/>
<text x="26" y="167.0" text-anchor="middle" fill="#264F26" font-size="12" font-weight="bold">A</text>
<text x="1674" y="167.0" text-anchor="middle" fill="#264F26" font-size="12" font-weight="bold">A</text>
<text x="26" y="425.0" text-anchor="middle" fill="#264F26" font-size="12" font-weight="bold">B</text>
<text x="1674" y="425.0" text-anchor="middle" fill="#264F26" font-size="12" font-weight="bold">B</text>
<line x1="20" y1="292.0" x2="34" y2="292.0" stroke="#264F26" stroke-width="1"/>
<line x1="1666" y1="292.0" x2="1680" y2="292.0" stroke="#264F26" stroke-width="1"/>
<text x="26" y="683.0" text-anchor="middle" fill="#264F26" font-size="12" font-weight="bold">C</text>
<text x="1674" y="683.0" text-anchor="middle" fill="#264F26" font-size="12" font-weight="bold">C</text>
<line x1="20" y1="550.0" x2="34" y2="550.0" stroke="#264F26" stroke-width="1"/>
<line x1="1666" y1="550.0" x2="1680" y2="550.0" stroke="#264F26" stroke-width="1"/>
<text x="26" y="941.0" text-anchor="middle" fill="#264F26" font-size="12" font-weight="bold">D</text>
<text x="1674" y="941.0" text-anchor="middle" fill="#264F26" font-size="12" font-weight="bold">D</text>
<line x1="20" y1="808.0" x2="34" y2="808.0" stroke="#264F26" stroke-width="1"/>
<line x1="1666" y1="808.0" x2="1680" y2="808.0" stroke="#264F26" stroke-width="1"/>
<text x="80" y="68" fill="#9C2222" font-size="16" font-weight="bold">MAȘINĂ (Car) — control motoare, senzori, Bluetooth</text>
<text x="80" y="620" fill="#9C2222" font-size="16" font-weight="bold">TELECOMANDĂ (Remote) — joystick, OLED, Bluetooth</text>
<line x1="34" y1="595" x2="1666" y2="595" stroke="#264F26" stroke-width="0.6" stroke-dasharray="6 4"/>
<rect x="80" y="470" width="160" height="80" fill="#FFFCD8" stroke="#9C2222" stroke-width="1.5"/>
<text x="160.0" y="452" text-anchor="middle" fill="#9C2222" font-size="14" font-weight="bold">B1</text>
<text x="160.0" y="466" text-anchor="middle" fill="#9C2222" font-size="12">Battery 4×AA / 6V</text>
<line x1="240" y1="496" x2="248" y2="496" stroke="#9C2222" stroke-width="1.2"/>
<text x="234" y="500" text-anchor="end" fill="#9C2222" font-size="11">+VBAT</text>
<text x="250" y="493" fill="#9C2222" font-size="9">1</text>
<line x1="240" y1="524" x2="248" y2="524" stroke="#9C2222" stroke-width="1.2"/>
<text x="234" y="528" text-anchor="end" fill="#9C2222" font-size="11">-GND</text>
<text x="250" y="521" fill="#9C2222" font-size="9">2</text>
<rect x="320" y="250" width="200" height="260" fill="#FFFCD8" stroke="#9C2222" stroke-width="1.5"/>
<text x="420.0" y="232" text-anchor="middle" fill="#9C2222" font-size="14" font-weight="bold">U2</text>
<text x="420.0" y="246" text-anchor="middle" fill="#9C2222" font-size="12">L298N motor driver</text>
<line x1="320" y1="290" x2="312" y2="290" stroke="#9C2222" stroke-width="1.2"/>
<text x="326" y="294" fill="#9C2222" font-size="11">OUT1</text>
<text x="310" y="287" text-anchor="end" fill="#9C2222" font-size="9">1</text>
<line x1="320" y1="315" x2="312" y2="315" stroke="#9C2222" stroke-width="1.2"/>
<text x="326" y="319" fill="#9C2222" font-size="11">OUT2</text>
<text x="310" y="312" text-anchor="end" fill="#9C2222" font-size="9">2</text>
<line x1="320" y1="425" x2="312" y2="425" stroke="#9C2222" stroke-width="1.2"/>
<text x="326" y="429" fill="#9C2222" font-size="11">OUT3</text>
<text x="310" y="422" text-anchor="end" fill="#9C2222" font-size="9">3</text>
<line x1="320" y1="450" x2="312" y2="450" stroke="#9C2222" stroke-width="1.2"/>
<text x="326" y="454" fill="#9C2222" font-size="11">OUT4</text>
<text x="310" y="447" text-anchor="end" fill="#9C2222" font-size="9">4</text>
<line x1="520" y1="290" x2="528" y2="290" stroke="#9C2222" stroke-width="1.2"/>
<text x="514" y="294" text-anchor="end" fill="#9C2222" font-size="11">IN1</text>
<text x="530" y="287" fill="#9C2222" font-size="9">5</text>
<line x1="520" y1="315" x2="528" y2="315" stroke="#9C2222" stroke-width="1.2"/>
<text x="514" y="319" text-anchor="end" fill="#9C2222" font-size="11">IN2</text>
<text x="530" y="312" fill="#9C2222" font-size="9">6</text>
<line x1="520" y1="425" x2="528" y2="425" stroke="#9C2222" stroke-width="1.2"/>
<text x="514" y="429" text-anchor="end" fill="#9C2222" font-size="11">IN3</text>
<text x="530" y="422" fill="#9C2222" font-size="9">7</text>
<line x1="520" y1="450" x2="528" y2="450" stroke="#9C2222" stroke-width="1.2"/>
<text x="514" y="454" text-anchor="end" fill="#9C2222" font-size="11">IN4</text>
<text x="530" y="447" fill="#9C2222" font-size="9">8</text>
<line x1="520" y1="360" x2="528" y2="360" stroke="#9C2222" stroke-width="1.2"/>
<text x="514" y="364" text-anchor="end" fill="#9C2222" font-size="11">ENA</text>
<text x="530" y="357" fill="#9C2222" font-size="9">9</text>
<line x1="520" y1="380" x2="528" y2="380" stroke="#9C2222" stroke-width="1.2"/>
<text x="514" y="384" text-anchor="end" fill="#9C2222" font-size="11">ENB</text>
<text x="530" y="377" fill="#9C2222" font-size="9">10</text>
<line x1="380" y1="510" x2="380" y2="518" stroke="#9C2222" stroke-width="1.2"/>
<text x="380" y="504" text-anchor="middle" fill="#9C2222" font-size="10">+12V</text>
<text x="384" y="524" fill="#9C2222" font-size="9">11</text>
<line x1="460" y1="510" x2="460" y2="518" stroke="#9C2222" stroke-width="1.2"/>
<text x="460" y="504" text-anchor="middle" fill="#9C2222" font-size="10">GND</text>
<text x="464" y="524" fill="#9C2222" font-size="9">12</text>
<rect x="100" y="230" width="130" height="70" fill="#FFFCD8" stroke="#9C2222" stroke-width="1.5"/>
<text x="165.0" y="212" text-anchor="middle" fill="#9C2222" font-size="14" font-weight="bold">M1</text>
<text x="165.0" y="226" text-anchor="middle" fill="#9C2222" font-size="12">Motor stâng (DC)</text>
<line x1="230" y1="250" x2="238" y2="250" stroke="#9C2222" stroke-width="1.2"/>
<text x="224" y="254" text-anchor="end" fill="#9C2222" font-size="11">A</text>
<text x="240" y="247" fill="#9C2222" font-size="9">1</text>
<line x1="230" y1="280" x2="238" y2="280" stroke="#9C2222" stroke-width="1.2"/>
<text x="224" y="284" text-anchor="end" fill="#9C2222" font-size="11">B</text>
<text x="240" y="277" fill="#9C2222" font-size="9">2</text>
<rect x="100" y="360" width="130" height="70" fill="#FFFCD8" stroke="#9C2222" stroke-width="1.5"/>
<text x="165.0" y="342" text-anchor="middle" fill="#9C2222" font-size="14" font-weight="bold">M2</text>
<text x="165.0" y="356" text-anchor="middle" fill="#9C2222" font-size="12">Motor drept (DC)</text>
<line x1="230" y1="380" x2="238" y2="380" stroke="#9C2222" stroke-width="1.2"/>
<text x="224" y="384" text-anchor="end" fill="#9C2222" font-size="11">A</text>
<text x="240" y="377" fill="#9C2222" font-size="9">1</text>
<line x1="230" y1="410" x2="238" y2="410" stroke="#9C2222" stroke-width="1.2"/>
<text x="224" y="414" text-anchor="end" fill="#9C2222" font-size="11">B</text>
<text x="240" y="407" fill="#9C2222" font-size="9">2</text>
<rect x="700" y="100" width="280" height="460" fill="#FFFCD8" stroke="#9C2222" stroke-width="1.5"/>
<text x="840.0" y="82" text-anchor="middle" fill="#9C2222" font-size="14" font-weight="bold">U1</text>
<text x="840.0" y="96" text-anchor="middle" fill="#9C2222" font-size="12">STM32 Nucleo U545RE-Q (MB1841D)</text>
<line x1="700" y1="140" x2="692" y2="140" stroke="#9C2222" stroke-width="1.2"/>
<text x="706" y="144" fill="#9C2222" font-size="11">D3 / PB3</text>
<text x="690" y="137" text-anchor="end" fill="#9C2222" font-size="9">1</text>
<line x1="700" y1="170" x2="692" y2="170" stroke="#9C2222" stroke-width="1.2"/>
<text x="706" y="174" fill="#9C2222" font-size="11">D4 / PB5</text>
<text x="690" y="167" text-anchor="end" fill="#9C2222" font-size="9">2</text>
<line x1="700" y1="200" x2="692" y2="200" stroke="#9C2222" stroke-width="1.2"/>
<text x="706" y="204" fill="#9C2222" font-size="11">D5 / PB4</text>
<text x="690" y="197" text-anchor="end" fill="#9C2222" font-size="9">3</text>
<line x1="700" y1="230" x2="692" y2="230" stroke="#9C2222" stroke-width="1.2"/>
<text x="706" y="234" fill="#9C2222" font-size="11">D6 / PB10</text>
<text x="690" y="227" text-anchor="end" fill="#9C2222" font-size="9">4</text>
<line x1="700" y1="280" x2="692" y2="280" stroke="#9C2222" stroke-width="1.2"/>
<text x="706" y="284" fill="#9C2222" font-size="11">GND</text>
<text x="690" y="277" text-anchor="end" fill="#9C2222" font-size="9">5</text>
<line x1="700" y1="310" x2="692" y2="310" stroke="#9C2222" stroke-width="1.2"/>
<text x="706" y="314" fill="#9C2222" font-size="11">+5V</text>
<text x="690" y="307" text-anchor="end" fill="#9C2222" font-size="9">6</text>
<line x1="700" y1="340" x2="692" y2="340" stroke="#9C2222" stroke-width="1.2"/>
<text x="706" y="344" fill="#9C2222" font-size="11">+3V3</text>
<text x="690" y="337" text-anchor="end" fill="#9C2222" font-size="9">7</text>
<line x1="700" y1="370" x2="692" y2="370" stroke="#9C2222" stroke-width="1.2"/>
<text x="706" y="374" fill="#9C2222" font-size="11">VIN</text>
<text x="690" y="367" text-anchor="end" fill="#9C2222" font-size="9">8</text>
<line x1="700" y1="430" x2="692" y2="430" stroke="#9C2222" stroke-width="1.2"/>
<text x="706" y="434" fill="#9C2222" font-size="11">A0 / PA0</text>
<text x="690" y="427" text-anchor="end" fill="#9C2222" font-size="9">9</text>
<line x1="700" y1="460" x2="692" y2="460" stroke="#9C2222" stroke-width="1.2"/>
<text x="706" y="464" fill="#9C2222" font-size="11">A1 / PA1</text>
<text x="690" y="457" text-anchor="end" fill="#9C2222" font-size="9">10</text>
<line x1="700" y1="490" x2="692" y2="490" stroke="#9C2222" stroke-width="1.2"/>
<text x="706" y="494" fill="#9C2222" font-size="11">D7 / PA8</text>
<text x="690" y="487" text-anchor="end" fill="#9C2222" font-size="9">11</text>
<line x1="700" y1="520" x2="692" y2="520" stroke="#9C2222" stroke-width="1.2"/>
<text x="706" y="524" fill="#9C2222" font-size="11">D9 / PC6</text>
<text x="690" y="517" text-anchor="end" fill="#9C2222" font-size="9">12</text>
<line x1="980" y1="140" x2="988" y2="140" stroke="#9C2222" stroke-width="1.2"/>
<text x="974" y="144" text-anchor="end" fill="#9C2222" font-size="11">D0 / PA3 (RX)</text>
<text x="990" y="137" fill="#9C2222" font-size="9">13</text>
<line x1="980" y1="170" x2="988" y2="170" stroke="#9C2222" stroke-width="1.2"/>
<text x="974" y="174" text-anchor="end" fill="#9C2222" font-size="11">D1 / PA2 (TX)</text>
<text x="990" y="167" fill="#9C2222" font-size="9">14</text>
<line x1="980" y1="230" x2="988" y2="230" stroke="#9C2222" stroke-width="1.2"/>
<text x="974" y="234" text-anchor="end" fill="#9C2222" font-size="11">D14 / PB7 (SDA)</text>
<text x="990" y="227" fill="#9C2222" font-size="9">15</text>
<line x1="980" y1="260" x2="988" y2="260" stroke="#9C2222" stroke-width="1.2"/>
<text x="974" y="264" text-anchor="end" fill="#9C2222" font-size="11">D15 / PB6 (SCL)</text>
<text x="990" y="257" fill="#9C2222" font-size="9">16</text>
<line x1="980" y1="320" x2="988" y2="320" stroke="#9C2222" stroke-width="1.2"/>
<text x="974" y="324" text-anchor="end" fill="#9C2222" font-size="11">GND</text>
<text x="990" y="317" fill="#9C2222" font-size="9">17</text>
<line x1="980" y1="350" x2="988" y2="350" stroke="#9C2222" stroke-width="1.2"/>
<text x="974" y="354" text-anchor="end" fill="#9C2222" font-size="11">+5V</text>
<text x="990" y="347" fill="#9C2222" font-size="9">18</text>
<line x1="980" y1="380" x2="988" y2="380" stroke="#9C2222" stroke-width="1.2"/>
<text x="974" y="384" text-anchor="end" fill="#9C2222" font-size="11">+3V3</text>
<text x="990" y="377" fill="#9C2222" font-size="9">19</text>
<line x1="980" y1="440" x2="988" y2="440" stroke="#9C2222" stroke-width="1.2"/>
<text x="974" y="444" text-anchor="end" fill="#9C2222" font-size="11">D13 / LD2</text>
<text x="990" y="437" fill="#9C2222" font-size="9">20</text>
<line x1="980" y1="500" x2="988" y2="500" stroke="#9C2222" stroke-width="1.2"/>
<text x="974" y="504" text-anchor="end" fill="#9C2222" font-size="11">RESET</text>
<text x="990" y="497" fill="#9C2222" font-size="9">21</text>
<rect x="1180" y="130" width="200" height="120" fill="#FFFCD8" stroke="#9C2222" stroke-width="1.5"/>
<text x="1280.0" y="112" text-anchor="middle" fill="#9C2222" font-size="14" font-weight="bold">U3</text>
<text x="1280.0" y="126" text-anchor="middle" fill="#9C2222" font-size="12">HC-05 Bluetooth</text>
<line x1="1180" y1="155" x2="1172" y2="155" stroke="#9C2222" stroke-width="1.2"/>
<text x="1186" y="159" fill="#9C2222" font-size="11">VCC (5V)</text>
<text x="1170" y="152" text-anchor="end" fill="#9C2222" font-size="9">1</text>
<line x1="1180" y1="180" x2="1172" y2="180" stroke="#9C2222" stroke-width="1.2"/>
<text x="1186" y="184" fill="#9C2222" font-size="11">GND</text>
<text x="1170" y="177" text-anchor="end" fill="#9C2222" font-size="9">2</text>
<line x1="1180" y1="205" x2="1172" y2="205" stroke="#9C2222" stroke-width="1.2"/>
<text x="1186" y="209" fill="#9C2222" font-size="11">TXD</text>
<text x="1170" y="202" text-anchor="end" fill="#9C2222" font-size="9">3</text>
<line x1="1180" y1="230" x2="1172" y2="230" stroke="#9C2222" stroke-width="1.2"/>
<text x="1186" y="234" fill="#9C2222" font-size="11">RXD</text>
<text x="1170" y="227" text-anchor="end" fill="#9C2222" font-size="9">4</text>
<rect x="1180" y="290" width="200" height="120" fill="#FFFCD8" stroke="#9C2222" stroke-width="1.5"/>
<text x="1280.0" y="272" text-anchor="middle" fill="#9C2222" font-size="14" font-weight="bold">U4</text>
<text x="1280.0" y="286" text-anchor="middle" fill="#9C2222" font-size="12">VL53L0X ToF sensor</text>
<line x1="1180" y1="315" x2="1172" y2="315" stroke="#9C2222" stroke-width="1.2"/>
<text x="1186" y="319" fill="#9C2222" font-size="11">VIN (3V3)</text>
<text x="1170" y="312" text-anchor="end" fill="#9C2222" font-size="9">1</text>
<line x1="1180" y1="340" x2="1172" y2="340" stroke="#9C2222" stroke-width="1.2"/>
<text x="1186" y="344" fill="#9C2222" font-size="11">GND</text>
<text x="1170" y="337" text-anchor="end" fill="#9C2222" font-size="9">2</text>
<line x1="1180" y1="365" x2="1172" y2="365" stroke="#9C2222" stroke-width="1.2"/>
<text x="1186" y="369" fill="#9C2222" font-size="11">SDA</text>
<text x="1170" y="362" text-anchor="end" fill="#9C2222" font-size="9">3</text>
<line x1="1180" y1="390" x2="1172" y2="390" stroke="#9C2222" stroke-width="1.2"/>
<text x="1186" y="394" fill="#9C2222" font-size="11">SCL</text>
<text x="1170" y="387" text-anchor="end" fill="#9C2222" font-size="9">4</text>
<rect x="1180" y="450" width="200" height="100" fill="#FFFCD8" stroke="#9C2222" stroke-width="1.5"/>
<text x="1280.0" y="432" text-anchor="middle" fill="#9C2222" font-size="14" font-weight="bold">M3</text>
<text x="1280.0" y="446" text-anchor="middle" fill="#9C2222" font-size="12">SG90 servo (radar)</text>
<line x1="1180" y1="475" x2="1172" y2="475" stroke="#9C2222" stroke-width="1.2"/>
<text x="1186" y="479" fill="#9C2222" font-size="11">VCC (5V)</text>
<text x="1170" y="472" text-anchor="end" fill="#9C2222" font-size="9">1</text>
<line x1="1180" y1="500" x2="1172" y2="500" stroke="#9C2222" stroke-width="1.2"/>
<text x="1186" y="504" fill="#9C2222" font-size="11">GND</text>
<text x="1170" y="497" text-anchor="end" fill="#9C2222" font-size="9">2</text>
<line x1="1180" y1="525" x2="1172" y2="525" stroke="#9C2222" stroke-width="1.2"/>
<text x="1186" y="529" fill="#9C2222" font-size="11">SIGNAL</text>
<text x="1170" y="522" text-anchor="end" fill="#9C2222" font-size="9">3</text>
<polyline points="240,496 280,496 280,570 380,570 380,510" fill="none" stroke="#138030" stroke-width="1.6"/>
<text x="246" y="492" text-anchor="start" fill="#138030" font-size="11" font-weight="bold">+VBAT (6V)</text>
<polyline points="240,524 300,524 300,590 460,590 460,510" fill="none" stroke="#138030" stroke-width="1.6"/>
<text x="310" y="520" text-anchor="start" fill="#138030" font-size="11" font-weight="bold">GND</text>
<polyline points="230,250 280,250 280,290 320,290" fill="none" stroke="#138030" stroke-width="1.6"/>
<polyline points="230,280 260,280 260,315 320,315" fill="none" stroke="#138030" stroke-width="1.6"/>
<polyline points="230,380 260,380 260,425 320,425" fill="none" stroke="#138030" stroke-width="1.6"/>
<polyline points="230,410 280,410 280,450 320,450" fill="none" stroke="#138030" stroke-width="1.6"/>
<polyline points="700,140 580,140 580,290 520,290" fill="none" stroke="#138030" stroke-width="1.6"/>
<text x="528" y="136" text-anchor="start" fill="#138030" font-size="11" font-weight="bold">D3 → IN1</text>
<polyline points="700,170 600,170 600,315 520,315" fill="none" stroke="#138030" stroke-width="1.6"/>
<text x="528" y="166" text-anchor="start" fill="#138030" font-size="11" font-weight="bold">D4 → IN2</text>
<polyline points="700,200 620,200 620,425 520,425" fill="none" stroke="#138030" stroke-width="1.6"/>
<text x="528" y="196" text-anchor="start" fill="#138030" font-size="11" font-weight="bold">D5 → IN3</text>
<polyline points="700,230 640,230 640,450 520,450" fill="none" stroke="#138030" stroke-width="1.6"/>
<text x="528" y="226" text-anchor="start" fill="#138030" font-size="11" font-weight="bold">D6 → IN4</text>
<polyline points="700,280 670,280 670,590 460,590" fill="none" stroke="#138030" stroke-width="1.6"/>
<circle cx="460" cy="590" r="3.5" fill="#138030"/>
<text x="674" y="276" text-anchor="start" fill="#138030" font-size="11" font-weight="bold">GND</text>
<polyline points="980,350 1040,350 1040,155 1180,155" fill="none" stroke="#138030" stroke-width="1.6"/>
<polyline points="1035,300 1040,292 1045,300" fill="none" stroke="#138030" stroke-width="1.5"/>
<text x="1040" y="286" text-anchor="middle" fill="#138030" font-size="11" font-weight="bold">+5V</text>
<text x="988" y="346" text-anchor="start" fill="#138030" font-size="11" font-weight="bold">+5V</text>
<polyline points="980,380 1060,380 1060,315 1180,315" fill="none" stroke="#138030" stroke-width="1.6"/>
<polyline points="1055,300 1060,292 1065,300" fill="none" stroke="#138030" stroke-width="1.5"/>
<text x="1060" y="286" text-anchor="middle" fill="#138030" font-size="11" font-weight="bold">+3V3</text>
<text x="988" y="376" text-anchor="start" fill="#138030" font-size="11" font-weight="bold">+3V3</text>
<polyline points="980,140 1020,140 1020,205 1180,205" fill="none" stroke="#138030" stroke-width="1.6"/>
<text x="988" y="136" text-anchor="start" fill="#138030" font-size="11" font-weight="bold">RX ← TXD</text>
<polyline points="980,170 1000,170 1000,230 1180,230" fill="none" stroke="#138030" stroke-width="1.6"/>
<text x="988" y="166" text-anchor="start" fill="#138030" font-size="11" font-weight="bold">TX → RXD</text>
<polyline points="1180,180 1080,180 1080,320 980,320" fill="none" stroke="#138030" stroke-width="1.6"/>
<text x="1100" y="176" text-anchor="start" fill="#138030" font-size="11" font-weight="bold">GND</text>
<circle cx="1080" cy="320" r="3.5" fill="#138030"/>
<polyline points="980,230 1020,230 1020,365 1180,365" fill="none" stroke="#138030" stroke-width="1.6"/>
<text x="988" y="226" text-anchor="start" fill="#138030" font-size="11" font-weight="bold">SDA</text>
<polyline points="980,260 1000,260 1000,390 1180,390" fill="none" stroke="#138030" stroke-width="1.6"/>
<text x="988" y="256" text-anchor="start" fill="#138030" font-size="11" font-weight="bold">SCL</text>
<polyline points="1180,340 1080,340 1080,180" fill="none" stroke="#138030" stroke-width="1.6"/>
<circle cx="1080" cy="180" r="3.5" fill="#138030"/>
<circle cx="1080" cy="340" r="3.5" fill="#138030"/>
<polyline points="980,520 1040,520 1040,525 1180,525" fill="none" stroke="#138030" stroke-width="1.6"/>
<text x="988" y="516" text-anchor="start" fill="#138030" font-size="11" font-weight="bold">PWM (D9)</text>
<polyline points="1180,475 1040,475 1040,155" fill="none" stroke="#138030" stroke-width="1.6"/>
<circle cx="1040" cy="155" r="3.5" fill="#138030"/>
<circle cx="1040" cy="475" r="3.5" fill="#138030"/>
<polyline points="1180,500 1080,500 1080,340" fill="none" stroke="#138030" stroke-width="1.6"/>
<circle cx="1080" cy="500" r="3.5" fill="#138030"/>
<rect x="80" y="720" width="180" height="220" fill="#FFFCD8" stroke="#9C2222" stroke-width="1.5"/>
<text x="170.0" y="702" text-anchor="middle" fill="#9C2222" font-size="14" font-weight="bold">J1</text>
<text x="170.0" y="716" text-anchor="middle" fill="#9C2222" font-size="12">Joystick analog (Keyestudio)</text>
<line x1="260" y1="750" x2="268" y2="750" stroke="#9C2222" stroke-width="1.2"/>
<text x="254" y="754" text-anchor="end" fill="#9C2222" font-size="11">VCC (V)</text>
<text x="270" y="747" fill="#9C2222" font-size="9">1</text>
<line x1="260" y1="780" x2="268" y2="780" stroke="#9C2222" stroke-width="1.2"/>
<text x="254" y="784" text-anchor="end" fill="#9C2222" font-size="11">GND</text>
<text x="270" y="777" fill="#9C2222" font-size="9">2</text>
<line x1="260" y1="820" x2="268" y2="820" stroke="#9C2222" stroke-width="1.2"/>
<text x="254" y="824" text-anchor="end" fill="#9C2222" font-size="11">VRx (X)</text>
<text x="270" y="817" fill="#9C2222" font-size="9">3</text>
<line x1="260" y1="850" x2="268" y2="850" stroke="#9C2222" stroke-width="1.2"/>
<text x="254" y="854" text-anchor="end" fill="#9C2222" font-size="11">VRy (Y)</text>
<text x="270" y="847" fill="#9C2222" font-size="9">4</text>
<line x1="260" y1="880" x2="268" y2="880" stroke="#9C2222" stroke-width="1.2"/>
<text x="254" y="884" text-anchor="end" fill="#9C2222" font-size="11">SW (B)</text>
<text x="270" y="877" fill="#9C2222" font-size="9">5</text>
<rect x="700" y="660" width="280" height="400" fill="#FFFCD8" stroke="#9C2222" stroke-width="1.5"/>
<text x="840.0" y="642" text-anchor="middle" fill="#9C2222" font-size="14" font-weight="bold">U5</text>
<text x="840.0" y="656" text-anchor="middle" fill="#9C2222" font-size="12">STM32 Nucleo U545RE-Q (MB1841D)</text>
<line x1="700" y1="700" x2="692" y2="700" stroke="#9C2222" stroke-width="1.2"/>
<text x="706" y="704" fill="#9C2222" font-size="11">A0 / PA0</text>
<text x="690" y="697" text-anchor="end" fill="#9C2222" font-size="9">1</text>
<line x1="700" y1="730" x2="692" y2="730" stroke="#9C2222" stroke-width="1.2"/>
<text x="706" y="734" fill="#9C2222" font-size="11">A1 / PA1</text>
<text x="690" y="727" text-anchor="end" fill="#9C2222" font-size="9">2</text>
<line x1="700" y1="760" x2="692" y2="760" stroke="#9C2222" stroke-width="1.2"/>
<text x="706" y="764" fill="#9C2222" font-size="11">D7 / PA8</text>
<text x="690" y="757" text-anchor="end" fill="#9C2222" font-size="9">3</text>
<line x1="700" y1="810" x2="692" y2="810" stroke="#9C2222" stroke-width="1.2"/>
<text x="706" y="814" fill="#9C2222" font-size="11">+3V3</text>
<text x="690" y="807" text-anchor="end" fill="#9C2222" font-size="9">4</text>
<line x1="700" y1="840" x2="692" y2="840" stroke="#9C2222" stroke-width="1.2"/>
<text x="706" y="844" fill="#9C2222" font-size="11">GND</text>
<text x="690" y="837" text-anchor="end" fill="#9C2222" font-size="9">5</text>
<line x1="700" y1="890" x2="692" y2="890" stroke="#9C2222" stroke-width="1.2"/>
<text x="706" y="894" fill="#9C2222" font-size="11">+5V</text>
<text x="690" y="887" text-anchor="end" fill="#9C2222" font-size="9">6</text>
<line x1="980" y1="700" x2="988" y2="700" stroke="#9C2222" stroke-width="1.2"/>
<text x="974" y="704" text-anchor="end" fill="#9C2222" font-size="11">D0 / PA3 (RX)</text>
<text x="990" y="697" fill="#9C2222" font-size="9">7</text>
<line x1="980" y1="730" x2="988" y2="730" stroke="#9C2222" stroke-width="1.2"/>
<text x="974" y="734" text-anchor="end" fill="#9C2222" font-size="11">D1 / PA2 (TX)</text>
<text x="990" y="727" fill="#9C2222" font-size="9">8</text>
<line x1="980" y1="790" x2="988" y2="790" stroke="#9C2222" stroke-width="1.2"/>
<text x="974" y="794" text-anchor="end" fill="#9C2222" font-size="11">D14 / PB7 (SDA)</text>
<text x="990" y="787" fill="#9C2222" font-size="9">9</text>
<line x1="980" y1="820" x2="988" y2="820" stroke="#9C2222" stroke-width="1.2"/>
<text x="974" y="824" text-anchor="end" fill="#9C2222" font-size="11">D15 / PB6 (SCL)</text>
<text x="990" y="817" fill="#9C2222" font-size="9">10</text>
<line x1="980" y1="880" x2="988" y2="880" stroke="#9C2222" stroke-width="1.2"/>
<text x="974" y="884" text-anchor="end" fill="#9C2222" font-size="11">+5V</text>
<text x="990" y="877" fill="#9C2222" font-size="9">11</text>
<line x1="980" y1="910" x2="988" y2="910" stroke="#9C2222" stroke-width="1.2"/>
<text x="974" y="914" text-anchor="end" fill="#9C2222" font-size="11">+3V3</text>
<text x="990" y="907" fill="#9C2222" font-size="9">12</text>
<line x1="980" y1="950" x2="988" y2="950" stroke="#9C2222" stroke-width="1.2"/>
<text x="974" y="954" text-anchor="end" fill="#9C2222" font-size="11">GND</text>
<text x="990" y="947" fill="#9C2222" font-size="9">13</text>
<rect x="1180" y="690" width="200" height="120" fill="#FFFCD8" stroke="#9C2222" stroke-width="1.5"/>
<text x="1280.0" y="672" text-anchor="middle" fill="#9C2222" font-size="14" font-weight="bold">U6</text>
<text x="1280.0" y="686" text-anchor="middle" fill="#9C2222" font-size="12">HC-05 Bluetooth</text>
<line x1="1180" y1="715" x2="1172" y2="715" stroke="#9C2222" stroke-width="1.2"/>
<text x="1186" y="719" fill="#9C2222" font-size="11">VCC (5V)</text>
<text x="1170" y="712" text-anchor="end" fill="#9C2222" font-size="9">1</text>
<line x1="1180" y1="740" x2="1172" y2="740" stroke="#9C2222" stroke-width="1.2"/>
<text x="1186" y="744" fill="#9C2222" font-size="11">GND</text>
<text x="1170" y="737" text-anchor="end" fill="#9C2222" font-size="9">2</text>
<line x1="1180" y1="765" x2="1172" y2="765" stroke="#9C2222" stroke-width="1.2"/>
<text x="1186" y="769" fill="#9C2222" font-size="11">TXD</text>
<text x="1170" y="762" text-anchor="end" fill="#9C2222" font-size="9">3</text>
<line x1="1180" y1="790" x2="1172" y2="790" stroke="#9C2222" stroke-width="1.2"/>
<text x="1186" y="794" fill="#9C2222" font-size="11">RXD</text>
<text x="1170" y="787" text-anchor="end" fill="#9C2222" font-size="9">4</text>
<rect x="1180" y="850" width="200" height="120" fill="#FFFCD8" stroke="#9C2222" stroke-width="1.5"/>
<text x="1280.0" y="832" text-anchor="middle" fill="#9C2222" font-size="14" font-weight="bold">U7</text>
<text x="1280.0" y="846" text-anchor="middle" fill="#9C2222" font-size="12">SSD1306 OLED 128×64</text>
<line x1="1180" y1="875" x2="1172" y2="875" stroke="#9C2222" stroke-width="1.2"/>
<text x="1186" y="879" fill="#9C2222" font-size="11">VCC (3V3)</text>
<text x="1170" y="872" text-anchor="end" fill="#9C2222" font-size="9">1</text>
<line x1="1180" y1="900" x2="1172" y2="900" stroke="#9C2222" stroke-width="1.2"/>
<text x="1186" y="904" fill="#9C2222" font-size="11">GND</text>
<text x="1170" y="897" text-anchor="end" fill="#9C2222" font-size="9">2</text>
<line x1="1180" y1="925" x2="1172" y2="925" stroke="#9C2222" stroke-width="1.2"/>
<text x="1186" y="929" fill="#9C2222" font-size="11">SCL</text>
<text x="1170" y="922" text-anchor="end" fill="#9C2222" font-size="9">3</text>
<line x1="1180" y1="950" x2="1172" y2="950" stroke="#9C2222" stroke-width="1.2"/>
<text x="1186" y="954" fill="#9C2222" font-size="11">SDA</text>
<text x="1170" y="947" text-anchor="end" fill="#9C2222" font-size="9">4</text>
<polyline points="260,820 620,820 620,700 700,700" fill="none" stroke="#138030" stroke-width="1.6"/>
<text x="624" y="696" text-anchor="start" fill="#138030" font-size="11" font-weight="bold">VRx → A0</text>
<polyline points="260,850 640,850 640,730 700,730" fill="none" stroke="#138030" stroke-width="1.6"/>
<text x="644" y="726" text-anchor="start" fill="#138030" font-size="11" font-weight="bold">VRy → A1</text>
<polyline points="260,880 660,880 660,760 700,760" fill="none" stroke="#138030" stroke-width="1.6"/>
<text x="664" y="756" text-anchor="start" fill="#138030" font-size="11" font-weight="bold">SW → D7</text>
<polyline points="260,750 680,750 680,810 700,810" fill="none" stroke="#138030" stroke-width="1.6"/>
<text x="684" y="806" text-anchor="start" fill="#138030" font-size="11" font-weight="bold">+3V3</text>
<polyline points="335,720 340,712 345,720" fill="none" stroke="#138030" stroke-width="1.5"/>
<text x="340" y="706" text-anchor="middle" fill="#138030" font-size="11" font-weight="bold">+3V3</text>
<polyline points="260,780 290,780 290,840 700,840" fill="none" stroke="#138030" stroke-width="1.6"/>
<text x="296" y="776" text-anchor="start" fill="#138030" font-size="11" font-weight="bold">GND</text>
<polyline points="980,700 1020,700 1020,765 1180,765" fill="none" stroke="#138030" stroke-width="1.6"/>
<text x="988" y="696" text-anchor="start" fill="#138030" font-size="11" font-weight="bold">RX ← TXD</text>
<polyline points="980,730 1000,730 1000,790 1180,790" fill="none" stroke="#138030" stroke-width="1.6"/>
<text x="988" y="726" text-anchor="start" fill="#138030" font-size="11" font-weight="bold">TX → RXD</text>
<polyline points="980,880 1040,880 1040,715 1180,715" fill="none" stroke="#138030" stroke-width="1.6"/>
<text x="988" y="876" text-anchor="start" fill="#138030" font-size="11" font-weight="bold">+5V</text>
<polyline points="1035,670 1040,662 1045,670" fill="none" stroke="#138030" stroke-width="1.5"/>
<text x="1040" y="656" text-anchor="middle" fill="#138030" font-size="11" font-weight="bold">+5V</text>
<polyline points="1180,740 1080,740 1080,950 980,950" fill="none" stroke="#138030" stroke-width="1.6"/>
<text x="988" y="946" text-anchor="start" fill="#138030" font-size="11" font-weight="bold">GND</text>
<polyline points="980,790 1020,790 1020,950 1180,950" fill="none" stroke="#138030" stroke-width="1.6"/>
<text x="988" y="786" text-anchor="start" fill="#138030" font-size="11" font-weight="bold">SDA</text>
<polyline points="980,820 1000,820 1000,925 1180,925" fill="none" stroke="#138030" stroke-width="1.6"/>
<text x="988" y="816" text-anchor="start" fill="#138030" font-size="11" font-weight="bold">SCL</text>
<polyline points="980,910 1060,910 1060,875 1180,875" fill="none" stroke="#138030" stroke-width="1.6"/>
<text x="988" y="906" text-anchor="start" fill="#138030" font-size="11" font-weight="bold">+3V3</text>
<polyline points="1055,830 1060,822 1065,830" fill="none" stroke="#138030" stroke-width="1.5"/>
<text x="1060" y="816" text-anchor="middle" fill="#138030" font-size="11" font-weight="bold">+3V3</text>
<polyline points="1180,900 1080,900 1080,740" fill="none" stroke="#138030" stroke-width="1.6"/>
<circle cx="1080" cy="740" r="3.5" fill="#138030"/>
<circle cx="1080" cy="900" r="3.5" fill="#138030"/>
<polyline points="1400,202.0 1400,172.0 1388,160.0 1412,160.0" fill="none" stroke="#9C2222" stroke-width="1.5"/>
<polyline points="1380,190.0 1400,190.0" fill="none" stroke="#138030" stroke-width="1.6"/>
<polyline points="1400,762.0 1400,732.0 1388,720.0 1412,720.0" fill="none" stroke="#9C2222" stroke-width="1.5"/>
<polyline points="1380,750.0 1400,750.0" fill="none" stroke="#138030" stroke-width="1.6"/>
<path d="M 1420 160.0 Q 1480 340.0, 1400.0 470.0 T 1380 720.0" fill="none" stroke="#1A66B0" stroke-width="2" stroke-dasharray="8 4"/>
<text x="1400.0" y="454.0" text-anchor="middle" fill="#1A66B0" font-size="14" font-weight="bold">Bluetooth SPP @ 9600 baud</text>
<text x="1400.0" y="472.0" text-anchor="middle" fill="#1A66B0" font-size="12">(wireless link)</text>
<rect x="1240" y="930" width="420" height="130" fill="#FFFCD8" stroke="#264F26" stroke-width="1.5"/>
<line x1="1240" y1="960" x2="1660" y2="960" stroke="#264F26" stroke-width="0.8"/>
<line x1="1240" y1="1000" x2="1660" y2="1000" stroke="#264F26" stroke-width="0.8"/>
<line x1="1490" y1="1000" x2="1490" y2="1060" stroke="#264F26" stroke-width="0.8"/>
<line x1="1560" y1="1000" x2="1560" y2="1060" stroke="#264F26" stroke-width="0.8"/>
<text x="1450.0" y="952" text-anchor="middle" fill="#9C2222" font-size="14" font-weight="bold">ONCIOIU MIRUNA — Grupa 332CC</text>
<text x="1250" y="980" fill="#9C2222" font-size="11">Title:</text>
<text x="1300" y="980" fill="#9C2222" font-size="13" font-weight="bold">Robot Bluetooth — STM32 Nucleo</text>
<text x="1250" y="995" fill="#9C2222" font-size="10">File: project_schematic.kicad_sch</text>
<text x="1250" y="1020" fill="#9C2222" font-size="11">Size: A4</text>
<text x="1250" y="1038" fill="#9C2222" font-size="11">Date: 12/05/2026</text>
<text x="1250" y="1054" fill="#9C2222" font-size="10">PMRust — ACS UPB</text>
<text x="1500" y="1020" fill="#9C2222" font-size="11">Rev:</text>
<text x="1500" y="1038" fill="#9C2222" font-size="14" font-weight="bold">1.0</text>
<text x="1570" y="1020" fill="#9C2222" font-size="11">Id:</text>
<text x="1570" y="1038" fill="#9C2222" font-size="14" font-weight="bold">1/1</text>
<text x="60" y="1070" fill="#9C2222" font-size="10">Sheet: /  •  KiCad-style export  •  Embassy + Rust on STM32U5</text>
</svg>
