<svg xmlns="http://www.w3.org/2000/svg" width="1122.527" height="793.727" viewBox="0 0 297.002 210.007" xmlns:v="https://vecta.io/nano"><style><![CDATA[.B{stroke-linejoin:round}.C{stroke-width:.152}.D{stroke-linecap:round}.E{opacity:0}.F{stroke-opacity:0}.G{font-size:1.693px}.H{font-size:1.733px}.I{text-anchor:middle}.J{stroke:#840000}.K{font-size:2px}.L{stroke:#006464}.M{stroke:#a90000}.N{text-anchor:end}.O{stroke-width:.3}]]></style><g fill="none" class="J B"><g class="C D"><path d="M177.002 166.007h108v32h-108v-32"/><path d="M10 10h277.002v190.007H10V10"/><path d="M12 12h273.002v186.007H12V12m48 0v-2m50 2v-2m50 2v-2m50 2v-2m50 2v-2"/></g><text x="35" y="11.65" textLength="1.4353" lengthAdjust="spacingAndGlyphs" class="C E F H">1</text><g class="C D"><path d="M36.091 11.594h-.743"/><path d="M35.719 11.594v-1.3m0 0l-.124.186m0-.001l-.124.124m.001 0l-.124.062"/></g><text x="85" y="11.65" textLength="1.4353" lengthAdjust="spacingAndGlyphs" class="C E F H">2</text><path d="M85.348 10.417l.062-.062m0 0l.124-.062m0 .001h.309m0 0l.124.062m0-.001l.062.062m0 0l.062.124m0 0v.124m0 0l-.062.186m0 0l-.743.743m0 0h.805" class="C D"/><text x="135" y="11.65" textLength="1.4353" lengthAdjust="spacingAndGlyphs" class="C E F H">3</text><g class="C D"><path d="M135.286 10.294h.805"/><path d="M136.091 10.294l-.433.495m-.001 0h.186m0 0l.124.062m0 0l.062.062m0 0l.062.124m0-.001v.309m0 .001l-.062.124m0 0l-.062.062m0 0l-.124.062m0 0h-.371m0 0l-.124-.062m0 0l-.062-.062"/></g><text x="185" y="11.65" textLength="1.4353" lengthAdjust="spacingAndGlyphs" class="C E F H">4</text><g class="C D"><path d="M185.967 10.727v.867m-.31-1.362l-.309.928"/><path d="M185.348 11.16h.805"/></g><text x="235" y="11.65" textLength="1.4353" lengthAdjust="spacingAndGlyphs" class="C E F H">5</text><path d="M236.029 10.294h-.619m0 0l-.062.619m0 0l.062-.062m0 0l.124-.062m0 0h.309m0 0l.124.062m0 0l.062.062m0 0l.062.124m0-.001v.309m0 .001l-.062.124m0 0l-.062.062m0 0l-.124.062m0 0h-.309m0 0l-.124-.062m0 0l-.062-.062" class="C D"/><text x="285" y="11.65" textLength="1.4353" lengthAdjust="spacingAndGlyphs" class="C E F H">6</text><g class="C D"><path d="M285.967 10.294h-.248m0 0l-.124.062m0-.001l-.062.062m.001 0l-.124.186m0 0l-.062.248m0 0v.495m0 0l.062.124m0 0l.062.062m0 0l.124.062m-.001 0h.248m0 0l.124-.062m0 0l.062-.062m0 0l.062-.124"/><path d="M286.091 11.346v-.309m0-.001l-.062-.124m0 .001l-.062-.062m0 0l-.124-.062m0 0h-.248m0 0l-.124.062m.001 0l-.062.062m0 0l-.062.124M60 198.007v2m50-2v2m50-2v2m50-2v2m50-2v2"/></g><text x="35" y="199.657" textLength="1.4353" lengthAdjust="spacingAndGlyphs" class="C E F H">1</text><g class="C D"><path d="M36.091 199.601h-.743"/><path d="M35.719 199.601v-1.3m0 0l-.124.186m0-.001l-.124.124m.001 0l-.124.062"/></g><text x="85" y="199.657" textLength="1.4353" lengthAdjust="spacingAndGlyphs" class="C E F H">2</text><path d="M85.348 198.425l.062-.062m0 0l.124-.062m0 0h.309m0 0l.124.062m0 0l.062.062m0 0l.062.124m0-.001v.124m0 0l-.062.186m0 0l-.743.743m0 0h.805" class="C D"/><text x="135" y="199.657" textLength="1.4353" lengthAdjust="spacingAndGlyphs" class="C E F H">3</text><g class="C D"><path d="M135.286 198.301h.805"/><path d="M136.091 198.301l-.433.495m-.001 0h.186m0 0l.124.062m0 0l.062.062m0 0l.062.124m0 0v.31m0-.001l-.062.124m0 0l-.062.062m0 0l-.124.062m0 0h-.371m0 0l-.124-.062m0 0l-.062-.062"/></g><text x="185" y="199.657" textLength="1.4353" lengthAdjust="spacingAndGlyphs" class="C E F H">4</text><g class="C D"><path d="M185.967 198.734v.867m-.31-1.362l-.309.929"/><path d="M185.348 199.167h.805"/></g><text x="235" y="199.657" textLength="1.4353" lengthAdjust="spacingAndGlyphs" class="C E F H">5</text><path d="M236.029 198.301h-.619m0 0l-.062.619m0 0l.062-.062m0 0l.124-.062m0 0h.309m0 0l.124.062m0 0l.062.062m0 0l.062.124m0 0v.31m0-.001l-.062.124m0 0l-.062.062m0 0l-.124.062m0 0h-.309m0 0l-.124-.062m0 0l-.062-.062" class="C D"/><text x="285" y="199.657" textLength="1.4353" lengthAdjust="spacingAndGlyphs" class="C E F H">6</text><g class="C D"><path d="M285.967 198.301h-.248m0 0l-.124.062m0 0l-.062.062m.001 0l-.124.186m0-.001l-.062.248m0 0v.495m0 0l.062.124m0 0l.062.062m0 0l.124.062m-.001 0h.248m0 0l.124-.062m0 0l.062-.062m0 0l.062-.124"/><path d="M286.091 199.353v-.31m0 .001l-.062-.124m0 0l-.062-.062m0 0l-.124-.062m0 0h-.248m0 0l-.124.062m.001 0l-.062.062m0 0l-.062.124M10 60h2m-2 50h2m-2 50h2"/></g><text x="11" y="35.65" textLength="1.3115" lengthAdjust="spacingAndGlyphs" class="C E F H I">A</text><g class="C D"><path d="M10.691 35.222h.619m-.743.372l.433-1.3"/><path d="M11 34.294l.433 1.3"/></g><text x="11" y="85.65" textLength="1.4972" lengthAdjust="spacingAndGlyphs" class="C E F H I">B</text><g class="C D"><path d="M11.093 84.913l.186.062m0-.001l.062.062m-.001 0l.062.124m0 0v.186m0 0l-.062.124m0 0l-.062.062m.001 0l-.124.062m0 0h-.495"/><path d="M10.66 85.594v-1.3m0 0h.433m0 0l.124.062m0-.001l.062.062m0 0l.062.124m-.001 0v.124m0 0l-.062.124m.001 0l-.062.062m0 0l-.124.062"/><path d="M11.093 84.913h-.433"/></g><text x="11" y="135.65" textLength="1.4972" lengthAdjust="spacingAndGlyphs" class="C E F H I">C</text><g class="C D"><path d="M11.402 135.47l-.062.062m0 0l-.186.062m.001 0h-.124m0 0l-.186-.062m0 0l-.124-.124m0 0l-.062-.124m.001 0l-.062-.248m0 0v-.186m0 .001l.062-.248m0 0l.062-.124m-.001 0l.124-.124m0 0l.186-.062"/><path d="M11.031 134.294h.124m0 0l.186.062m-.001-.001l.062.062"/></g><text x="11" y="185.65" textLength="1.4972" lengthAdjust="spacingAndGlyphs" class="C E F H I">D</text><g class="C D"><path d="M10.66 185.594v-1.3m0 0h.309m0 0l.186.062m0-.001l.124.124m0 0l.062.124m-.001 0l.062.248m0 0v.186m0-.001l-.062.248m0 0l-.062.124m.001 0l-.124.124m0 0l-.186.062"/><path d="M10.969 185.594h-.309M287.002 60h-2m2 50h-2m2 50h-2"/></g><text x="286.002" y="35.65" textLength="1.3115" lengthAdjust="spacingAndGlyphs" class="C E F H I">A</text><g class="C D"><path d="M285.693 35.222h.619m-.743.372l.433-1.3"/><path d="M286.002 34.294l.433 1.3"/></g><text x="286.002" y="85.65" textLength="1.4972" lengthAdjust="spacingAndGlyphs" class="C E F H I">B</text><g class="C D"><path d="M286.095 84.913l.186.062m0-.001l.062.062m0 0l.062.124m0 0v.186m0 0l-.062.124m0 0l-.062.062m0 0l-.124.062m0 0h-.495"/><path d="M285.662 85.594v-1.3m0 0h.433m0 0l.124.062m0-.001l.062.062m0 0l.062.124m0 0v.124m0 0l-.062.124m0 0l-.062.062m0 0l-.124.062"/><path d="M286.095 84.913h-.433"/></g><text x="286.002" y="135.65" textLength="1.4972" lengthAdjust="spacingAndGlyphs" class="C E F H I">C</text><g class="C D"><path d="M286.405 135.47l-.062.062m0 0l-.186.062m0 0h-.124m0 0l-.186-.062m0 0l-.124-.124m.001 0l-.062-.124m0 0l-.062-.248m0 0v-.186m0 .001l.062-.248m0 0l.062-.124m0 0l.124-.124m-.001 0l.186-.062"/><path d="M286.033 134.294h.124m0 0l.186.062m0-.001l.062.062"/></g><text x="286.002" y="185.65" textLength="1.4972" lengthAdjust="spacingAndGlyphs" class="C E F H I">D</text><g class="C D"><path d="M285.662 185.594v-1.3m0 0h.31m-.001 0l.186.062m0-.001l.124.124m0 0l.062.124m0 0l.062.248m0 0v.186m0-.001l-.062.248m0 0l-.062.124m0 0l-.124.124m0 0l-.186.062"/><path d="M285.971 185.594h-.31"/></g><text x="200.002" y="193.857" textLength="7.0143" lengthAdjust="spacingAndGlyphs" class="C E F K">Date: </text><g class="C D"><path d="M200.46 193.793v-1.5m0 0h.357m0 0l.214.071m0 .001l.143.143m0-.001l.071.143m0 0l.071.286m.001 0v.214m0 0l-.071.286m-.001 0l-.071.143m0 0l-.143.143m0 0l-.214.071"/><path d="M200.817 193.793h-.357m2.142 0v-.786m0 0l-.071-.143"/><use href="#B"/><path d="M202.388 192.793h-.286m0 0l-.143.071m.643.858l-.143.071m.001 0h-.357"/><use href="#B" x="-0.429" y="0.928"/><path d="M201.96 193.722l-.071-.143m-.001 0v-.143m0 0l.071-.143m.001 0l.143-.071m-.001 0h.357m.001 0l.143-.071m.499-.358h.571"/><path d="M203.317 192.293v1.286m0 0l.071.143m0 0l.143.071m0 0h.143m1.071-.071l-.143.071m0 0h-.286"/><use href="#B" x="1.786" y="0.928"/><path d="M204.174 193.722l-.071-.143m-.001 0v-.571m0-.001l.071-.143m.001.001l.143-.071m0-.001h.286m-.001 0l.143.071m0 .001l.071.143m.001-.001v.143"/><path d="M204.817 193.15l-.714.143m1.356.357l.071.071"/><use href="#C"/><use href="#D"/><path d="M205.388 193.722l.071-.071m0-.001v.143m0-.928l.071.071"/><use href="#C" y="-0.786"/><use href="#D" y="-0.786"/><path d="M205.388 192.936l.071-.071m0 0v.143"/><use href="#E"/></g><text x="178.002" y="196.657" textLength="22.3002" lengthAdjust="spacingAndGlyphs" class="C E F K">KiCad E.D.A. 10.0.1</text><g class="C D"><path d="M178.46 196.593v-1.5m.857 1.5l-.643-.857"/><path d="M179.317 195.093l-.857.857m1.5.643v-1"/><use href="#C" x="-25.571" y="1.371"/><path d="M179.888 195.165l.071.071m.001 0l.071-.071"/><use href="#D" x="-25.428" y="1.372"/><path d="M179.96 195.093v.143m1.571 1.214l-.071.072m0 0l-.214.071m-.001 0h-.143m0 0l-.214-.071m0 0l-.143-.143m0 0l-.071-.143m0 0l-.071-.286m-.001 0v-.214"/><path d="M180.602 195.736l.071-.286m.001 0l.071-.143m0 0l.143-.143m0 .001l.214-.071m0-.001h.143m0 0l.214.071m.001.001l.071.071m1.286 1.357v-.786m0 0l-.071-.143"/><use href="#B" x="-19.786" y="2.8"/><path d="M182.602 195.593h-.286m.001 0l-.143.071m.643.858l-.143.071m0 0h-.357"/><use href="#B" x="-20.214" y="3.728"/><path d="M182.174 196.522l-.071-.143m-.001 0v-.143m0 0l.071-.143m.001 0l.143-.071m0 0h.357m0 0l.143-.072m1.357.643v-1.5m0 1.429l-.143.071m0 0h-.286"/><use href="#B" x="-18.786" y="3.728"/><use href="#F"/><path d="M183.531 196.45l-.071-.143m0 0v-.429m0 .001l.071-.143m0 0l.071-.071m0 0l.143-.071m0-.001h.286m0 0l.143.071m1.857.143h.5m.214.786h-.714"/><path d="M186.031 196.593v-1.5m0 0h.714"/><use href="#G"/><use href="#C" x="-18.072" y="2.8"/><use href="#D" x="-18.071" y="2.8"/><use href="#H"/><path d="M187.388 196.45v.143m.714 0v-1.5m0 0h.357m0 0l.214.071m.001.001l.143.143m0-.001l.071.143m0 0l.071.286m0 0v.214m0 0l-.071.286m0 0l-.071.143m0 0l-.143.143m0 0l-.214.071"/><path d="M188.459 196.593h-.357"/><use href="#G" x="2.214"/><use href="#C" x="-15.857" y="2.8"/><use href="#D" x="-15.857" y="2.8"/><use href="#H" x="2.214"/><path d="M189.602 196.45v.143m.643-.428h.714m-.857.428l.5-1.5"/><path d="M190.602 195.093l.5 1.5"/><use href="#G" x="4.214"/><use href="#C" x="-13.857" y="2.8"/><use href="#D" x="-13.857" y="2.8"/><use href="#H" x="4.214"/><path d="M191.602 196.45v.143m2.643 0h-.857"/><path d="M193.817 196.593v-1.5m0 0l-.143.214m0 0l-.143.143m0 0l-.143.072m1.786-.429h.143m0 0l.143.071m0 .001l.072.071m-.001 0l.071.143m0 0l.071.286m.001 0v.357m0 0l-.071.286m-.001-.001l-.071.143m0 0l-.072.072m.001 0l-.143.071m0 0h-.143"/><use href="#B" x="-7.357" y="3.728"/><path d="M195.031 196.522l-.072-.072m.001 0l-.071-.143m-.001 0l-.071-.286m0 .001v-.357m0 0l.071-.286m0 0l.071-.143m.001 0l.072-.071m-.001 0l.143-.071"/><use href="#G" x="8.929"/><use href="#C" x="-9.143" y="2.8"/><use href="#D" x="-9.142" y="2.8"/><use href="#H" x="8.928"/><path d="M196.317 196.45v.143m1-1.5h.143m0 0l.143.071m-.001.001l.072.071m0 0l.071.143m0 0l.071.286m.001 0v.357m0 0l-.071.286m-.001-.001l-.071.143m0 0l-.072.072m0 0l-.143.071m.001 0h-.143"/><use href="#B" x="-5.214" y="3.728"/><path d="M197.174 196.522l-.072-.072m0 0l-.071-.143m0 0l-.071-.286m0 .001v-.357m0 0l.071-.286m0 0l.071-.143m0 0l.072-.071m0 0l.143-.071"/><use href="#G" x="11.072"/><use href="#C" x="-7" y="2.8"/><use href="#D" x="-6.999" y="2.8"/><use href="#H" x="11.071"/><path d="M198.46 196.45v.143m1.5 0h-.857"/><path d="M199.531 196.593v-1.5m0 0l-.143.214m0 0l-.143.143m0 0l-.143.072"/><use href="#E" y="-3"/></g><text x="263.002" y="193.857" textLength="6.3858" lengthAdjust="spacingAndGlyphs" class="E F K O">Rev: </text><g class="D O"><path d="M264.414 193.786l-.5-.714m-.357.714v-1.5"/><path d="M263.557 192.286h.571m0 0l.143.071m0 0l.071.071m0 0l.071.143m.001 0v.214m0 .001l-.071.143"/><use href="#C" x="58.811" y="-0.794"/><path d="M264.271 193l-.143.071m0 0h-.571m2.071.643l-.143.071m0 .001h-.286"/><use href="#B" x="62.669" y="0.921"/><path d="M265.057 193.714l-.071-.143m-.001 0V193m0 0l.071-.143m.001 0l.143-.071m0 0h.286m-.001 0l.143.071m0 0l.072.143m0 0v.143"/><path d="M265.7 193.143l-.714.143m1.213-.5l.357 1m.001 0l.357-1"/><use href="#G" x="80.097" y="-2.807"/><use href="#C" x="62.026" y="-0.008"/><use href="#D" x="62.026" y="-0.007"/><use href="#H" x="80.097" y="-2.808"/><path d="M267.485 193.643v.143m0-.929l.071.071"/><use href="#C" x="62.026" y="-0.794"/><use href="#D" x="62.026" y="-0.793"/><path d="M267.414 192.928l.071-.071m0 0V193"/></g><text x="178.002" y="193.857" textLength="9.3716" lengthAdjust="spacingAndGlyphs" class="C E F K">Size: A4</text><g class="C D"><path d="M178.388 193.722l.214.071m0 0h.357m.001 0l.143-.071m-.001 0l.071-.071m.001-.001l.071-.143m0 0v-.143m0 .001l-.071-.143"/><use href="#D" x="-26.285" y="-0.571"/><use href="#B" x="-23.429" y="0.285"/><path d="M178.96 193.079l-.286-.071"/><use href="#B" x="-23.857" y="0.142"/><use href="#D" x="-26.928" y="-0.857"/><path d="M178.46 192.865l-.071-.143m-.001 0v-.143m0 0l.071-.143m.001 0l.071-.071m0 0l.143-.071m0-.001h.357m0 0l.214.071m.643 1.429v-1"/><use href="#C" x="-25.643" y="-1.429"/><path d="M179.817 192.365l.071.071m0 0l.071-.071"/><use href="#D" x="-25.499" y="-1.428"/><path d="M179.888 192.293v.143m.572.357h.786"/><path d="M181.245 192.793l-.786 1m.001 0h.786m1.142-.071l-.143.071m0 0h-.286"/><use href="#B" x="-20.571" y="0.928"/><path d="M181.817 193.722l-.071-.143m-.001 0v-.571m0-.001l.071-.143m.001.001l.143-.071m0-.001h.286m-.001 0l.143.071m0 .001l.071.143m.001-.001v.143"/><path d="M182.46 193.15l-.714.143m1.356.357l.071.071"/><use href="#C" x="-22.357"/><use href="#D" x="-22.357"/><path d="M183.031 193.722l.071-.071m0-.001v.143m0-.928l.071.071"/><use href="#C" x="-22.357" y="-0.786"/><use href="#D" x="-22.357" y="-0.786"/><path d="M183.031 192.936l.071-.071m0 0v.143m1.786.357h.714m-.857.428l.5-1.5"/><path d="M185.245 192.293l.5 1.5m1.143-1v1m-.357-1.571l-.357 1.071"/><path d="M186.174 193.293h.928"/></g><text x="263.002" y="196.657" textLength="8.5144" lengthAdjust="spacingAndGlyphs" class="C E F K">Id: 5/5</text><g class="C D"><path d="M263.46 196.593v-1.5m1.357 1.5v-1.5m0 1.429l-.143.071m0 0h-.286"/><use href="#B" x="61.857" y="3.728"/><use href="#F" x="80.643"/><path d="M264.174 196.45l-.071-.143m-.001 0v-.429m0 .001l.071-.143m.001 0l.071-.071m0 0l.143-.071m0-.001h.286m0 0l.143.071"/><use href="#G" x="78.143"/><use href="#C" x="60.071" y="2.8"/><use href="#D" x="60.072" y="2.8"/><use href="#H" x="78.143"/><path d="M265.531 196.45v.143m0-.928l.071.071m0 0l-.071.072"/><use href="#F" x="81.929" y="-0.715"/><path d="M265.46 195.736l.071-.071m0 0v.143m2.571-.715h-.714m0 0l-.071.714"/><use href="#H" x="80" y="-0.715"/><path d="M267.388 195.736l.143-.071m0 0h.357m0 0l.143.071"/><use href="#G" x="80.643" y="-0.714"/><path d="M268.102 195.807l.071.143m.001 0v.357m0 0l-.071.143m-.001 0l-.071.072m0 0l-.143.071m0 0h-.357"/><use href="#B" x="65" y="3.728"/><use href="#F" x="83.786"/><path d="M269.888 195.022l-1.286 1.928m2.5-1.857h-.714m0 0l-.071.714"/><use href="#H" x="83" y="-0.715"/><path d="M270.388 195.736l.143-.071m0 0h.357m0 0l.143.071"/><use href="#G" x="83.643" y="-0.714"/><path d="M271.102 195.807l.071.143m.001 0v.357m0 0l-.071.143m-.001 0l-.071.072m0 0l-.143.071m0 0h-.357"/><use href="#B" x="68" y="3.728"/><use href="#F" x="86.786"/><use href="#E" y="-7"/></g><text x="178.002" y="190.307" textLength="9.6572" font-size="2.667" lengthAdjust="spacingAndGlyphs" stroke-width=".4" class="E F">Title: </text><g stroke-width=".4" class="D"><path d="M178.694 188.212h1.143"/><path d="M179.015 190.212l.25-2m.988 2l.167-1.333m.083-.667l-.107.095m0 0l.083.095m.001 0l.107-.095"/><path d="M180.587 188.307l-.083-.095m-.001 0l-.024.19m.608.476h.762"/><path d="M181.456 188.212l-.214 1.714m0 0l.071.19m0 0l.179.095m0 .001h.19m.952 0l-.179-.095m.001-.001l-.071-.19"/><path d="M182.384 189.926l.214-1.714m1.572 1.904l-.202.095m0 .001h-.381m0 0l-.179-.095m0-.001l-.071-.19"/><path d="M183.337 189.926l.095-.762m0 0l.119-.19m0 0l.202-.095m0-.001h.381m0 0l.179.095m0 .001l.071.19m0 0l-.024.19"/><path d="M184.361 189.354l-.976.191m1.749.476l.083.095m.001 0l-.107.095m0 .001l-.083-.095"/><path d="M185.027 190.116l.107-.095m0 0l-.024.191m.155-1.238l.083.095m.001 0l-.107.095m0 0l-.083-.095"/><path d="M185.158 189.069l.107-.095m0 0l-.024.19"/></g><text x="178.002" y="186.457" textLength="25.6571" lengthAdjust="spacingAndGlyphs" class="C E F K">File: display.kicad_sch</text><g class="C D"><path d="M178.96 185.607h-.5m0 .786v-1.5"/><path d="M178.46 184.893h.714m.571 1.5v-1"/><use href="#C" x="-25.786" y="-8.829"/><path d="M179.674 184.965l.071.071m0 0l.071-.071"/><use href="#D" x="-25.642" y="-8.828"/><path d="M179.745 184.893v.143"/><use href="#B" x="-21.857" y="-6.472"/><path d="M180.531 186.322l-.071-.143m0 0v-1.286m1.357 1.429l-.143.071m0 0h-.286"/><use href="#B" x="-21.143" y="-6.472"/><path d="M181.245 186.322l-.071-.143m0 0v-.571m0-.001l.071-.143m0 .001l.143-.071m0-.001h.286m0 0l.143.071m0 .001l.072.143m-.001-.001v.143"/><path d="M181.888 185.75l-.714.143m1.357.357l.071.071"/><use href="#C" x="-22.929" y="-7.4"/><use href="#D" x="-22.928" y="-7.4"/><path d="M182.46 186.322l.071-.071m0-.001v.143m0-.928l.071.071"/><path d="M182.602 185.536l-.071.072"/><use href="#F" x="-1.071" y="-10.915"/><path d="M182.46 185.536l.071-.071m0 0v.143m2.5.785v-1.5m0 1.429l-.143.071m0 0h-.286"/><use href="#B" x="-17.929" y="-6.472"/><use href="#D" x="-20.999" y="-7.471"/><path d="M184.388 186.25l-.071-.143m0 0v-.429m0 .001l.071-.143m0 0l.071-.071m.001 0l.143-.071m-.001-.001h.286m0 0l.143.071m.714.929v-1"/><use href="#C" x="-19.786" y="-8.829"/><path d="M185.674 184.965l.071.071m0 0l.071-.071"/><use href="#D" x="-19.642" y="-8.828"/><path d="M185.745 184.893v.143m.643 1.286l.143.071m0 0h.286m0 0l.143-.071m0 0l.071-.143"/><path d="M187.031 186.179v-.071m0-.001l-.071-.143"/><use href="#B" x="-15.571" y="-6.9"/><path d="M186.817 185.893h-.214"/><use href="#B" x="-15.929" y="-6.972"/><path d="M186.46 185.822l-.071-.143m-.001 0v-.071m0-.001l.071-.143m.001.001l.143-.071m-.001-.001h.214m.001 0l.143.071m.714-.071v1.5m0-1.428l.143-.071m0-.001h.286m-.001 0l.143.071m0 .001l.071.071m.001 0l.071.143m0 0v.429m0-.001l-.071.143"/><use href="#C" x="-17.214" y="-7.472"/><path d="M188.245 186.322l-.143.071m0 0h-.286"/><use href="#B" x="-14.714" y="-6.472"/><use href="#B" x="-13.286" y="-6.472"/><path d="M189.102 186.322l-.071-.143m0 0v-1.286m1.429 1.5v-.786m0 0l-.071-.143"/><use href="#B" x="-12.143" y="-7.4"/><path d="M190.245 185.393h-.286m.001 0l-.143.071m.643.858l-.143.071m0 0h-.357"/><use href="#B" x="-12.571" y="-6.472"/><path d="M189.817 186.322l-.071-.143m-.001 0v-.143m0 0l.071-.143m.001 0l.143-.071m0 0h.357m0 0l.143-.071m.571-.358l.357 1m.357-1l-.357 1m0 0l-.143.357"/><use href="#C" x="-14.286" y="-6.972"/><path d="M191.174 186.822l-.143.071m1.286-.643l.071.071"/><use href="#C" x="-13.143" y="-7.4"/><use href="#D" x="-13.142" y="-7.4"/><path d="M192.245 186.322l.071-.071m.001-.001v.143m.714 0v-1.5m.143.929l.429.571"/><path d="M193.602 185.393l-.571.571m1.214.429v-1"/><use href="#C" x="-11.286" y="-8.829"/><path d="M194.174 184.965l.071.071m0 0l.071-.071"/><use href="#D" x="-11.142" y="-8.828"/><path d="M194.245 184.893v.143m1.357 1.286l-.143.071m.001 0h-.286"/><use href="#B" x="-7.357" y="-6.472"/><use href="#D" x="-10.428" y="-7.471"/><path d="M194.96 186.25l-.071-.143m-.001 0v-.429m0 .001l.071-.143m.001 0l.071-.071m0 0l.143-.071m0-.001h.286m0 0l.143.071m1.285.929v-.786m0 0l-.072-.143"/><use href="#B" x="-5.714" y="-7.4"/><path d="M196.674 185.393h-.286m0 0l-.143.071m.643.858l-.143.071m0 0h-.357"/><use href="#B" x="-6.143" y="-6.472"/><path d="M196.245 186.322l-.071-.143m0 0v-.143m0 0l.071-.143m0 0l.143-.071m0 0h.357m0 0l.143-.071m1.357.642v-1.5m0 1.429l-.143.071m0 0h-.286"/><use href="#B" x="-4.714" y="-6.472"/><use href="#D" x="-7.785" y="-7.471"/><path d="M197.602 186.25l-.071-.143m0 0v-.429m0 .001l.071-.143m0 0l.071-.071m.001 0l.143-.071m0-.001h.286m-.001 0l.143.071m.357 1.072h1.143m.286-.214l.143.071m0 0h.286m-.001 0l.143-.071m0 0l.071-.143m.001 0v-.071"/><path d="M200.674 186.107l-.071-.143"/><use href="#B" x="-1.929" y="-6.9"/><path d="M200.459 185.893h-.214"/><use href="#B" x="-2.286" y="-6.972"/><path d="M200.102 185.822l-.071-.143m0 0v-.071m0-.001l.071-.143m0 .001l.143-.071m0-.001h.214m0 0l.143.071m1.358.858l-.143.071m0 0h-.286"/><use href="#B" x="-1" y="-6.472"/><use href="#D" x="-4.071" y="-7.471"/><path d="M201.317 186.25l-.071-.143m-.001 0v-.429m0 .001l.071-.143m.001 0l.071-.071m0 0l.143-.071m0-.001h.286m0 0l.143.071m.642.929v-1.5m.643 1.5v-.786m0 0l-.072-.143"/><use href="#B" x="0.643" y="-7.4"/><path d="M203.031 185.393h-.214m0 0l-.143.071"/><use href="#C" x="-2.857" y="-8.257"/><use href="#E" y="-13"/></g><text x="178.002" y="183.757" textLength="19.4428" lengthAdjust="spacingAndGlyphs" class="C E F K">Sheet: /Display/</text><g class="C D"><path d="M178.388 183.622l.214.071m0 0h.357m.001 0l.143-.071"/><use href="#H" x="-8.215" y="-12.9"/><path d="M179.174 183.55l.071-.143m0 0v-.143m0 .001l-.071-.143"/><use href="#F" x="-4.428" y="-13.4"/><use href="#B" x="-23.429" y="-9.815"/><path d="M178.96 182.979l-.286-.071"/><use href="#B" x="-23.857" y="-9.958"/><use href="#D" x="-26.928" y="-10.957"/><path d="M178.46 182.765l-.071-.143m-.001 0v-.143m0 0l.071-.143m.001 0l.071-.071m0 0l.143-.071m0-.001h.357m0 0l.214.071m.643 1.429v-1.5m.643 1.5v-.786m0 0l-.072-.143"/><use href="#B" x="-22.071" y="-10.1"/><path d="M180.317 182.693h-.214m-.001 0l-.143.071"/><use href="#C" x="-25.571" y="-10.957"/><path d="M181.817 183.622l-.143.071m0 0h-.286"/><use href="#B" x="-21.143" y="-9.172"/><path d="M181.245 183.622l-.071-.143m0 0v-.571m0-.001l.071-.143m0 .001l.143-.071m0-.001h.286m0 0l.143.071m0 .001l.072.143m-.001-.001v.143"/><path d="M181.888 183.05l-.714.143m1.928.429l-.143.071m.001 0h-.286"/><use href="#B" x="-19.857" y="-9.172"/><path d="M182.531 183.622l-.071-.143m0 0v-.571m0-.001l.071-.143m0 .001l.143-.071m0-.001h.286m0 0l.143.071m-.001.001l.071.143m.001-.001v.143"/><path d="M183.174 183.05l-.714.143m1.142-.5h.571"/><path d="M183.817 182.193v1.286m0 0l.071.143m0 0l.143.071m0 0h.143"/><use href="#G" x="-2.714" y="-12.9"/><use href="#C" x="-20.786" y="-10.1"/><use href="#D" x="-20.785" y="-10.1"/><use href="#H" x="-2.715" y="-12.9"/><path d="M184.674 183.55v.143m0-.928l.071.071"/><use href="#C" x="-20.786" y="-10.886"/><use href="#D" x="-20.785" y="-10.886"/><path d="M184.602 182.836l.071-.071m.001 0v.143m2.928-.786l-1.286 1.928m1.786-.357v-1.5m0 0h.357m0 0l.214.071m.001.001l.143.143m0-.001l.071.143m0 0l.071.286m0 0v.214m0 0l-.071.286m0 0l-.071.143m0 0l-.143.143m0 0l-.214.071"/><path d="M188.459 183.693h-.357m1.5 0v-1"/><use href="#C" x="-15.929" y="-11.529"/><path d="M189.531 182.265l.071.071m0 0l.071-.071"/><use href="#D" x="-15.785" y="-11.528"/><path d="M189.602 182.193v.143m.643 1.286l.143.071m0 0h.286m0 0l.143-.071m0 0l.071-.143"/><path d="M190.888 183.479v-.071m0-.001l-.071-.143"/><use href="#B" x="-11.714" y="-9.6"/><path d="M190.674 183.193h-.214"/><use href="#B" x="-12.071" y="-9.672"/><path d="M190.317 183.122l-.071-.143m-.001 0v-.071m0-.001l.071-.143m.001.001l.143-.071m0-.001h.214m0 0l.143.071m.714-.071v1.5m0-1.428l.143-.071m0-.001h.286m0 0l.143.071m-.001.001l.071.071m.001 0l.071.143m0 0v.429m0-.001l-.071.143m0 0l-.071.072m-.001 0l-.143.071m.001 0h-.286"/><use href="#B" x="-10.857" y="-9.172"/><use href="#B" x="-9.429" y="-9.172"/><path d="M192.959 183.622l-.071-.143m0 0v-1.286m1.429 1.5v-.786m0 0l-.071-.143"/><use href="#B" x="-8.286" y="-10.1"/><path d="M194.102 182.693h-.286m.001 0l-.143.071m.643.858l-.143.071m0 0h-.357"/><use href="#B" x="-8.714" y="-9.172"/><path d="M193.674 183.622l-.071-.143m-.001 0v-.143m0 0l.071-.143m.001 0l.143-.071m0 0h.357m0 0l.143-.072m.571-.357l.357 1m.357-1l-.357 1m0 0l-.143.357m0 0l-.071.072m0 0l-.143.071m2.357-2.071l-1.286 1.928"/></g></g><g fill="none" class="B C"><g class="J"><g class="D"><path d="M197.002 191.507v3m64-3v6.5M144.018 78.74l.762-1.27m0 0l.762 1.27m-.762 1.27v-2.54"/><path d="M144.78 80.01h0"/></g></g><g class="L"><text x="144.78" y="75.565" textLength="5.8880" lengthAdjust="spacingAndGlyphs" class="E F G I">+3.3V</text><g class="D"><path d="M142.24 75.026h.968"/><path d="M142.724 75.51v-.968m.967-.302h.786m.001 0l-.423.484m-.001-.001h.181m.001 0l.121.061m0 0l.061.061m-.001-.001l.06.121m.001 0v.302m0 .001l-.06.121m-.001 0l-.061.061m.001-.001l-.121.06m0 .001h-.363m0 0l-.121-.06m0-.001l-.061-.061m1.331.001l.06.061m0-.001l-.06.06m0 .001l-.06-.06"/><path d="M144.961 75.449l.06-.061m.001.001v.121m.484-1.27h.786"/><path d="M146.292 74.24l-.423.484m0-.001h.181m0 0l.121.061m0 0l.061.061m-.001-.001l.06.121m.001 0v.302m0 .001l-.06.121m-.001 0l-.061.061m.001-.001l-.121.06m0 .001h-.363m0 0l-.121-.06m0-.001l-.061-.061m1.15-1.148l.423 1.27m0 0l.423-1.27"/><path d="M144.78 107.95v1.27h1.27l-1.27 1.27-1.27-1.27h1.27" class="J"/></g></g><path d="M144.78 107.95h0" class="D J"/><g class="L"><text x="144.78" y="113.665" textLength="4.0737" lengthAdjust="spacingAndGlyphs" class="E F G I">GND</text><g class="D"><path d="M143.812 112.4l-.121-.061m0 .001h-.181m0 0l-.181.061m0-.001l-.121.121m0 0l-.061.121m0 0l-.06.242m0 0v.181m0 0l.06.242m0 0l.061.121m0 0l.121.121m0 0l.181.06m0 .001h.121m0 0l.181-.06m0-.001l.06-.06m.001 0v-.423"/><path d="M143.873 113.065h-.242m.786.545v-1.27m0 0l.726 1.27"/><path d="M145.143 113.61v-1.27m.605 1.27v-1.27m0 0h.302m0 0l.181.061m0-.001l.121.121m0 0l.061.121m0 0l.06.242m0 0v.181m0 0l-.06.242m0 0l-.061.121m0 0l-.121.121m0 0l-.181.06"/><path d="M146.05 113.61h-.302"/></g></g></g><use href="#I" fill="#ffffc2"/><g fill="none" class="B C"><g class="J"><use href="#I"/><path d="M144.78 104.14v2.54" class="D"/></g><g class="L"><text x="144.78" y="104.267" textLength="4.0737" lengthAdjust="spacingAndGlyphs" transform="rotate(270 144.78 103.632)" class="E F G">GND</text><g class="D"><path d="M144.15 102.564l-.061.121m.001 0v.181m0 .001l.061.181m-.001 0l.121.121m0 0l.121.061m0-.001l.242.06m0 .001h.181m0 0l.242-.06m0-.001l.121-.061m0 .001l.121-.121m0 0l.06-.181m.001 0v-.121"/><path d="M145.36 102.746l-.06-.181m-.001-.001l-.061-.06m.001 0h-.423m-.001 0v.242m.545-.787h-1.27m0 0l1.27-.726m0 .001h-1.27m1.27-.605h-1.27m0 0v-.302m0 0l.061-.181m-.001-.001l.121-.121m0 0l.121-.061m0 .001l.242-.06m0-.001h.181"/><path d="M144.815 99.903l.242.06m0 .001l.121.061m0-.001l.121.121m0 0l.06.181m.001.001v.302"/></g></g><g class="M"><text x="144.526" y="105.41" textLength="1.4127" lengthAdjust="spacingAndGlyphs" transform="rotate(270 144.526 105.41)" class="E F G I">1</text><g class="D"><path d="M144.363 105.047v.726"/><path d="M144.363 105.41h-1.27m0 0l.181.121m0 0l.121.121m0 0l.06.121"/></g></g><path d="M144.78 83.82v-2.54" class="D J"/><g class="L"><text x="144.78" y="84.963" textLength="3.8318" lengthAdjust="spacingAndGlyphs" transform="rotate(270 144.78 84.328)" class="E F G N">VCC</text><g class="D"><path d="M144.09 87.936l1.27-.423m0 0l-1.27-.423m1.149-1.15l.061.06m-.001.001l.06.181m.001 0v.121m0 0l-.06.181m-.001 0l-.121.121m0 0l-.121.061m0 0l-.242.06m0 0h-.181m0 0l-.242-.06m0 0l-.121-.061m0 0l-.121-.121m0 0l-.061-.181"/><path d="M144.09 86.303v-.121m0 0l.061-.181m-.001 0l.06-.06m1.029-1.271l.061.06m-.001.001l.06.181m.001 0v.121m0 0l-.06.181m-.001 0l-.121.121m0 0l-.121.06m0 .001l-.242.06m0 0h-.181m0 0l-.242-.06m0 0l-.121-.06"/><path d="M144.271 85.335l-.121-.121m0 0l-.061-.181m.001 0v-.121m0 0l.061-.181m-.001 0l.06-.06"/></g></g><g class="M"><text x="144.526" y="82.55" textLength="1.4127" lengthAdjust="spacingAndGlyphs" transform="rotate(270 144.526 82.55)" class="E F G I">2</text><g class="D"><path d="M143.214 82.913l-.061-.06m0-.001l-.06-.121m0 0v-.302m0 0l.06-.121m0 0l.061-.061m0 .001l.121-.061m-.001 0h.121m0 0l.181.061m.001 0l.726.726"/><path d="M144.363 82.973v-.786"/></g></g><path d="M135.89 90.17h-2.54" class="D J"/><g class="L"><text x="136.398" y="90.805" textLength="3.9527" lengthAdjust="spacingAndGlyphs" class="E F G">SCK</text><g class="D"><path d="M136.74 90.689l.181.06m.001.001h.302m0 0l.121-.06m0-.001l.061-.06m-.001 0l.06-.121m.001 0v-.121m0 0l-.06-.121m-.001 0l-.061-.06m.001-.001l-.121-.06m0 0l-.242-.061m0 0l-.121-.061m0 .001l-.06-.06m0-.001l-.06-.121m-.001 0v-.121m0 0l.06-.121m.001.001l.06-.06m0-.001l.121-.061m0 .001h.302m0 0l.181.061m1.271 1.088l-.06.06m-.001 0l-.181.06m0 .001h-.121m0 0l-.181-.06m0-.001l-.121-.121m0 0l-.061-.121m0 0l-.06-.242"/><path d="M137.95 90.205v-.181m0 0l.06-.242m0 0l.061-.121m0 0l.121-.121m0 0l.181-.061m0 .001h.121m0 0l.181.061m0-.001l.06.06m.545 1.15v-1.27m.726 1.27l-.544-.726"/><path d="M140.006 89.48l-.726.726"/></g></g><g class="M"><text x="134.62" y="89.916" textLength="1.4127" lengthAdjust="spacingAndGlyphs" class="E F G I">3</text><g class="D"><path d="M134.197 88.483h.786"/><path d="M134.983 88.483l-.423.484m0-.001h.181m0 0l.121.06m0 .001l.061.061m-.001-.001l.06.121m.001 0v.302m0 .001l-.06.121m-.001 0l-.061.06m.001 0l-.121.06m0 .001h-.363m0 0l-.121-.06m0-.001l-.061-.06"/></g></g><path d="M135.89 92.71h-2.54" class="D J"/><g class="L"><text x="136.398" y="93.345" textLength="4.7994" lengthAdjust="spacingAndGlyphs" class="E F G">MOSI</text><g class="D"><path d="M136.801 93.29v-1.27m0 0l.423.907m0 0l.423-.907m0 0v1.27m.847-1.27h.242m0 0l.121.061m0-.001l.121.121m0 0l.06.242m0 0v.423m0 0l-.06.242m0 0l-.121.121m0 0l-.121.06m0 .001h-.242m0 0l-.121-.06m0-.001l-.121-.121m0 0l-.06-.242"/><path d="M138.192 92.866v-.423m0 0l.06-.242m0 0l.121-.121m0 0l.121-.061m1.028 1.21l.181.06m0 .001h.302m.001 0l.121-.06m0-.001l.06-.061m0 .001l.061-.121"/><path d="M140.248 93.048v-.121m0 0l-.061-.121m0 0l-.06-.061m0 0l-.121-.06m0 0l-.242-.06m0-.001l-.121-.061m0 .001l-.06-.061m-.001 0l-.06-.121m0 0v-.121m0 0l.06-.121m0 .001l.06-.061m.001 0l.121-.061"/><path d="M139.764 92.02h.302m0 0l.181.061m.545 1.209v-1.27"/></g></g><g class="M"><text x="134.62" y="92.456" textLength="1.4127" lengthAdjust="spacingAndGlyphs" class="E F G I">4</text><g class="D"><path d="M134.862 91.446v.847m-.302-1.331l-.302.907"/><path d="M134.257 91.869h.786"/></g></g><path d="M135.89 95.25h-2.54" class="D J"/><g class="L"><text x="136.398" y="95.885" textLength="3.8317" lengthAdjust="spacingAndGlyphs" class="E F G">RES</text><g class="D"><path d="M137.526 95.83l-.423-.605m-.302.605v-1.27"/><path d="M136.801 94.56h.484m-.001 0l.121.061m0-.001l.06.06m.001.001l.06.121m0-.001v.181m0 .001l-.06.121m0 0l-.06.06m-.001 0l-.121.061m0 0h-.484m1.271-.061h.423m.181.666h-.605"/><path d="M138.071 95.83v-1.27m0 0h.605m.483 1.209l.181.06m.001.001h.302m0 0l.121-.06m0-.001l.06-.06m0 0l.061-.121"/><path d="M139.885 95.588v-.121m0 0l-.061-.121m0 0l-.06-.06m0-.001l-.121-.06m0 0l-.242-.061m0 0l-.121-.06m0 0l-.06-.061m0 0l-.06-.121m-.001 0v-.121m0 0l.06-.121m.001.001l.06-.06m0-.001l.121-.061"/><path d="M139.401 94.56h.302m0 0l.181.061"/></g></g><g class="M"><text x="134.62" y="94.996" textLength="1.4127" lengthAdjust="spacingAndGlyphs" class="E F G I">5</text><path d="M134.922 93.563h-.605m.001 0l-.06.605m-.001-.001l.06-.06m.001 0l.121-.061m0 0h.302m0 0l.121.061m0 0l.061.06m-.001 0l.06.121m.001 0v.302m0 .001l-.06.121m-.001 0l-.061.06m.001 0l-.121.06m0 .001h-.302m0 0l-.121-.06m0-.001l-.06-.06" class="D"/></g><path d="M135.89 97.79h-2.54" class="D J"/><g class="L"><text x="136.398" y="98.425" textLength="2.7432" lengthAdjust="spacingAndGlyphs" class="E F G">DC</text><g class="D"><path d="M136.801 98.37V97.1m0 0h.302m0 0l.181.06m0 0l.121.121m0 0l.06.121m.001 0l.06.242m0 0v.181m0 0l-.06.242m0 0l-.06.121m-.001 0l-.121.121m0 0l-.181.06"/><path d="M137.103 98.37h-.302m1.995-.121l-.06.061m0-.001l-.181.06m-.001.001h-.121m0 0l-.181-.06m0-.001l-.121-.121m0 0l-.06-.121m0 0l-.06-.242m-.001 0v-.181m0 0l.06-.242m.001 0l.06-.121m0 0l.121-.121m0 0l.181-.06"/><path d="M138.433 97.1h.121m0 0l.181.06m.001 0l.06.061"/></g></g><g class="M"><text x="134.62" y="97.536" textLength="1.4127" lengthAdjust="spacingAndGlyphs" class="E F G I">6</text><g class="D"><path d="M134.862 96.103h-.242m0 0l-.121.06m0 0l-.06.061m0 0l-.121.181m0 0l-.06.242m-.001 0v.484m0 0l.06.121m.001 0l.06.061m0-.001l.121.06m0 .001h.242m0 0l.121-.06m0-.001l.061-.061m-.001.001l.06-.121m.001 0v-.302m0-.001l-.06-.121"/><path d="M134.922 96.707l-.061-.061m.001.001l-.121-.061m0 0h-.242m0 0l-.121.061m0 0l-.06.061m0-.001l-.06.121"/></g></g><path d="M153.67 92.71h2.54" class="D J"/><g class="L"><text x="153.162" y="93.345" textLength="2.6827" lengthAdjust="spacingAndGlyphs" class="E F G N">CS</text><g class="D"><path d="M151.61 93.169l-.06.061m0-.001l-.181.06m-.001.001h-.121m.001 0l-.181-.06m-.001-.001l-.121-.121m0 0l-.06-.121m0 0l-.06-.242m-.001 0v-.181m0 0l.06-.242m.001 0l.06-.121m0 0l.121-.121m0 0l.181-.061"/><path d="M151.248 92.02h.121m-.001 0l.181.061m.001-.001l.06.061m.484 1.088l.181.06m.001.001h.302m0 0l.121-.06m0-.001l.06-.061m0 .001l.06-.121m.001 0v-.121"/><path d="M152.82 92.927l-.06-.121m-.001 0l-.06-.061m0 0l-.121-.06m0 0l-.242-.06m0-.001l-.121-.061m0 .001l-.061-.061m.001 0l-.06-.121m-.001 0v-.121m0 0l.06-.121m.001.001l.061-.061m-.001 0l.121-.061"/><path d="M152.336 92.02h.302m0 0l.181.061"/></g></g><g class="M"><text x="154.94" y="92.456" textLength="1.4127" lengthAdjust="spacingAndGlyphs" class="E F G I">7</text><g class="D"><path d="M154.517 91.023h.847"/><path d="M155.363 91.023l-.544 1.27"/></g></g><path d="M153.67 95.25h2.54" class="D J"/><g class="L"><text x="153.162" y="95.885" textLength="3.8318" lengthAdjust="spacingAndGlyphs" class="E F G N">/BL</text><g class="D"><path d="M150.643 94.499l-1.089 1.633m1.935-.968l.181.061m.001 0l.06.06m0 0l.06.121m.001 0v.181m0 .001l-.06.121m-.001 0l-.06.06m0 0l-.121.06m0 .001h-.484"/><path d="M151.066 95.83v-1.27m0 0h.423m0 0l.121.061m0-.001l.061.06m0 .001l.06.121m0-.001v.121m0 0l-.06.121m0 0l-.061.061m0 0l-.121.06"/><path d="M151.489 95.164h-.423m1.875.666h-.605"/><path d="M152.336 95.83v-1.27"/></g></g><g class="M"><text x="154.94" y="94.996" textLength="1.4127" lengthAdjust="spacingAndGlyphs" class="E F G I">8</text><g class="D"><path d="M154.819 94.107l-.121-.061m0 0l-.061-.06m.001 0l-.06-.121m-.001 0v-.061m0 0l.06-.121m.001.001l.061-.06m-.001-.001l.121-.061m0 .001h.242m0 0l.121.061m0-.001l.06.06m0 .001l.06.121m.001-.001v.061m0 0l-.06.121m-.001 0l-.06.06m0 0l-.121.061"/><path d="M155.061 94.107h-.242m0 0l-.121.06m0 0l-.061.061m.001 0l-.06.121m-.001 0v.242m0 0l.06.121m.001 0l.061.06m-.001 0l.121.06m0 .001h.242m0 0l.121-.06m0-.001l.06-.06m0 0l.06-.121m.001 0v-.242"/><path d="M155.303 94.349l-.06-.121m-.001 0l-.06-.061m0 0l-.121-.06"/></g></g><g class="L"><text x="150.876" y="83.185" textLength="2.7432" lengthAdjust="spacingAndGlyphs" class="E F G I">U6</text><g class="D"><path d="M149.908 81.86v1.028m0 0l.06.121m.001 0l.061.061m-.001-.001l.121.06m0 .001h.242m0 0l.121-.06m0-.001l.06-.061m.001.001l.06-.121"/><path d="M150.634 82.888V81.86m1.149 0h-.242m0 0l-.121.061m0-.001l-.06.061m0 0l-.121.181m0 0l-.06.242m-.001 0v.484m0 0l.06.121m.001 0l.06.061m0-.001l.121.06m0 .001h.242m0 0l.121-.06m0-.001l.061-.061m0 .001l.06-.121"/><path d="M151.904 82.888v-.302m0-.001l-.06-.121m0 0l-.061-.06m0 0l-.121-.061m0 0h-.242m0 0l-.121.061m0 0l-.06.06m0 0l-.06.121"/></g><text x="153.908" y="106.553" textLength="14.1730" lengthAdjust="spacingAndGlyphs" class="E F G I">0.96in ST7789</text><g class="D"><path d="M147.467 105.228h.121m0 0l.121.06m0 0l.06.061m.001 0l.06.121m0-.001l.061.242m0 0v.302m0 .001l-.061.242m0 0l-.06.121m0 0l-.06.061m-.001-.001l-.121.06m0 .001h-.121m0 0l-.121-.06m.001-.001l-.06-.061m-.001.001l-.06-.121m0 0l-.06-.242m-.001 0v-.302"/><path d="M147.165 105.711l.06-.242m.001 0l.06-.121m0 .001l.06-.061m.001 0l.121-.06m.967 1.149l.06.061m.001-.001l-.06.06m-.001.001l-.06-.06"/><path d="M148.375 106.437l.06-.061m0 .001v.121m.665 0h.242m0 0l.121-.06m0-.001l.06-.061m.001.001l.121-.181m0-.001l.06-.242m0 0v-.484m0 0l-.06-.121m0 .001l-.06-.061m-.001 0l-.121-.06"/><path d="M149.463 105.228h-.242m0 0l-.121.06m0 0l-.06.061m0 0l-.06.121m-.001-.001v.302m0 .001l.06.121m.001 0l.06.06m0 0l.121.061m0 0h.242m0 0l.121-.061m0 0l.06-.06m.001 0l.06-.121m1.089-.544h-.242m0 0l-.121.06m0 0l-.061.061m0 0l-.121.181m0 0l-.06.242m0 0v.484m0 0l.06.121m0 0l.06.061m.001-.001l.121.06m0 .001h.242m0 0l.121-.06m0-.001l.06-.061m0 .001l.061-.121"/><path d="M150.915 106.256v-.302m0-.001l-.061-.121m0 0l-.06-.061m0 .001l-.121-.061m0 0h-.242m0 0l-.121.061m0 0l-.06.061m-.001-.001l-.06.121m1.27.545v-.847m0-.423l-.06.06m-.001 0l.06.061m.001 0l.06-.061"/><path d="M151.519 105.288l-.06-.06m0 0v.121m.605.302v.847m0-.726l.06-.061m0 0l.121-.06m0 0h.181m.001 0l.121.06m-.001 0l.06.121m.001 0v.665m1.512-.06l.181.06m0 .001h.302m.001 0l.121-.06m0-.001l.06-.061m0 .001l.06-.121m.001 0v-.121"/><path d="M154.846 106.135l-.06-.121m-.001 0l-.06-.061m0 0l-.121-.06m0 0l-.242-.06m0-.001l-.121-.061m0 .001l-.06-.061m-.001 0l-.06-.121m0 0v-.121m0 0l.06-.121m0 .001l.06-.061m.001 0l.121-.06"/><path d="M154.362 105.228h.302m0 0l.181.06m.363-.06h.726m-.363 1.27v-1.27m.665 0h.847"/><path d="M157.083 105.228l-.544 1.27m.907-1.27h.847"/><path d="M158.293 105.228l-.544 1.27m1.209-.726l-.121-.061m0 0l-.061-.06m0 0l-.06-.121"/><path d="M158.716 105.53v-.061m0 0l.06-.121m0 .001l.061-.061m0 0l.121-.06m0 0h.242m0 0l.121.06m0 0l.06.061m0 0l.06.121m.001-.001v.061m0 0l-.06.121m-.001 0l-.06.06m0 0l-.121.061m0 0h-.242m0 0l-.121.061m0-.001l-.061.06m0 .001l-.06.121m0 0v.242m0 0l.06.121m0 0l.061.061m0-.001l.121.06m0 .001h.242m0 0l.121-.06m0-.001l.06-.061m0 .001l.06-.121m.001 0v-.242"/><path d="M159.442 106.014l-.06-.121m-.001 0l-.06-.06m0-.001l-.121-.061m.846.727h.242m0 0l.121-.06m0-.001l.06-.061m.001.001l.121-.181m0-.001l.061-.242m-.001 0v-.484m0 0l-.061-.121m.001.001l-.06-.061m-.001 0l-.121-.06"/><path d="M160.409 105.228h-.242m0 0l-.121.06m0 0l-.06.061m0 0l-.06.121m-.001-.001v.302m0 .001l.06.121m.001 0l.06.06m0 0l.121.061m0 0h.242m0 0l.121-.061m0 0l.06-.06m.001 0l.061-.121"/></g></g><g class="J"><text x="158.909" y="95.976" textLength="13.6288" lengthAdjust="spacingAndGlyphs" class="E F G">ESP1_DISP_BL</text><g class="D"><path d="M159.311 95.255h.423m.182.665h-.605"/><path d="M159.311 95.92v-1.27m0 0h.605m.484 1.21l.181.06m0 0h.302m.001 0l.121-.06m0 0l.06-.06m0-.001l.06-.121m.001 0v-.121"/><path d="M161.126 95.558l-.06-.121m-.001 0l-.06-.06m0-.001l-.121-.06m0 0l-.242-.061m0 0l-.121-.061m0 .001l-.061-.06m0-.001l-.06-.121m0 0v-.121m0 0l.06-.121m0 0l.061-.06m0 0l.121-.061"/><path d="M160.642 94.65h.302m0 0l.181.061m.545 1.209v-1.27m0 0h.484m0 0l.121.061m0 0l.061.06m-.001 0l.06.121m.001 0v.181m0 .001l-.06.121m-.001 0l-.061.061m.001-.001l-.121.061"/><path d="M162.154 95.316h-.484m1.935.604h-.726"/><path d="M163.242 95.92v-1.27m0 0l-.121.181m0 .001l-.121.121m0 0l-.121.061m.968 1.027h.968m.302-.121v-1.27m0 0h.302m0 0l.181.061m.001 0l.121.121m0 0l.06.121m0 0l.06.242m.001 0v.181m0 0l-.06.242m-.001 0l-.06.121m0 0l-.121.121m0 0l-.181.06"/><path d="M165.419 95.92h-.302m1.27 0v-1.27m.544 1.21l.181.06m.001 0h.302m0 0l.121-.06m0 0l.06-.06m.001-.001l.061-.121"/><path d="M167.657 95.678v-.121m0 .001l-.061-.121m.001 0l-.06-.06m-.001-.001l-.121-.06m0 0l-.242-.061m0 0l-.121-.061m0 .001l-.06-.06m0-.001l-.06-.121m-.001 0v-.121m0 0l.06-.121m.001 0l.06-.06m0 0l.121-.061"/><path d="M167.173 94.65h.302m.001 0l.181.061m.544 1.209v-1.27m0 0h.484m0 0l.121.061m0 0l.06.06m.001 0l.06.121m0 0v.181m0 .001l-.06.121m0 0l-.06.061m-.001-.001l-.121.061"/><path d="M168.685 95.316h-.484m.968.725h.968m.725-.786l.181.061m.001 0l.06.06m0 0l.06.121m.001 0v.181m0 0l-.06.121m-.001 0l-.06.06m0 .001l-.121.06m0 0h-.484"/><path d="M170.439 95.92v-1.27m0 0h.423m0 0l.121.061m0 0l.06.06m.001 0l.06.121m0 0v.121m0 0l-.06.121m0 0l-.06.06m-.001.001l-.121.061"/><path d="M170.862 95.255h-.423m1.875.665h-.605"/><path d="M171.709 95.92v-1.27"/></g><path d="M157.48 95.25l1.111 1.27h14.76v-1.27-1.27h-14.76z"/><text x="158.909" y="93.436" textLength="13.8102" lengthAdjust="spacingAndGlyphs" class="E F G">ESP1_DISP_CS</text><g class="D"><path d="M159.311 92.715h.423m.182.665h-.605"/><path d="M159.311 93.38v-1.27m0 0h.605m.484 1.21l.181.06m0 0h.302m.001 0l.121-.06m0 0l.06-.061m0 0l.06-.121m.001 0v-.121"/><path d="M161.126 93.018l-.06-.121m-.001 0l-.06-.061m0 0l-.121-.06m0 0l-.242-.06m0-.001l-.121-.061m0 .001l-.061-.061m0 0l-.06-.121m0 0v-.121m0 0l.06-.121m0 0l.061-.061m0 .001l.121-.061"/><path d="M160.642 92.11h.302m0 0l.181.061m.545 1.209v-1.27m0 0h.484m0 0l.121.061m0 0l.061.061m-.001-.001l.06.121m.001 0v.181m0 .001l-.06.121m-.001 0l-.061.061m.001-.001l-.121.06"/><path d="M162.154 92.776h-.484m1.935.604h-.726"/><path d="M163.242 93.38v-1.27m0 0l-.121.181m0 .001l-.121.121m0 0l-.121.061m.968 1.027h.968m.302-.121v-1.27m0 0h.302m0 0l.181.061m.001 0l.121.121m0 0l.06.121m0 0l.06.242m.001 0v.181m0 0l-.06.242m-.001 0l-.06.121m0 0l-.121.121m0 0l-.181.06"/><path d="M165.419 93.38h-.302m1.27 0v-1.27m.544 1.21l.181.06m.001 0h.302m0 0l.121-.06m0 0l.06-.061m.001 0l.061-.121"/><path d="M167.657 93.138v-.121m0 .001l-.061-.121m.001 0l-.06-.061m-.001 0l-.121-.06m0 0l-.242-.06m0-.001l-.121-.061m0 .001l-.06-.061m0 0l-.06-.121m-.001 0v-.121m0 0l.06-.121m.001 0l.06-.061m0 .001l.121-.061"/><path d="M167.173 92.11h.302m.001 0l.181.061m.544 1.209v-1.27m0 0h.484m0 0l.121.061m0 0l.06.061m.001-.001l.06.121m0 0v.181m0 .001l-.06.121m0 0l-.06.061m-.001-.001l-.121.06"/><path d="M168.685 92.776h-.484m.968.725h.968m1.028-.242l-.06.061m-.001 0l-.181.06m0 0h-.121m0 0l-.181-.06m-.001 0l-.121-.121m0 0l-.061-.121m.001 0l-.06-.242m-.001 0v-.181m0 0l.06-.242m.001 0l.061-.121m-.001 0l.121-.121m0 0l.181-.061"/><path d="M170.802 92.11h.121m0 0l.181.061m0 0l.06.061m.484 1.088l.181.06m.001 0h.302m0 0l.121-.06m0 0l.061-.061m0 0l.06-.121"/><path d="M172.374 93.138v-.121m0 .001l-.06-.121m0 0l-.061-.061m0 0l-.121-.06m0 0l-.242-.06m0-.001l-.121-.061m0 .001l-.06-.061m0 0l-.06-.121m-.001 0v-.121m0 0l.06-.121m.001 0l.06-.061m0 .001l.121-.061"/><path d="M171.89 92.11h.302m.001 0l.181.061"/></g><path d="M157.48 92.71l1.111 1.27h14.941v-1.27-1.27h-14.941z"/><text x="130.651" y="93.436" textLength="10.6050" lengthAdjust="spacingAndGlyphs" class="E F G N">ESP1_MOSI</text><g class="D"><path d="M120.452 92.715h.423m.181.665h-.605"/><path d="M120.452 93.38v-1.27m0 0h.605m.483 1.21l.181.06m.001 0h.302m0 0l.121-.06m0 0l.06-.061m0 0l.061-.121"/><path d="M122.266 93.138v-.121m0 .001l-.061-.121m0 0l-.06-.061m0 0l-.121-.06m0 0l-.242-.06m0-.001l-.121-.061m0 .001l-.061-.061m.001 0l-.06-.121m-.001 0v-.121m0 0l.06-.121m.001 0l.061-.061m-.001.001l.121-.061"/><path d="M121.782 92.11h.302m0 0l.181.061m.545 1.209v-1.27m0 0h.484m0 0l.121.061m0 0l.061.061m-.001-.001l.06.121m.001 0v.181m0 .001l-.06.121m-.001 0l-.061.061m.001-.001l-.121.06"/><path d="M123.294 92.776h-.484m1.935.604h-.726"/><path d="M124.382 93.38v-1.27m0 0l-.121.181m.001.001l-.121.121m0 0l-.121.061m.967 1.027h.968m.302-.121v-1.27m0 0l.423.907m.001.001l.423-.907m0-.001v1.27m.846-1.27h.242m0 0l.121.061m0 0l.121.121m0 0l.06.242m.001 0v.423m0 0l-.06.242m-.001 0l-.121.121m0 0l-.121.06m0 0h-.242m0 0l-.121-.06m.001 0l-.121-.121m0 0l-.06-.242m-.001 0v-.423"/><path d="M127.648 92.534l.06-.242m.001 0l.121-.121m0 0l.121-.061m1.028 1.21l.181.06m0 0h.302m0 0l.121-.06m0 0l.06-.061m.001 0l.06-.121"/><path d="M129.704 93.138v-.121m0 .001l-.06-.121m0 0l-.06-.061m-.001 0l-.121-.06m0 0l-.242-.06m0-.001l-.121-.061m.001.001l-.061-.061m0 0l-.06-.121m0 0v-.121m0 0l.06-.121m0 0l.061-.061m0 .001l.121-.061"/><path d="M129.22 92.11h.302m.001 0l.181.061m.545 1.209v-1.27"/></g><path d="M132.08 92.71l-1.111-1.27h-11.736v1.27 1.27h11.736z"/><text x="130.651" y="90.896" textLength="9.7583" lengthAdjust="spacingAndGlyphs" class="E F G N">ESP1_SCK</text><g class="D"><path d="M121.298 90.175h.423m.182.665h-.605"/><path d="M121.298 90.84v-1.27m0 0h.605m.484 1.21l.181.06m0 0h.302m.001 0l.121-.06m0 0l.061-.061m-.001 0l.06-.121m.001 0v-.121"/><path d="M123.113 90.478l-.06-.121m-.001 0l-.061-.06m.001-.001l-.121-.06m0 0l-.242-.061m0 0l-.121-.061m0 .001l-.061-.06m0-.001l-.06-.121m0 0v-.121m0 0l.06-.121m0 0l.061-.061m0 .001l.121-.06"/><path d="M122.629 89.57h.302m0 0l.181.06m.545 1.21v-1.27m0 0h.484m0 0l.121.06m0 .001l.061.061m-.001-.001l.06.121m0 0v.181m0 .001l-.06.121m0 0l-.061.061m.001-.001l-.121.061"/><path d="M124.141 90.236h-.484m1.935.604h-.726"/><path d="M125.229 90.84v-1.27m0 0l-.121.181m0 .001l-.121.121m0 0l-.121.061m.968 1.027h.968m.241-.181l.181.06m.001 0h.302m0 0l.121-.06m0 0l.061-.061m0 0l.06-.121"/><path d="M127.769 90.598v-.121m0 .001l-.06-.121m0 0l-.061-.06m0-.001l-.121-.06m0 0l-.242-.061m0 0l-.121-.061m0 .001l-.06-.06m0-.001l-.06-.121m-.001 0v-.121m0 0l.06-.121m.001 0l.06-.061m0 .001l.121-.06"/><path d="M127.285 89.57h.302m.001 0l.181.06m1.27 1.089l-.06.061m0 0l-.181.06m-.001 0h-.121m0 0l-.181-.06m0 0l-.121-.121m0 0l-.06-.121m-.001 0l-.06-.242"/><path d="M128.253 90.296v-.181m0 0l.06-.242m0 0l.06-.121m.001 0l.121-.121m0 0l.181-.06m0-.001h.121m0 0l.181.06m.001.001l.06.061m.544 1.148v-1.27m.726 1.27l-.544-.726"/><path d="M130.309 89.57l-.726.726"/></g><path d="M132.08 90.17l-1.111-1.27H120.08v1.27 1.27h10.889z"/><text x="130.651" y="95.976" textLength="14.9592" lengthAdjust="spacingAndGlyphs" class="E F G N">ESP1_DISP_RES</text><g class="D"><path d="M116.097 95.255h.423m.182.665h-.605"/><path d="M116.097 95.92v-1.27m0 0h.605m.484 1.21l.181.06m0 0h.302m.001 0l.121-.06m0 0l.061-.06m-.001-.001l.061-.121"/><path d="M117.912 95.678v-.121m0 .001l-.061-.121m0 0l-.061-.06m.001-.001l-.121-.06m0 0l-.242-.061m0 0l-.121-.061m0 .001l-.06-.06m-.001-.001l-.06-.121m0 0v-.121m0 0l.06-.121m0 0l.06-.06m.001 0l.121-.061"/><path d="M117.428 94.65h.302m0 0l.182.061m.544 1.209v-1.27m0 0h.484m0 0l.121.061m0 0l.061.06m-.001 0l.06.121m.001 0v.181m0 .001l-.06.121m-.001 0l-.061.061m.001-.001l-.121.061"/><path d="M118.94 95.316h-.484m1.935.604h-.726"/><path d="M120.028 95.92v-1.27m0 0l-.121.181m0 .001l-.121.121m0 0l-.121.061m.968 1.027h.968m.302-.121v-1.27m0 0h.302m0 0l.181.061m.001 0l.121.121m0 0l.061.121m-.001 0l.06.242m.001 0v.181m0 0l-.06.242m-.001 0l-.061.121m.001 0l-.121.121m0 0l-.181.06"/><path d="M122.205 95.92h-.302m1.27 0v-1.27m.544 1.21l.181.06m.001 0h.302m0 0l.121-.06m0 0l.06-.06m.001-.001l.061-.121"/><path d="M124.443 95.678v-.121m0 .001l-.061-.121m.001 0l-.06-.06m-.001-.001l-.121-.06m0 0l-.242-.061m0 0l-.121-.061m0 .001l-.061-.06m.001-.001l-.06-.121m-.001 0v-.121m0 0l.06-.121m.001 0l.061-.06m-.001 0l.121-.061"/><path d="M123.959 94.65h.302m.001 0l.181.061m.544 1.209v-1.27m0 0h.484m0 0l.121.061m0 0l.061.06m0 0l.06.121m0 0v.181m0 .001l-.06.121m0 0l-.061.061m0-.001l-.121.061"/><path d="M125.471 95.316h-.484m.968.725h.968m1.028-.121l-.423-.605m-.303.605v-1.27"/><path d="M127.225 94.65h.484m0 0l.121.061m0 0l.061.06m-.001 0l.06.121m.001 0v.181m0 .001l-.06.121m-.001 0l-.061.061m.001-.001l-.121.061m0 0h-.484m1.27-.061h.423m.182.665h-.605"/><path d="M128.495 95.92v-1.27m0 0h.605m.483 1.21l.181.06m.001 0h.302m0 0l.121-.06m0 0l.061-.06m0-.001l.06-.121"/><path d="M130.309 95.678v-.121m0 .001l-.06-.121m0 0l-.061-.06m0-.001l-.121-.06m0 0l-.242-.061m0 0l-.121-.061m0 .001l-.06-.06m0-.001l-.06-.121m-.001 0v-.121m0 0l.06-.121m.001 0l.06-.06m0 0l.121-.061"/><path d="M129.825 94.65h.302m.001 0l.181.061"/></g><path d="M132.08 95.25l-1.111-1.27h-16.09v1.27 1.27h16.09z"/><text x="130.651" y="98.516" textLength="13.8707" lengthAdjust="spacingAndGlyphs" class="E F G N">ESP1_DISP_DC</text><g class="D"><path d="M117.186 97.795h.423m.182.665h-.605"/><path d="M117.186 98.46v-1.27m0 0h.605m.483 1.21l.181.06m.001 0h.302m0 0l.121-.06m0 0l.061-.061m0 0l.061-.121"/><path d="M119 98.218v-.121m0 .001l-.061-.121m.001 0l-.061-.061m0 0l-.121-.06m0 0l-.242-.06m0-.001l-.121-.061m0 .001l-.061-.061m.001 0l-.06-.121m-.001 0v-.121m0 0l.06-.121m.001 0l.061-.061m-.001.001l.121-.061"/><path d="M118.516 97.19h.302m.001 0l.181.061m.544 1.209v-1.27m0 0h.484m0 0l.121.061m0 0l.06.061m.001-.001l.06.121m0 0v.181m0 .001l-.06.121m0 0l-.06.061m-.001-.001l-.121.06"/><path d="M120.028 97.856h-.484m1.936.604h-.726"/><path d="M121.117 98.46v-1.27m0 0l-.121.181m0 .001l-.121.121m0 0l-.121.061m.968 1.027h.968m.301-.121v-1.27m0 0h.302m.001 0l.181.061m0 0l.121.121m0 0l.061.121m0 0l.06.242m0 0v.181m0 0l-.06.242m0 0l-.061.121m0 0l-.121.121m0 0l-.181.06"/><path d="M123.294 98.46h-.302m1.269 0v-1.27m.545 1.21l.181.06m0 0h.302m.001 0l.121-.06m0 0l.061-.061m-.001 0l.06-.121m.001 0v-.121"/><path d="M125.532 98.098l-.06-.121m-.001 0l-.061-.061m.001 0l-.121-.06m0 0l-.242-.06m0-.001l-.121-.061m0 .001l-.06-.061m-.001 0l-.06-.121m0 0v-.121m0 0l.06-.121m0 0l.06-.061m.001.001l.121-.061"/><path d="M125.048 97.19h.302m0 0l.181.061m.545 1.209v-1.27m0 0h.484m0 0l.121.061m0 0l.061.061m-.001-.001l.06.121m0 0v.181m0 .001l-.06.121m0 0l-.061.061m.001-.001l-.121.06"/><path d="M126.56 97.856h-.484m.967.725h.968m.302-.121v-1.27m0 0h.302m.001 0l.181.061m0 0l.121.121m0 0l.06.121m.001 0l.06.242m0 0v.181m0 0l-.06.242m0 0l-.06.121m-.001 0l-.121.121m0 0l-.181.06"/><path d="M128.616 98.46h-.302m1.995-.121l-.06.061m0 0l-.181.06m-.001 0h-.121m0 0l-.181-.06m0 0l-.121-.121m0 0l-.06-.121m-.001 0l-.06-.242m0 0v-.181m0 0l.06-.242m0 0l.06-.121m.001 0l.121-.121m0 0l.181-.061"/><path d="M129.946 97.19h.121m0 0l.181.061m.001 0l.06.061"/></g><path d="M132.08 97.79l-1.111-1.27h-15.002v1.27 1.27h15.002z"/></g><g stroke="#009600" class="D"><path d="M144.78 80.01v1.27m12.7 11.43h-1.27m1.27 2.54h-1.27m-24.13-5.08h1.27m-1.27 5.08h1.27"/><path d="M132.08 92.71h1.27m-1.27 5.08h1.27m11.43 10.16v-1.27"/></g></g><defs ><path id="B" d="M202.531 192.865l-.143-.071"/><path id="C" d="M205.531 193.722l-.071.071"/><path id="D" d="M205.459 193.793l-.071-.071"/><path id="E" d="M177.002 194.507h108"/><path id="F" d="M183.602 196.522l-.071-.072"/><path id="G" d="M187.388 196.45l.071.072"/><path id="H" d="M187.317 196.522l.071-.072"/><path id="I" d="M135.89 83.82h17.78v20.32h-17.78z"/></defs></svg>